<?xml version="1.0" encoding="UTF-8"?>
<svg viewBox="0 0 312 328" xmlns="http://www.w3.org/2000/svg">
 <rect width="312" height="328" fill="#fff"/>
 <g transform="translate(0)">
  <ns0:rect width="312" height="288" fill="white" xmlns:ns0="http://www.w3.org/2000/svg"/>
  <ns1:g transform="translate(6,83)" fill="none" stroke-miterlimit="10" xmlns:ns1="http://www.w3.org/2000/svg">
   <ns1:g class="mark-group role-frame root" aria-roledescription="group mark container" role="graphics-object">
    <ns1:g transform="translate(0)">
     <ns1:path class="background" d="M0,0h300v200h-300Z" aria-hidden="true"/>
     <ns1:g>
      <ns1:g class="mark-shape role-mark layer_0_marks" aria-roledescription="shape mark container" role="graphics-symbol">
       <ns1:path transform="translate(0)" d="M266.69,146.798L267.212,147.623L266.804,148.251L267.055,149.701L266.209,151.38L266.13,151.902L265.554,152.805L264.771,153.579L263.001,154.497L262.24,154.49L261.514,154.006L260.79,154.407L259.757,154.241L258.562,154.582L258.02,155.539L258.126,156.1L257.655,156.997L257.439,158.973L256.993,159.707L256.833,160.814L256.141,161.155L255.341,160.829L252.224,160.976L252.284,161.555L250.85,162.765L250.247,163.972L249.451,164.479L248.723,165.34L247.853,165.317L247.161,165.771L245.643,165.723L245.116,166.587L244.277,166.66L243.695,167.721L242.909,167.82L242.298,167.493L241.789,168.318L240.64,168.557L238.736,166.619L237.681,166.269L236.916,166.682L236.521,167.646L236.142,167.444L235.161,168.526L234.368,168.124L233.723,168.504L233.292,167.934L231.466,166.498L228.323,164.813L227.178,164.613L226.547,164.153L226.117,164.386L225.262,165.533L224.382,166.429L222.687,167.178L222.266,167.778L222.225,169.064L221.617,169.674L221.544,170.358L220.628,170.826L219.489,171.864L219.396,172.443L218.293,174.101L218.092,175L217.496,175.545L217.528,176.562L216.745,177.277L216.171,178.248L216.243,179.61L215.53,181.349L214.944,181.738L214.022,181.377L214.419,180.215L214.063,179.786L214.179,178.13L213.623,177.751L213.984,176.566L213.413,175.2L212.52,175.021L211.808,175.3L209.938,175.393L208.281,175.208L207.657,175.336L206.687,174.786L205.326,173.573L204.348,173.683L203.526,174.271L203.139,173.269L203.434,172.825L203.174,171.331L202.145,170.415L201.222,170.732L199.581,170.582L199.061,169.942L198.302,169.826L197.239,168.454L196.472,169.431L193.745,169.104L193.16,169.458L193.118,170.049L192.563,170.991L192.553,171.728L192.002,171.978L191.423,173.158L190.74,173.691L189.218,174.253L188.354,173.266L188.175,173.968L187.028,173.865L186.805,173.541L185.165,173.361L183.15,173.439L180.13,172.883L179.431,173.266L178.501,173.001L177.387,172.989L176.15,172.468L175.614,172.038L173.023,170.806L172.676,170.356L171.04,169.062L171.281,167.82L170.373,168.13L169.581,166.815L169.149,167.025L166.249,165.239L166.655,164.752L166.043,164.243L165.631,164.632L163.501,164.373L163.168,165.024L162.354,165.903L160.574,165.506L159.375,165.576L157.879,163.837L156.888,163.689L156.412,162.976L154.446,162.903L153.805,162.423L151.705,161.728L151.351,161.242L151.201,160.254L149.621,159.206L148.225,159.312L146.398,158.281L146.144,157.774L145.215,157.155L143.676,156.956L143.21,157.543L142.499,157.423L141.849,156.99L140.876,158.749L140.477,159.044L139.872,158.665L138.898,158.623L137.816,159.158L137.339,159.779L136.796,159.463L135.837,159.568L136.473,158.446L135.981,156.613L135.278,156.131L133.707,156.012L133.029,156.137L131.806,155.949L131.801,155.111L130.76,155.155L129.913,154.548L129.14,155.092L128.732,156.602L128.264,156.837L127.895,157.889L127.909,158.914L128.353,160.257L128.039,160.569L128.508,161.609L128.637,162.408L128.218,163.29L128.234,164.382L127.751,164.389L127.806,165.715L128.261,166.318L127.712,166.57L127.603,167.812L127.063,168.698L126.879,169.728L127.025,170.236L127.784,170.543L128.101,171.078L126.991,172.235L125.427,171.529L124.793,171.636L123.842,171.306L123.689,170.754L122.353,170.942L121.971,170.494L121.218,170.502L120.454,170.933L120.596,172.009L120.108,172.954L120.447,173.862L119.851,174.124L119.446,174.906L118.869,175.391L118.182,175.511L117.462,176.049L116.889,176.916L116.857,177.534L116.202,179.487L116.634,180.284L116.279,181.677L116.591,182.687L115.92,183.457L114.872,184.008L114.034,184.056L113.778,182.974L113.259,182.184L112.582,182.634L111.714,180.979L110.769,181.664L110.375,181.714L109.54,182.624L108.897,181.933L107.712,181.6L106.966,181.692L106.608,180.983L105.514,179.793L104.297,179.935L104.716,180.768L104.21,182.828L103.703,183.615L103.042,183.349L101.961,183.296L101.829,184.731L100.961,184.868L100.492,184.623L99.788,185.89L99.127,185.923L98.9,185.321L98.325,185.231L96.988,184.573L96.656,184.11L95.615,184.318L94.743,183.837L93.283,183.349L91.854,183.535L91.476,183.123L90.516,183.014L89.767,183.572L88.984,182.996L87.807,182.87L87.033,182.57L86.441,181.679L86.762,181.012L85.647,180.788L85.438,180.373L85.716,179.368L86.975,179.316L87.3,178.472L87.261,177.901L86.168,177.664L85.345,176.682L84.774,175.561L82.657,175.135L81.399,174.003L81.071,173.398L79.996,172.303L78.796,171.459L76.348,171.165L76.129,170.531L76.429,169.594L74.837,167.246L74.381,167.301L73.509,165.254L73.59,164.958L72.981,164.048L72.037,164.153L71.363,163.916L70.856,164.148L70.066,164.019L69.359,163.113L68.585,160.948L67.897,160.063L67.856,159.376L67.016,159.784L66.423,158.995L66.59,158.588L66.017,157.907L65.545,158.193L64.39,158.091L63.765,157.684L62.781,158.017L62.833,159.837L62.219,159.859L61.745,159.242L61.1,159.008L60.634,158.44L59.941,158.239L58.156,156.794L58.453,155.714L58.048,154.872L58.294,154.32L57.689,152.258L57.064,152.063L56.788,151.457L55.66,150.382L55.562,149.921L54.832,149.433L53.124,147.907L52.557,147.782L50.785,148.241L49.416,147.667L47.855,146.188L48.147,144.818L47.881,144.181L46.894,143.612L46.007,142.592L45.177,142.18L45.309,141.081L44.128,140.417L44.254,140.019L43.88,139.171L42.984,138.985L42.743,138.046L41.813,138.053L41.439,137.046L41.655,136.446L41.597,135.308L40.561,135.114L40.345,134.633L39.094,133.3L38.092,132.685L36.731,132.648L36.141,132.292L34.989,132.175L35.336,133.296L34.851,133.394L33.556,132.584L33.093,132.833L31.579,132.772L30.498,132.328L30.661,131.575L30.043,131.156L29.584,130.485L29.566,129.153L28.475,128.126L27.667,127.836L27.396,127.112L26.096,127.021L25.056,126.43L25.148,125.369L24.729,124.145L24.161,123.34L24.528,123.059L24.342,122.045L24.537,120.519L22.673,119.767L21.428,117.896L21.292,117.279L21.544,116.083L20.986,115.371L20.838,113.808L20.175,113.695L19.391,113.912L18.956,111.904L19.474,110.627L19.092,109.213L18.378,109.32L17.487,109.135L17.439,108.716L15.49,107.904L14.853,106.209L14.334,106.109L13.738,104.615L13.851,104.062L16.691,102.423L16.965,100.407L16.952,99.132L17.403,98.564L18.058,98.86L18.051,97.532L18.632,97.422L19.104,95.83L19.913,95.174L20.363,94.465L20.259,93.16L19.855,92.861L18.683,92.672L17.186,92.124L16.836,91.208L17.881,89.76L17.701,88.951L17.109,89.01L16.406,88.036L15.278,88.13L14.77,87.643L12.814,86.725L12.271,86.343L10.96,84.947L10.56,85.462L9.978,84.507L10.047,84L9.238,83.639L8.554,83.789L7.574,83.187L7.811,82.269L6.892,81.305L6.337,81.185L5.802,80.519L5.344,80.667L4.829,80.023L4.61,78.176L5.557,76.064L4.902,74.649L3.899,73.459L3.148,73.053L2.837,71.878L1.65,71.628L0.812,71.23L0.71,70.635L0,70.233L0.85,69.258L2.114,68.664L2.009,68.054L1.459,67.603L1.378,66.211L1.766,65.61L2.482,65.411L4.167,65.389L4.266,66.121L4.827,66.466L4.631,67.394L4.945,67.764L4.908,68.816L5.433,69.004L7.236,68.945L7.781,69.786L7.075,70.045L6.581,70.609L7.824,71.658L8.172,71.561L9.009,72.407L8.507,72.955L8.771,73.595L8.158,74.102L8.805,74.828L9.071,75.618L10.47,75.746L10.428,75.196L10.977,74.408L10.316,73.359L10.854,70.921L11.447,71.299L11.884,70.824L11.518,70.168L11.925,68.768L12.414,67.965L13.454,67.654L13.848,66.879L13.642,65.445L15.362,65.004L15.591,64.016L16.787,63.126L17.435,63.668L17.819,63.029L17.545,62.088L18.704,60.229L20.727,60.031L21.698,59.489L22.724,59.534L23.761,58.852L24.532,59.247L25.715,58.853L27.22,60.085L27.345,59.433L28.328,58.48L28.538,57.736L31.214,56.547L31.553,57.245L32.225,56.447L32.397,55.877L37.417,59.1L38.702,58.972L39.655,58.567L40.106,57.651L41.102,56.864L41.299,53.981L42.191,52.219L42.794,52.939L44.103,53.007L44.78,52.831L46.137,51.734L46.453,52.292L48.191,52.824L48.958,52.8L48.957,51.902L49.476,51.551L50.211,49.747L50.317,48.409L50.637,47.511L51.316,46.602L52.66,46.541L53.209,47.8L54.623,47.373L54.469,45.942L55.541,45.158L56.475,44.804L57.053,44.073L56.821,42.73L57.712,43.138L58.138,43.602L58.579,44.693L59.32,45.3L59.865,45.268L60.793,45.927L61.461,44.983L62.182,44.369L62.358,43.821L63.545,43.324L63.584,42.615L63.101,42.141L64.431,40.658L64.295,39.911L63.586,38.753L64.179,38.65L65.041,38.024L67.021,38.349L68.094,37.946L67.995,37.529L68.826,36.99L69.895,36.846L71.012,37.775L71.668,37.879L72.579,36.703L73.13,37.15L73.916,36.552L74.383,36.756L76.091,36.726L76.925,37.359L78.316,37.085L78.783,36.071L79.405,36.397L80.047,36.038L80.229,35.429L79.635,34.155L80.503,32.572L81.458,32.861L82.185,32.587L82.588,31.569L84.006,30.912L84.757,31.03L86.182,31.692L86.378,31.332L88.106,31.179L88.596,30.225L90.519,29.67L91.021,29.208L92.039,28.746L93.495,28.466L94.952,27.137L95.112,26.279L96.482,25.364L97.45,26.018L98.143,26.162L98.785,25.816L100.103,25.547L100.509,25.072L101.238,25.281L101.848,25.01L101.756,23.844L102.443,23.375L102.224,22.482L101.755,22.173L100.616,22.124L99.677,21.534L98.393,21.171L98.039,20.445L98.508,19.949L99.106,19.947L99.242,19.253L98.431,19.08L97.693,19.523L96.272,19.026L96.09,18.558L96.487,17.976L96.389,17.425L97.045,17.006L97.58,14.719L98.018,14.117L98.636,14.077L99.474,15.202L100.672,14.805L101.59,15.284L101.613,15.999L102.737,16.676L103.237,16.657L104.743,15.467L105.269,15.509L105.656,16.2L106.467,16.35L106.38,14.93L107.171,14.99L106.727,16.443L107.907,16.688L108.495,17.116L108.33,17.735L109.395,17.495L110.28,17.974L110.405,18.455L111.181,18.902L111.052,20.623L110.39,22.081L109.472,23.271L109.668,23.753L110.473,24.038L111.979,23.237L113.447,22.818L113.563,24.608L112.939,25.052L112.06,28.002L113.34,28.635L113.893,28.535L115.209,29.389L116.046,29.205L116.792,30.489L117.397,30.021L118.6,30.705L119.537,30.391L120.072,30.468L120.556,28.458L121.032,27.889L121.122,27.102L122.916,27.102L124.526,26.723L126.174,27.183L127.304,27.698L128.361,27.191L129.036,27.228L128.781,24.99L128.902,24.179L128.483,23.513L129.411,22.359L129.632,21.544L129.439,20.649L129.717,20.336L129.221,18.953L128.459,19.545L127.543,18.702L128.304,17.235L128.828,17.35L129.681,16.463L130.289,16.454L130.519,17.093L131.503,17.085L131.946,16.504L132.381,17.044L133.649,17.243L133.243,17.864L133.612,18.597L134.628,18.692L135.349,17.057L136.567,16.588L136.729,18.797L137.343,19.394L137.708,18.753L138.635,18.317L139.463,18.388L139.962,19.43L141.098,19.439L141.09,20.61L141.894,21.269L141.805,21.7L140.822,22.75L140.82,23.781L141.23,25.665L142.682,27.743L144.059,28.22L144.822,28.738L145.232,29.387L145.563,30.587L145.194,31.866L145.46,32.351L145.516,33.591L146.331,33.746L147.347,32.561L147.602,31.827L148.397,31.419L150.83,32.88L151.599,32.699L152.189,33.667L153.135,33.425L153.949,33.729L154.602,33.529L156.272,33.994L156.524,34.495L158.172,34.868L159.263,35.376L159.472,36.064L160.229,36.451L161.012,36.274L161.498,36.527L162.581,36.025L163.487,36.1L164.03,35.373L165.126,35.186L165.824,36.071L165.734,37.348L166.623,38.432L167.215,40.449L168.178,40.784L169.706,40.137L171.817,39.639L172.768,40.119L173.464,41.984L173.516,43.089L173.927,44.058L172.668,45.02L173.547,45.628L174.568,45.785L175.161,45.056L175.814,44.871L176.268,43.272L177.486,42.347L177.868,41.622L178.85,41.817L179.455,42.502L179.849,42.323L181.115,43.28L181.604,44.142L183.047,43.501L183.089,42.451L183.68,41.049L184.723,41.36L185.658,41.284L185.764,41.761L186.79,41.923L187.55,41.396L188.478,41.752L188.839,42.707L189.339,42.674L190.756,44.742L191.251,44.863L191.986,45.57L192.921,46.992L192.992,47.476L191.836,48.238L191.207,48.195L191.486,49.686L190.443,50.113L191.08,50.942L189.846,51.884L189.244,52.94L188.51,53.315L188.009,52.78L187.075,52.603L187.119,53.435L186.335,54.441L185.173,54.216L184.317,54.839L184.606,55.28L183.699,55.817L183.646,56.598L183.011,56.378L182.366,56.595L182.085,57.079L182.061,57.98L182.573,58.123L183.064,59.5L183.826,59.007L184.482,59.594L184.382,60.438L184.931,60.433L185.139,61.419L185.944,62.245L186.65,61.234L187.593,61.234L188.422,61.525L189.262,61.413L189.584,62.282L189.28,63.208L189.902,63.997L190.258,64.932L190.968,65.6L191.432,65.243L192.349,65.192L193.139,66.574L193.866,67.237L193.935,67.786L194.855,68.96L194.978,69.413L195.751,69.73L196.178,70.852L197.098,71.163L197.574,71.802L198.149,73.486L197.854,74.068L198.26,75.25L198.121,76.31L199.138,77.089L198.999,77.764L200.444,78.577L200.477,79.024L201.677,79.94L204.565,81.016L205.503,80.11L206.285,78.393L206.735,78.438L207.992,77.628L207.915,77.231L208.613,76.24L208.76,75.24L209.169,74.601L210.252,74.067L210.83,73.348L211.905,74.073L212.417,73.849L212.499,72.959L213.073,72.338L213.932,72.049L214.357,72.268L215.642,72.303L216.735,71.362L217.545,72.765L218.275,72.498L218.849,71.786L218.067,70.905L217.663,69.956L218.328,69.197L218.478,68.419L217.636,66.721L215.622,66.08L214.967,65.559L214.484,63.751L213.849,62.555L214.025,62.162L213.527,60.607L211.911,59.77L211.412,59.206L212.308,57.471L213.512,56.546L214.135,57.169L215.335,57.705L216.275,58.453L216.858,58.589L217.519,58.056L218.194,58.693L218.67,58.492L219.923,59.502L221.183,59.83L221.368,59.584L222.503,59.641L222.519,60.425L223.046,60.387L223.947,61.347L225.549,60.948L226.625,60.95L226.509,62.487L227.491,63.728L228.556,64.706L229.281,64.973L230.444,65.717L231.456,65.51L232.123,65.051L232.686,65.358L232.553,66.025L233.27,66.374L232.929,67.082L232.775,68.243L232.942,69.182L233.685,69.357L233.822,68.177L234.838,68.129L235.628,68.74L236.239,68.498L237.076,70.287L237.74,69.947L237.886,69.007L239.56,68.66L240.432,68.696L241.925,69.016L243.809,68.394L244.662,69.291L246.437,68.474L248.137,66.801L248.04,64.99L249.616,65.704L249.897,66.703L250.87,66.962L250.133,68.507L249.824,68.733L249.773,69.8L250.291,70.453L251.499,71.342L251.126,72.378L251.211,73.408L250.154,73.691L249.376,73.479L248.748,74.908L247.102,75.397L244.384,75.876L243.863,76.633L244.925,78.068L245.92,78.608L246.354,79.963L247.585,80.571L247.878,79.584L248.847,79.785L249.988,80.976L249.915,81.587L250.833,82.327L251.052,83.368L251.804,84.517L251.736,85.224L252.058,86.289L253.238,86.826L254.279,86.903L254.685,87.434L254.669,88.209L256.088,89.579L256.829,89.112L257.89,89.302L258.578,88.936L259.879,87.333L261.373,86.841L263.483,86.925L263.969,86.587L264.089,85.791L263.883,85.157L263.013,85.009L262.715,85.503L262.107,85.075L262.145,83.992L263.406,83.127L264.125,83.655L264.651,83.599L264.841,84.361L265.877,84.639L265.68,85.328L266.488,86.124L266.051,86.648L266.56,87.619L267.101,88.086L267.728,87.815L268.429,88.26L268.734,88.898L269.407,88.617L269.361,87.785L270.027,87.655L270.48,88.06L271.072,87.825L271.695,89.829L272.276,89.684L274.238,90.2L274.408,91.091L274.291,91.813L274.76,92.593L276.172,93.477L276.688,92.662L277.038,92.788L277.668,91.529L278.249,92.045L279.286,92.228L281.008,91.944L281.094,92.611L281.594,92.947L282.435,93.025L283.418,94.134L285.483,94.607L286.067,92.792L286.768,93.333L287.409,93.289L287.626,94.189L286.988,95.901L287.633,96.855L288.498,96.9L288.681,97.52L287.787,97.851L288.041,98.312L287.154,99.082L287.149,99.509L287.735,100.229L288.506,102.211L288.386,102.509L288.966,103.441L289.206,104.671L289.804,105.075L289.672,106.26L290.114,107.278L291.488,107.673L291.533,108.069L292.661,107.852L293.231,107.999L293.792,109.414L295.209,109.887L295.785,109.357L296.515,109.307L297.577,109.751L297.821,110.288L297.655,111.641L298.449,114.161L299.022,117.667L300,118.527L299.92,119.392L299.328,119.654L299.026,120.368L299.156,120.963L297.922,120.863L297.362,121.344L296.451,121.64L295.356,122.774L294.515,122.649L293.403,121.81L292.406,121.931L292.035,121.478L291.363,121.822L290.385,121.927L289.462,122.269L288.635,122.181L288.388,121.283L287.322,121.415L286.105,121.946L285.6,123.036L286.202,124.174L285.176,124.95L285.095,125.444L283.725,126.429L283.034,127.661L282.987,128.226L281.947,128.776L281.859,129.241L280.928,129.229L280.22,128.875L280.04,129.487L280.303,130.839L279.564,131.74L278.711,133.526L278.124,133.943L276.395,134.365L275.261,134.921L275.078,135.304L273.967,135.461L272.899,135.962L271.757,135.916L270.073,136.486L270.106,137.598L269.12,138.277L268.44,139.106L268.464,139.987L268.844,140.393L268.227,142.596L267.717,143.144L267.675,144.532L267.976,145.035L267.18,145.595L267.164,146.223Z" fill="#FFFFE4" stroke="#EED801" stroke-width=".6"/>
      </ns1:g>
      <ns1:g class="mark-symbol role-mark layer_1_marks" fill="#D6534B" stroke-width="2" aria-roledescription="symbol mark container" role="graphics-object">
       <ns1:path transform="translate(207 173)" d="M2.5,0A2.5,2.5,0,1,1,-2.5,0A2.5,2.5,0,1,1,2.5,0" aria-label="longitude: 16.75498066; latitude: 48.740717231" aria-roledescription="circle" role="graphics-symbol"/>
       <ns1:path transform="translate(185 107)" d="M2.5,0A2.5,2.5,0,1,1,-2.5,0A2.5,2.5,0,1,1,2.5,0" aria-label="longitude: 16.265478874; latitude: 49.71467939" aria-roledescription="circle" role="graphics-symbol"/>
       <ns1:path transform="translate(149 77)" d="M2.5,0A2.5,2.5,0,1,1,-2.5,0A2.5,2.5,0,1,1,2.5,0" aria-label="longitude: 15.460334603; latitude: 50.154454367" aria-roledescription="circle" role="graphics-symbol"/>
       <ns1:path transform="translate(180 91)" d="M2.5,0A2.5,2.5,0,1,1,-2.5,0A2.5,2.5,0,1,1,2.5,0" aria-label="longitude: 16.161752006; latitude: 49.953240035" aria-roledescription="circle" role="graphics-symbol"/>
       <ns1:path transform="translate(157 62)" d="M2.5,0A2.5,2.5,0,1,1,-2.5,0A2.5,2.5,0,1,1,2.5,0" aria-label="longitude: 15.631918228; latitude: 50.36613674" aria-roledescription="circle" role="graphics-symbol"/>
       <ns1:path transform="translate(148 150)" d="M2.5,0A2.5,2.5,0,1,1,-2.5,0A2.5,2.5,0,1,1,2.5,0" aria-label="longitude: 15.437278856; latitude: 49.081598679" aria-roledescription="circle" role="graphics-symbol"/>
       <ns1:path transform="translate(141 91)" d="M2.5,0A2.5,2.5,0,1,1,-2.5,0A2.5,2.5,0,1,1,2.5,0" aria-label="longitude: 15.268225887; latitude: 49.948444972" aria-roledescription="circle" role="graphics-symbol"/>
       <ns1:path transform="translate(170 63)" d="M2.5,0A2.5,2.5,0,1,1,-2.5,0A2.5,2.5,0,1,1,2.5,0" aria-label="longitude: 15.921447438; latitude: 50.356235289" aria-roledescription="circle" role="graphics-symbol"/>
       <ns1:path transform="translate(145 119)" d="M2.5,0A2.5,2.5,0,1,1,-2.5,0A2.5,2.5,0,1,1,2.5,0" aria-label="longitude: 15.359357331; latitude: 49.541577778" aria-roledescription="circle" role="graphics-symbol"/>
       <ns1:path transform="translate(129 124)" d="M2.5,0A2.5,2.5,0,1,1,-2.5,0A2.5,2.5,0,1,1,2.5,0" aria-label="longitude: 15.001713769; latitude: 49.470826885" aria-roledescription="circle" role="graphics-symbol"/>
       <ns1:path transform="translate(123 83)" d="M2.5,0A2.5,2.5,0,1,1,-2.5,0A2.5,2.5,0,1,1,2.5,0" aria-label="longitude: 14.86088147; latitude: 50.07426748" aria-roledescription="circle" role="graphics-symbol"/>
       <ns1:path transform="translate(151 71)" d="M2.5,0A2.5,2.5,0,1,1,-2.5,0A2.5,2.5,0,1,1,2.5,0" aria-label="longitude: 15.490898003; latitude: 50.241552543" aria-roledescription="circle" role="graphics-symbol"/>
       <ns1:path transform="translate(146 51)" d="M2.5,0A2.5,2.5,0,1,1,-2.5,0A2.5,2.5,0,1,1,2.5,0" aria-label="longitude: 15.373504846; latitude: 50.530676536" aria-roledescription="circle" role="graphics-symbol"/>
       <ns1:path transform="translate(63 140)" d="M2.5,0A2.5,2.5,0,1,1,-2.5,0A2.5,2.5,0,1,1,2.5,0" aria-label="longitude: 13.520207848; latitude: 49.231161465" aria-roledescription="circle" role="graphics-symbol"/>
       <ns1:path transform="translate(173 98)" d="M2.5,0A2.5,2.5,0,1,1,-2.5,0A2.5,2.5,0,1,1,2.5,0" aria-label="longitude: 15.996602726; latitude: 49.843507732" aria-roledescription="circle" role="graphics-symbol"/>
      </ns1:g>
      <ns1:g class="mark-text role-mark layer_2_marks" fill="black" font-family="Asap" font-size="9px" aria-roledescription="text mark container" role="graphics-object">
       <ns1:text transform="translate(190 110)" aria-label="longitude: 16.265478874; latitude: 49.71467939; rodna_obec: Polička" aria-roledescription="text mark" role="graphics-symbol">Polička</ns1:text>
       <ns1:text transform="translate(154 80)" aria-label="longitude: 15.460334603; latitude: 50.154454367; rodna_obec: Chlumec nad Cidlinou" aria-roledescription="text mark" role="graphics-symbol">Chlumec nad Cidlinou</ns1:text>
       <ns1:text transform="translate(185 94)" aria-label="longitude: 16.161752006; latitude: 49.953240035; rodna_obec: Vysoké Mýto" aria-roledescription="text mark" role="graphics-symbol">Vysoké Mýto</ns1:text>
       <ns1:text transform="translate(175 66)" aria-label="longitude: 15.921447438; latitude: 50.356235289; rodna_obec: Jaroměř" aria-roledescription="text mark" role="graphics-symbol">Jaroměř</ns1:text>
       <ns1:text transform="translate(150 122)" aria-label="longitude: 15.359357331; latitude: 49.541577778; rodna_obec: Humpolec" aria-roledescription="text mark" role="graphics-symbol">Humpolec</ns1:text>
      </ns1:g>
      <ns1:g class="mark-text role-mark layer_3_marks" fill="black" font-family="Asap" font-size="9px" text-anchor="end" aria-roledescription="text mark container" role="graphics-object">
       <ns1:text transform="translate(202 176)" aria-label="longitude: 16.75498066; latitude: 48.740717231; rodna_obec: Valtice" aria-roledescription="text mark" role="graphics-symbol">Valtice</ns1:text>
       <ns1:text transform="translate(152 65)" aria-label="longitude: 15.631918228; latitude: 50.36613674; rodna_obec: Hořice" aria-roledescription="text mark" role="graphics-symbol">Hořice</ns1:text>
       <ns1:text transform="translate(143 153)" aria-label="longitude: 15.437278856; latitude: 49.081598679; rodna_obec: Dačice" aria-roledescription="text mark" role="graphics-symbol">Dačice</ns1:text>
       <ns1:text transform="translate(136 94)" aria-label="longitude: 15.268225887; latitude: 49.948444972; rodna_obec: Kutná Hora" aria-roledescription="text mark" role="graphics-symbol">Kutná Hora</ns1:text>
       <ns1:text transform="translate(124 127)" aria-label="longitude: 15.001713769; latitude: 49.470826885; rodna_obec: Pacov" aria-roledescription="text mark" role="graphics-symbol">Pacov</ns1:text>
       <ns1:text transform="translate(118 86)" aria-label="longitude: 14.86088147; latitude: 50.07426748; rodna_obec: Český Brod" aria-roledescription="text mark" role="graphics-symbol">Český Brod</ns1:text>
       <ns1:text transform="translate(146 74)" aria-label="longitude: 15.490898003; latitude: 50.241552543; rodna_obec: Nový Bydžov" aria-roledescription="text mark" role="graphics-symbol">Nový Bydžov</ns1:text>
       <ns1:text transform="translate(141 54)" aria-label="longitude: 15.373504846; latitude: 50.530676536; rodna_obec: Lomnice nad Popelkou" aria-roledescription="text mark" role="graphics-symbol">Lomnice nad Popelkou</ns1:text>
       <ns1:text transform="translate(58 143)" aria-label="longitude: 13.520207848; latitude: 49.231161465; rodna_obec: Sušice" aria-roledescription="text mark" role="graphics-symbol">Sušice</ns1:text>
       <ns1:text transform="translate(168 101)" aria-label="longitude: 15.996602726; latitude: 49.843507732; rodna_obec: Skuteč" aria-roledescription="text mark" role="graphics-symbol">Skuteč</ns1:text>
      </ns1:g>
      <ns1:g class="mark-text role-mark layer_4_marks" aria-roledescription="text mark container" role="graphics-object"/>
      <ns1:g class="mark-group role-title">
       <ns1:g transform="translate(-.6 -67)" pointer-events="none">
        <ns1:path class="background" d="M0,0h0v0h0Z" aria-hidden="true"/>
        <ns1:g>
         <ns1:g class="mark-text role-title-text" aria-label="Title text 'Obce s největším podílem rodáků-spisovatelů'" aria-roledescription="title" role="graphics-symbol">
          <ns1:text transform="translate(0,-1)" fill="#000" font-family="Noticia Text" font-size="12px" font-weight="bolder">Obce s největším podílem rodáků-spisovatelů</ns1:text>
         </ns1:g>
         <ns1:g class="mark-text role-title-subtitle" aria-label="Subtitle text 'Patnáct obcí nad 3000 obyvatel, kde není porodnice. Tím vypadlo Opočno, Nové Město na Moravě nebo Litomyšl, zároveň tento filtr posiluje zastoupení autorů 19. století.'" aria-roledescription="subtitle" role="graphics-symbol">
          <ns1:text transform="translate(0,20)" fill="#000" font-family="Noticia Text" font-size="10px">
           <ns1:tspan>Patnáct obcí nad 3000 obyvatel, kde není porodnice.</ns1:tspan>
           <ns1:tspan x="0" dy="15">Tím vypadlo Opočno, Nové Město na Moravě nebo Litomyšl,</ns1:tspan>
           <ns1:tspan x="0" dy="15">zároveň tento filtr posiluje zastoupení autorů 19. století.</ns1:tspan>
          </ns1:text>
         </ns1:g>
        </ns1:g>
        <ns1:path class="foreground" d="" display="none" aria-hidden="true"/>
       </ns1:g>
      </ns1:g>
     </ns1:g>
     <ns1:path class="foreground" d="" display="none" aria-hidden="true"/>
    </ns1:g>
   </ns1:g>
  </ns1:g>
 </g>
 <g transform="translate(72,288)">
  <ns0:rect width="240" height="40" fill="white" xmlns:ns0="http://www.w3.org/2000/svg"/>
  <ns1:g transform="translate(35,5)" fill="none" stroke-miterlimit="10" xmlns:ns1="http://www.w3.org/2000/svg">
   <ns1:g class="mark-group role-frame root" aria-roledescription="group mark container" role="graphics-object">
    <ns1:g transform="translate(0)">
     <ns1:path class="background" d="M0.5,0.5h200v30h-200Z" aria-hidden="true"/>
     <ns1:g>
      <ns1:g class="mark-text role-mark marks" aria-roledescription="text mark container" role="graphics-object">
       <ns1:text transform="translate(200,12)" fill="black" font-family="Asap" font-size="8px" text-anchor="end" aria-label="text: data: Česká národní bibliografie | vizualizace: iROZHLAS.cz | 2025" aria-roledescription="text mark" role="graphics-symbol">data: Česká národní bibliografie | vizualizace: iROZHLAS.cz | 2025</ns1:text>
      </ns1:g>
     </ns1:g>
     <ns1:path class="foreground" d="" display="none" aria-hidden="true"/>
    </ns1:g>
   </ns1:g>
  </ns1:g>
 </g>
</svg>
