<?xml version="1.0" encoding="UTF-8"?>
<svg viewBox="0 0 342 329" xmlns="http://www.w3.org/2000/svg">
 <rect width="342" height="329" fill="#fff"/>
 <g transform="translate(0)">
  <ns0:rect width="342" height="289" fill="white" xmlns:ns0="http://www.w3.org/2000/svg"/>
  <ns1:g transform="translate(7,68)" fill="none" stroke-miterlimit="10" xmlns:ns1="http://www.w3.org/2000/svg">
   <ns1:g class="mark-group role-frame root" aria-roledescription="group mark container" role="graphics-object">
    <ns1:g transform="translate(0)">
     <ns1:path class="background" d="M0.5,0.5h300v200h-300Z" aria-hidden="true"/>
     <ns1:g>
      <ns1:g class="mark-group role-axis" aria-hidden="true">
       <ns1:g transform="translate(300 .5)">
        <ns1:path class="background" d="M0,0h0v0h0Z" pointer-events="none" aria-hidden="true"/>
        <ns1:g>
         <ns1:g class="mark-rule role-axis-grid" pointer-events="none" stroke="#ddd">
          <ns1:line transform="translate(0,151)" x2="-300" y2="0"/>
          <ns1:line transform="translate(0,100)" x2="-300" y2="0"/>
          <ns1:line transform="translate(0,49)" x2="-300" y2="0"/>
         </ns1:g>
        </ns1:g>
        <ns1:path class="foreground" d="" display="none" pointer-events="none" aria-hidden="true"/>
       </ns1:g>
      </ns1:g>
      <ns1:g class="mark-group role-axis" aria-label="X-axis for a time scale with values from Saturday, 01 January 2000, 12:00:00 AM to Monday, 01 January 2024, 12:00:00 AM" aria-roledescription="axis" role="graphics-symbol">
       <ns1:g transform="translate(.5 200)" pointer-events="none">
        <ns1:path class="background" d="M0,0h0v0h0Z" aria-hidden="true"/>
        <ns1:g>
         <ns1:g class="mark-rule role-axis-tick" stroke="#DCDDD6">
          <ns1:line transform="translate(0)" x2="0" y2="5"/>
          <ns1:line transform="translate(125)" x2="0" y2="5"/>
          <ns1:line transform="translate(250)" x2="0" y2="5"/>
         </ns1:g>
         <ns1:g class="mark-text role-axis-label" fill="#000" font-family="Asap" font-size="9px">
          <ns1:text transform="translate(0,14)">2000</ns1:text>
          <ns1:text transform="translate(125 14)" text-anchor="middle">2010</ns1:text>
          <ns1:text transform="translate(250,14)" text-anchor="middle">2020</ns1:text>
         </ns1:g>
        </ns1:g>
        <ns1:path class="foreground" d="" display="none" aria-hidden="true"/>
       </ns1:g>
      </ns1:g>
      <ns1:g class="mark-group role-axis" aria-label="Y-axis for a linear scale with values from 5 to 395" aria-roledescription="axis" role="graphics-symbol">
       <ns1:g transform="translate(300 .5)" pointer-events="none">
        <ns1:path class="background" d="M0,0h0v0h0Z" aria-hidden="true"/>
        <ns1:g>
         <ns1:g class="mark-rule role-axis-tick" stroke="white">
          <ns1:line transform="translate(0,151)" x2="5" y2="0"/>
          <ns1:line transform="translate(0,100)" x2="5" y2="0"/>
          <ns1:line transform="translate(0,49)" x2="5" y2="0"/>
         </ns1:g>
         <ns1:g class="mark-text role-axis-label" fill="#000" font-family="Asap" font-size="9px">
          <ns1:text transform="translate(7 154)">100 s.</ns1:text>
          <ns1:text transform="translate(7,103)">200 s.</ns1:text>
          <ns1:text transform="translate(7 52)">300 s.</ns1:text>
         </ns1:g>
         <ns1:g class="mark-rule role-axis-domain">
          <ns1:line transform="translate(0,200)" x2="0" y2="-200" stroke="#888" stroke-opacity="0"/>
         </ns1:g>
        </ns1:g>
        <ns1:path class="foreground" d="" display="none" aria-hidden="true"/>
       </ns1:g>
      </ns1:g>
      <ns1:g class="mark-area role-mark layer_0_marks" aria-roledescription="area mark container" role="graphics-object">
       <ns1:path d="M0,73.333L12.526,70.769L25.017,70.256L37.509,58.462L50,56.41L62.526,65.128L75.017,54.359L87.509,51.282L100,55.385L112.526,55.385L125.017,56.41L137.509,52.821L150,46.154L162.526,56.41L175.017,41.026L187.509,37.436L200,38.462L212.526,38.974L225.017,38.462L237.509,27.692L250,37.949L262.526,30.769L275.017,29.231L287.509,24.615L300,23.077L300,89.744L287.509,90.769L275.017,92.821L262.526,94.359L250,93.846L237.509,95.897L225.017,93.333L212.526,96.923L200,96.41L187.509,94.359L175.017,95.385L162.526,102.564L150,107.692L137.509,111.795L125.017,107.179L112.526,121.026L100,121.026L87.509,114.872L75.017,121.026L62.526,120.513L50,125.128L37.509,127.179L25.017,125.128L12.526,131.282L0,129.744Z" fill="#70871E" opacity=".5" aria-label="rok: Jan 01, 2000; hodne: 252; malo: 142" aria-roledescription="area mark" role="graphics-symbol"/>
      </ns1:g>
      <ns1:g class="mark-text role-mark layer_1_marks" aria-roledescription="text mark container" role="graphics-object">
       <ns1:text transform="translate(300 16)" fill="black" font-family="Asap" font-size="10px" text-anchor="end" aria-label="x: Jan 01, 2024; y: 370; text: čtvrtina má 350 stran nebo víc ↓" aria-roledescription="text mark" role="graphics-symbol">čtvrtina má 350 stran nebo víc ↓</ns1:text>
      </ns1:g>
      <ns1:g class="mark-text role-mark layer_2_marks" aria-roledescription="text mark container" role="graphics-object">
       <ns1:text transform="translate(300 121)" fill="black" font-family="Asap" font-size="10px" text-anchor="end" aria-label="x: Jan 01, 2024; y: 165; text: čtvrtina má 221 stran nebo míň ↑" aria-roledescription="text mark" role="graphics-symbol">čtvrtina má 221 stran nebo míň ↑</ns1:text>
      </ns1:g>
      <ns1:g class="mark-line role-mark layer_3_marks" aria-roledescription="line mark container" role="graphics-object">
       <ns1:path d="M0,105.641L12.526,107.692L25.017,100L37.509,92.821L50,91.795L62.526,92.308L75.017,88.718L87.509,88.718L100,88.718L112.526,88.205L125.017,88.205L137.509,88.205L150,82.564L162.526,81.026L175.017,74.872L187.509,70.769L200,70.769L212.526,72.308L225.017,72.821L237.509,68.718L250,70L262.526,65.641L275.017,62.821L287.509,63.333L300,57.436" stroke="#70871E" stroke-width="2" aria-label="rok: Jan 01, 2000; median: 189" aria-roledescription="line mark" role="graphics-symbol"/>
      </ns1:g>
      <ns1:g class="mark-group role-title">
       <ns1:g transform="translate(-2,-52)" pointer-events="none">
        <ns1:path class="background" d="M0,0h0v0h0Z" aria-hidden="true"/>
        <ns1:g>
         <ns1:g class="mark-text role-title-text" aria-label="Title text 'Český román bobtná'" aria-roledescription="title" role="graphics-symbol">
          <ns1:text transform="translate(0,-1)" fill="#000" font-family="Noticia Text" font-size="12px" font-weight="bolder">Český román bobtná</ns1:text>
         </ns1:g>
         <ns1:g class="mark-text role-title-subtitle" aria-label="Subtitle text 'Středně dlouhý román (silná čára uprostřed) je skoro o půlku delší než v roce 2000. Výška většiny výtisků přitom zůstává stejná.'" aria-roledescription="subtitle" role="graphics-symbol">
          <ns1:text transform="translate(0,20)" fill="#000" font-family="Noticia Text" font-size="10px">
           <ns1:tspan>Středně dlouhý román (silná čára uprostřed) je skoro o půlku delší</ns1:tspan>
           <ns1:tspan x="0" dy="15">než v roce 2000. Výška většiny výtisků přitom zůstává stejná.</ns1:tspan>
          </ns1:text>
         </ns1:g>
        </ns1:g>
        <ns1:path class="foreground" d="" display="none" aria-hidden="true"/>
       </ns1:g>
      </ns1:g>
     </ns1:g>
     <ns1:path class="foreground" d="" display="none" aria-hidden="true"/>
    </ns1:g>
   </ns1:g>
  </ns1:g>
 </g>
 <g transform="translate(32,289)">
  <ns0:rect width="310" height="40" fill="white" xmlns:ns0="http://www.w3.org/2000/svg"/>
  <ns1:g transform="translate(5,5)" fill="none" stroke-miterlimit="10" xmlns:ns1="http://www.w3.org/2000/svg">
   <ns1:g class="mark-group role-frame root" aria-roledescription="group mark container" role="graphics-object">
    <ns1:g transform="translate(0)">
     <ns1:path class="background" d="M0.5,0.5h300v30h-300Z" aria-hidden="true"/>
     <ns1:g>
      <ns1:g class="mark-text role-mark marks" aria-roledescription="text mark container" role="graphics-object">
       <ns1:text transform="translate(300,12)" fill="black" font-family="Asap" font-size="8px" text-anchor="end" aria-label="text: data: Česká národní bibliografie | vizualizace: iROZHLAS.cz | 2025" aria-roledescription="text mark" role="graphics-symbol">data: Česká národní bibliografie | vizualizace: iROZHLAS.cz | 2025</ns1:text>
      </ns1:g>
     </ns1:g>
     <ns1:path class="foreground" d="" display="none" aria-hidden="true"/>
    </ns1:g>
   </ns1:g>
  </ns1:g>
 </g>
</svg>
