<svg xmlns="http://www.w3.org/2000/svg" xmlns:xlink="http://www.w3.org/1999/xlink" version="1.1" class="marks" width="470" height="243" viewBox="0 0 470 243"><rect width="470" height="243" fill="white"/><g fill="none" stroke-miterlimit="10" transform="translate(110,58)"><g class="mark-group role-frame root" role="graphics-object" aria-roledescription="group mark container"><g transform="translate(0,0)"><path class="background" aria-hidden="true" d="M0.5,0.5h350v140h-350Z" stroke="#ddd"/><g><g class="mark-group role-axis" aria-hidden="true"><g transform="translate(0.5,140.5)"><path class="background" aria-hidden="true" d="M0,0h0v0h0Z" pointer-events="none"/><g><g class="mark-rule role-axis-grid" pointer-events="none"><line transform="translate(12,0)" x2="0" y2="-140" stroke="#ddd" stroke-width="1" opacity="1"/><line transform="translate(52,0)" x2="0" y2="-140" stroke="#ddd" stroke-width="1" opacity="1"/><line transform="translate(93,0)" x2="0" y2="-140" stroke="#ddd" stroke-width="1" opacity="1"/><line transform="translate(133,0)" x2="0" y2="-140" stroke="#ddd" stroke-width="1" opacity="1"/><line transform="translate(173,0)" x2="0" y2="-140" stroke="#ddd" stroke-width="1" opacity="1"/><line transform="translate(213,0)" x2="0" y2="-140" stroke="#ddd" stroke-width="1" opacity="1"/><line transform="translate(253,0)" x2="0" y2="-140" stroke="#ddd" stroke-width="1" opacity="1"/><line transform="translate(294,0)" x2="0" y2="-140" stroke="#ddd" stroke-width="1" opacity="1"/><line transform="translate(334,0)" x2="0" y2="-140" stroke="#ddd" stroke-width="1" opacity="1"/></g></g><path class="foreground" aria-hidden="true" d="" pointer-events="none" display="none"/></g></g><g class="mark-group role-axis" role="graphics-symbol" aria-roledescription="axis" aria-label="X-axis for a time scale with values from Wednesday, 01 January 1834, 12:00:00 AM to Tuesday, 01 January 2008, 12:00:00 AM"><g transform="translate(0.5,140.5)"><path class="background" aria-hidden="true" d="M0,0h0v0h0Z" pointer-events="none"/><g><g class="mark-rule role-axis-tick" pointer-events="none"><line transform="translate(12,0)" x2="0" y2="5" stroke="#888" stroke-width="1" opacity="1"/><line transform="translate(52,0)" x2="0" y2="5" stroke="#888" stroke-width="1" opacity="1"/><line transform="translate(93,0)" x2="0" y2="5" stroke="#888" stroke-width="1" opacity="1"/><line transform="translate(133,0)" x2="0" y2="5" stroke="#888" stroke-width="1" opacity="1"/><line transform="translate(173,0)" x2="0" y2="5" stroke="#888" stroke-width="1" opacity="1"/><line transform="translate(213,0)" x2="0" y2="5" stroke="#888" stroke-width="1" opacity="1"/><line transform="translate(253,0)" x2="0" y2="5" stroke="#888" stroke-width="1" opacity="1"/><line transform="translate(294,0)" x2="0" y2="5" stroke="#888" stroke-width="1" opacity="1"/><line transform="translate(334,0)" x2="0" y2="5" stroke="#888" stroke-width="1" opacity="1"/></g><g class="mark-text role-axis-label" pointer-events="none"><text text-anchor="middle" transform="translate(12.066497025956071,15)" font-family="Asap" font-size="10px" fill="#000" opacity="1">1840</text><text text-anchor="middle" transform="translate(52.29733261454991,15)" font-family="Asap" font-size="10px" fill="#000" opacity="1">1860</text><text text-anchor="middle" transform="translate(92.52816820314374,15)" font-family="Asap" font-size="10px" fill="#000" opacity="1">1880</text><text text-anchor="middle" transform="translate(132.75899512283746,15)" font-family="Asap" font-size="10px" fill="#000" opacity="1">1900</text><text text-anchor="middle" transform="translate(172.98432341018713,15)" font-family="Asap" font-size="10px" fill="#000" opacity="1">1920</text><text text-anchor="middle" transform="translate(213.21515899878096,15)" font-family="Asap" font-size="10px" fill="#000" opacity="1">1940</text><text text-anchor="middle" transform="translate(253.44599458737483,15)" font-family="Asap" font-size="10px" fill="#000" opacity="1">1960</text><text text-anchor="middle" transform="translate(293.67683017596863,15)" font-family="Asap" font-size="10px" fill="#000" opacity="1">1980</text><text text-anchor="middle" transform="translate(333.90766576456247,15)" font-family="Asap" font-size="10px" fill="#000" opacity="1">2000</text></g><g class="mark-rule role-axis-domain" pointer-events="none"><line transform="translate(0,0)" x2="350" y2="0" stroke="#888" stroke-width="1" opacity="1"/></g></g><path class="foreground" aria-hidden="true" d="" pointer-events="none" display="none"/></g></g><g class="mark-group role-axis" role="graphics-symbol" aria-roledescription="axis" aria-label="Y-axis for a discrete scale with 4 values: Karel Hynek Mácha, Petr Miloslav Veselský, Josef Kalenský, Fan Vavřincová"><g transform="translate(0.5,0.5)"><path class="background" aria-hidden="true" d="M0,0h0v0h0Z" pointer-events="none"/><g><g class="mark-rule role-axis-tick" pointer-events="none"><line transform="translate(0,20)" x2="-5" y2="0" stroke="#888" stroke-width="1" opacity="1"/><line transform="translate(0,53)" x2="-5" y2="0" stroke="#888" stroke-width="1" opacity="1"/><line transform="translate(0,86)" x2="-5" y2="0" stroke="#888" stroke-width="1" opacity="1"/><line transform="translate(0,119)" x2="-5" y2="0" stroke="#888" stroke-width="1" opacity="1"/></g><g class="mark-text role-axis-label" pointer-events="none"><text text-anchor="end" transform="translate(-7,22.50000000000001)" font-family="Asap" font-size="10px" fill="#000" opacity="1">Karel Hynek Mácha</text><text text-anchor="end" transform="translate(-7,55.83333333333334)" font-family="Asap" font-size="10px" fill="#000" opacity="1">Petr Miloslav Veselský</text><text text-anchor="end" transform="translate(-7,89.16666666666667)" font-family="Asap" font-size="10px" fill="#000" opacity="1">Josef Kalenský</text><text text-anchor="end" transform="translate(-7,122.49999999999999)" font-family="Asap" font-size="10px" fill="#000" opacity="1">Fan Vavřincová</text></g><g class="mark-rule role-axis-domain" pointer-events="none"><line transform="translate(0,0)" x2="0" y2="140" stroke="#888" stroke-width="1" opacity="1"/></g></g><path class="foreground" aria-hidden="true" d="" pointer-events="none" display="none"/></g></g><g class="mark-symbol role-mark layer_0_marks" role="graphics-object" aria-roledescription="symbol mark container"><path aria-label="rok: Jan 01, 1836; kdo: Karel Hynek Mácha; jitter: 0.0235285369499" role="graphics-symbol" aria-roledescription="circle" transform="translate(4.020329908237303,20.04418617756018)" d="M1.936,0A1.936,1.936,0,1,1,-1.936,0A1.936,1.936,0,1,1,1.936,0" fill="#445B78" stroke-width="2" opacity="0.7"/><path aria-label="rok: Jan 01, 1834; kdo: Petr Miloslav Veselský; jitter: −0.436168657268" role="graphics-symbol" aria-roledescription="circle" transform="translate(0,53.0299627332292)" d="M1.936,0A1.936,1.936,0,1,1,-1.936,0A1.936,1.936,0,1,1,1.936,0" fill="#DB842F" stroke-width="2" opacity="0.7"/><path aria-label="rok: Jan 01, 1834; kdo: Petr Miloslav Veselský; jitter: 1.05659208164" role="graphics-symbol" aria-roledescription="circle" transform="translate(0,54.158573302893224)" d="M1.936,0A1.936,1.936,0,1,1,-1.936,0A1.936,1.936,0,1,1,1.936,0" fill="#DB842F" stroke-width="2" opacity="0.7"/><path aria-label="rok: Jan 01, 1837; kdo: Petr Miloslav Veselský; jitter: −0.00182583791787" role="graphics-symbol" aria-roledescription="circle" transform="translate(6.036002163600115,53.358350186086696)" d="M1.936,0A1.936,1.936,0,1,1,-1.936,0A1.936,1.936,0,1,1,1.936,0" fill="#DB842F" stroke-width="2" opacity="0.7"/><path aria-label="rok: Jan 01, 1838; kdo: Petr Miloslav Veselský; jitter: −1.09705475635" role="graphics-symbol" aria-roledescription="circle" transform="translate(8.046167117718767,52.53029589625555)" d="M1.936,0A1.936,1.936,0,1,1,-1.936,0A1.936,1.936,0,1,1,1.936,0" fill="#DB842F" stroke-width="2" opacity="0.7"/><path aria-label="rok: Jan 01, 1855; kdo: Petr Miloslav Veselský; jitter: 0.175334393248" role="graphics-symbol" aria-roledescription="circle" transform="translate(42.241000542712484,53.492293224784206)" d="M1.936,0A1.936,1.936,0,1,1,-1.936,0A1.936,1.936,0,1,1,1.936,0" fill="#DB842F" stroke-width="2" opacity="0.7"/><path aria-label="rok: Jan 01, 1866; kdo: Petr Miloslav Veselský; jitter: −0.270718764838" role="graphics-symbol" aria-roledescription="circle" transform="translate(64.36933694175013,53.15505210118941)" d="M1.936,0A1.936,1.936,0,1,1,-1.936,0A1.936,1.936,0,1,1,1.936,0" fill="#DB842F" stroke-width="2" opacity="0.7"/><path aria-label="rok: Jan 01, 1889; kdo: Petr Miloslav Veselský; jitter: 0.214357046851" role="graphics-symbol" aria-roledescription="circle" transform="translate(110.63617469394408,53.521796532424)" d="M1.936,0A1.936,1.936,0,1,1,-1.936,0A1.936,1.936,0,1,1,1.936,0" fill="#DB842F" stroke-width="2" opacity="0.7"/><path aria-label="rok: Jan 01, 1889; kdo: Josef Kalenský; jitter: 0.147205450746" role="graphics-symbol" aria-roledescription="circle" transform="translate(110.63617469394408,86.80435950507011)" d="M1.936,0A1.936,1.936,0,1,1,-1.936,0A1.936,1.936,0,1,1,1.936,0" fill="#70871E" stroke-width="2" opacity="0.7"/><path aria-label="rok: Jan 01, 1889; kdo: Josef Kalenský; jitter: −0.603953023989" role="graphics-symbol" aria-roledescription="circle" transform="translate(110.63617469394408,86.23644170553206)" d="M1.936,0A1.936,1.936,0,1,1,-1.936,0A1.936,1.936,0,1,1,1.936,0" fill="#70871E" stroke-width="2" opacity="0.7"/><path aria-label="rok: Jan 01, 1889; kdo: Josef Kalenský; jitter: 0.057329556701" role="graphics-symbol" aria-roledescription="circle" transform="translate(110.63617469394408,86.73640830476522)" d="M1.936,0A1.936,1.936,0,1,1,-1.936,0A1.936,1.936,0,1,1,1.936,0" fill="#70871E" stroke-width="2" opacity="0.7"/><path aria-label="rok: Jan 01, 1890; kdo: Josef Kalenský; jitter: 2.16950806158" role="graphics-symbol" aria-roledescription="circle" transform="translate(112.64633964806274,88.33333333333334)" d="M1.936,0A1.936,1.936,0,1,1,-1.936,0A1.936,1.936,0,1,1,1.936,0" fill="#70871E" stroke-width="2" opacity="0.7"/><path aria-label="rok: Jan 01, 1890; kdo: Josef Kalenský; jitter: 2.03572588185" role="graphics-symbol" aria-roledescription="circle" transform="translate(112.64633964806274,88.23218652651826)" d="M1.936,0A1.936,1.936,0,1,1,-1.936,0A1.936,1.936,0,1,1,1.936,0" fill="#70871E" stroke-width="2" opacity="0.7"/><path aria-label="rok: Jan 01, 1892; kdo: Josef Kalenský; jitter: −1.79845248841" role="graphics-symbol" aria-roledescription="circle" transform="translate(116.66666088739993,85.33333333333334)" d="M1.936,0A1.936,1.936,0,1,1,-1.936,0A1.936,1.936,0,1,1,1.936,0" fill="#70871E" stroke-width="2" opacity="0.7"/><path aria-label="rok: Jan 01, 1893; kdo: Josef Kalenský; jitter: 1.77563489245" role="graphics-symbol" aria-roledescription="circle" transform="translate(118.68233314276273,88.03554319844872)" d="M1.936,0A1.936,1.936,0,1,1,-1.936,0A1.936,1.936,0,1,1,1.936,0" fill="#70871E" stroke-width="2" opacity="0.7"/><path aria-label="rok: Jan 01, 1928; kdo: Josef Kalenský; jitter: −1.176237551" role="graphics-symbol" aria-roledescription="circle" transform="translate(189.07665764562466,85.80376261021074)" d="M1.936,0A1.936,1.936,0,1,1,-1.936,0A1.936,1.936,0,1,1,1.936,0" fill="#70871E" stroke-width="2" opacity="0.7"/><path aria-label="rok: Jan 01, 1930; kdo: Josef Kalenský; jitter: 0.304912057133" role="graphics-symbol" aria-roledescription="circle" transform="translate(193.10249485510613,86.92359451590255)" d="M1.936,0A1.936,1.936,0,1,1,-1.936,0A1.936,1.936,0,1,1,1.936,0" fill="#70871E" stroke-width="2" opacity="0.7"/><path aria-label="rok: Jan 01, 1932; kdo: Josef Kalenský; jitter: −0.028283294956" role="graphics-symbol" aria-roledescription="circle" transform="translate(197.12282476334346,86.67168020282593)" d="M1.936,0A1.936,1.936,0,1,1,-1.936,0A1.936,1.936,0,1,1,1.936,0" fill="#70871E" stroke-width="2" opacity="0.7"/><path aria-label="rok: Jan 01, 1938; kdo: Josef Kalenský; jitter: −0.393232035766" role="graphics-symbol" aria-roledescription="circle" transform="translate(209.19482909054366,86.3957585527401)" d="M1.936,0A1.936,1.936,0,1,1,-1.936,0A1.936,1.936,0,1,1,1.936,0" fill="#70871E" stroke-width="2" opacity="0.7"/><path aria-label="rok: Jan 01, 1941; kdo: Josef Kalenský; jitter: −0.584843881649" role="graphics-symbol" aria-roledescription="circle" transform="translate(215.2306017832586,86.25088928541572)" d="M1.936,0A1.936,1.936,0,1,1,-1.936,0A1.936,1.936,0,1,1,1.936,0" fill="#70871E" stroke-width="2" opacity="0.7"/><path aria-label="rok: Jan 01, 1946; kdo: Josef Kalenský; jitter: 1.16860327602" role="graphics-symbol" aria-roledescription="circle" transform="translate(225.2871633259812,87.57659336103282)" d="M1.936,0A1.936,1.936,0,1,1,-1.936,0A1.936,1.936,0,1,1,1.936,0" fill="#70871E" stroke-width="2" opacity="0.7"/><path aria-label="rok: Jan 01, 1939; kdo: Fan Vavřincová; jitter: −0.435158592574" role="graphics-symbol" aria-roledescription="circle" transform="translate(211.20499404466233,119.69739306527124)" d="M1.936,0A1.936,1.936,0,1,1,-1.936,0A1.936,1.936,0,1,1,1.936,0" fill="#E09DA3" stroke-width="2" opacity="0.7"/><path aria-label="rok: Jan 01, 1941; kdo: Fan Vavřincová; jitter: 0.60664311832" role="graphics-symbol" aria-roledescription="circle" transform="translate(215.2306017832586,120.48505339941649)" d="M1.936,0A1.936,1.936,0,1,1,-1.936,0A1.936,1.936,0,1,1,1.936,0" fill="#E09DA3" stroke-width="2" opacity="0.7"/><path aria-label="rok: Jan 01, 1943; kdo: Fan Vavřincová; jitter: 1.92990910757" role="graphics-symbol" aria-roledescription="circle" transform="translate(219.25116116238107,121.48551646293177)" d="M1.936,0A1.936,1.936,0,1,1,-1.936,0A1.936,1.936,0,1,1,1.936,0" fill="#E09DA3" stroke-width="2" opacity="0.7"/><path aria-label="rok: Jan 01, 1944; kdo: Fan Vavřincová; jitter: −1.34375048519" role="graphics-symbol" aria-roledescription="circle" transform="translate(221.26132611649973,119.01044680068276)" d="M1.936,0A1.936,1.936,0,1,1,-1.936,0A1.936,1.936,0,1,1,1.936,0" fill="#E09DA3" stroke-width="2" opacity="0.7"/><path aria-label="rok: Jan 01, 1991; kdo: Fan Vavřincová; jitter: −1.05094243017" role="graphics-symbol" aria-roledescription="circle" transform="translate(315.8051665750063,119.23182605937193)" d="M1.936,0A1.936,1.936,0,1,1,-1.936,0A1.936,1.936,0,1,1,1.936,0" fill="#E09DA3" stroke-width="2" opacity="0.7"/><path aria-label="rok: Jan 01, 1992; kdo: Fan Vavřincová; jitter: −1.27015750179" role="graphics-symbol" aria-roledescription="circle" transform="translate(317.81533152912493,119.06608721026629)" d="M1.936,0A1.936,1.936,0,1,1,-1.936,0A1.936,1.936,0,1,1,1.936,0" fill="#E09DA3" stroke-width="2" opacity="0.7"/><path aria-label="rok: Jan 01, 1994; kdo: Fan Vavřincová; jitter: −0.728420081974" role="graphics-symbol" aria-roledescription="circle" transform="translate(321.8411687386064,119.47567098484299)" d="M1.936,0A1.936,1.936,0,1,1,-1.936,0A1.936,1.936,0,1,1,1.936,0" fill="#E09DA3" stroke-width="2" opacity="0.7"/><path aria-label="rok: Jan 01, 1995; kdo: Fan Vavřincová; jitter: −0.815313610407" role="graphics-symbol" aria-roledescription="circle" transform="translate(323.85133369272506,119.40997461966646)" d="M1.936,0A1.936,1.936,0,1,1,-1.936,0A1.936,1.936,0,1,1,1.936,0" fill="#E09DA3" stroke-width="2" opacity="0.7"/><path aria-label="rok: Jan 01, 1995; kdo: Fan Vavřincová; jitter: −0.589163744867" role="graphics-symbol" aria-roledescription="circle" transform="translate(323.85133369272506,119.58095656065908)" d="M1.936,0A1.936,1.936,0,1,1,-1.936,0A1.936,1.936,0,1,1,1.936,0" fill="#E09DA3" stroke-width="2" opacity="0.7"/><path aria-label="rok: Jan 01, 1996; kdo: Fan Vavřincová; jitter: 0.177043391616" role="graphics-symbol" aria-roledescription="circle" transform="translate(325.8614986468437,120.16025198975696)" d="M1.936,0A1.936,1.936,0,1,1,-1.936,0A1.936,1.936,0,1,1,1.936,0" fill="#E09DA3" stroke-width="2" opacity="0.7"/><path aria-label="rok: Jan 01, 1996; kdo: Fan Vavřincová; jitter: 0.767308398426" role="graphics-symbol" aria-roledescription="circle" transform="translate(325.8614986468437,120.60652533298227)" d="M1.936,0A1.936,1.936,0,1,1,-1.936,0A1.936,1.936,0,1,1,1.936,0" fill="#E09DA3" stroke-width="2" opacity="0.7"/><path aria-label="rok: Jan 01, 1996; kdo: Fan Vavřincová; jitter: 0.600718387672" role="graphics-symbol" aria-roledescription="circle" transform="translate(325.8614986468437,120.48057397183157)" d="M1.936,0A1.936,1.936,0,1,1,-1.936,0A1.936,1.936,0,1,1,1.936,0" fill="#E09DA3" stroke-width="2" opacity="0.7"/><path aria-label="rok: Jan 01, 1997; kdo: Fan Vavřincová; jitter: 0.00621709552168" role="graphics-symbol" aria-roledescription="circle" transform="translate(327.8771709022065,120.03109776006445)" d="M1.936,0A1.936,1.936,0,1,1,-1.936,0A1.936,1.936,0,1,1,1.936,0" fill="#E09DA3" stroke-width="2" opacity="0.7"/><path aria-label="rok: Jan 01, 1997; kdo: Fan Vavřincová; jitter: −0.163497063629" role="graphics-symbol" aria-roledescription="circle" transform="translate(327.8771709022065,119.90278436807426)" d="M1.936,0A1.936,1.936,0,1,1,-1.936,0A1.936,1.936,0,1,1,1.936,0" fill="#E09DA3" stroke-width="2" opacity="0.7"/><path aria-label="rok: Jan 01, 2006; kdo: Fan Vavřincová; jitter: 1.45162083692" role="graphics-symbol" aria-roledescription="circle" transform="translate(345.9796700917627,121.12390379217436)" d="M1.936,0A1.936,1.936,0,1,1,-1.936,0A1.936,1.936,0,1,1,1.936,0" fill="#E09DA3" stroke-width="2" opacity="0.7"/><path aria-label="rok: Jan 01, 2007; kdo: Fan Vavřincová; jitter: 0.870403356072" role="graphics-symbol" aria-roledescription="circle" transform="translate(347.98983504588136,120.68447088436537)" d="M1.936,0A1.936,1.936,0,1,1,-1.936,0A1.936,1.936,0,1,1,1.936,0" fill="#E09DA3" stroke-width="2" opacity="0.7"/><path aria-label="rok: Jan 01, 2008; kdo: Fan Vavřincová; jitter: −0.0529218334299" role="graphics-symbol" aria-roledescription="circle" transform="translate(350,119.98638542368418)" d="M1.936,0A1.936,1.936,0,1,1,-1.936,0A1.936,1.936,0,1,1,1.936,0" fill="#E09DA3" stroke-width="2" opacity="0.7"/></g><g class="mark-text role-mark layer_1_marks" role="graphics-object" aria-roledescription="text mark container"><text aria-label="text: vizualizace: iROZHLAS.cz · 2025" role="graphics-symbol" aria-roledescription="text mark" text-anchor="end" transform="translate(355,178)" font-family="Asap" font-size="11px" fill="#222">vizualizace: iROZHLAS.cz · 2025</text></g><g class="mark-group role-title"><g transform="translate(-104.60999298095703,-41)"><path class="background" aria-hidden="true" d="M0,0h0v0h0Z" pointer-events="none"/><g><g class="mark-text role-title-text" role="graphics-symbol" aria-roledescription="title" aria-label="Title text '172 let české literatury ve třech kariérách'" pointer-events="none"><text text-anchor="start" transform="translate(0,-1)" font-family="Noticia Text" font-size="14px" font-weight="bolder" fill="#000" opacity="1">172 let české literatury ve třech kariérách</text></g><g class="mark-text role-title-subtitle" role="graphics-symbol" aria-roledescription="subtitle" aria-label="Subtitle text 'Knihy vydané během života'" pointer-events="none"><text text-anchor="start" transform="translate(0,23)" font-family="Noticia Text" font-size="12px" font-weight="lighter" fill="#000" opacity="1">Knihy vydané během života</text></g></g><path class="foreground" aria-hidden="true" d="" pointer-events="none" display="none"/></g></g></g><path class="foreground" aria-hidden="true" d="" display="none"/></g></g></g></svg>