<svg xmlns="http://www.w3.org/2000/svg" xmlns:xlink="http://www.w3.org/1999/xlink" version="1.1" class="marks" width="480" height="252" viewBox="0 0 480 252"><rect width="480" height="252" fill="white"/><g fill="none" stroke-miterlimit="10" transform="translate(120,67)"><g class="mark-group role-frame root" role="graphics-object" aria-roledescription="group mark container"><g transform="translate(0,0)"><path class="background" aria-hidden="true" d="M0.5,0.5h350v140h-350Z" stroke="#ddd"/><g><g class="mark-group role-axis" aria-hidden="true"><g transform="translate(0.5,140.5)"><path class="background" aria-hidden="true" d="M0,0h0v0h0Z" pointer-events="none"/><g><g class="mark-rule role-axis-grid" pointer-events="none"><line transform="translate(12,0)" x2="0" y2="-140" stroke="#ddd" stroke-width="1" opacity="1"/><line transform="translate(52,0)" x2="0" y2="-140" stroke="#ddd" stroke-width="1" opacity="1"/><line transform="translate(93,0)" x2="0" y2="-140" stroke="#ddd" stroke-width="1" opacity="1"/><line transform="translate(133,0)" x2="0" y2="-140" stroke="#ddd" stroke-width="1" opacity="1"/><line transform="translate(173,0)" x2="0" y2="-140" stroke="#ddd" stroke-width="1" opacity="1"/><line transform="translate(213,0)" x2="0" y2="-140" stroke="#ddd" stroke-width="1" opacity="1"/><line transform="translate(253,0)" x2="0" y2="-140" stroke="#ddd" stroke-width="1" opacity="1"/><line transform="translate(294,0)" x2="0" y2="-140" stroke="#ddd" stroke-width="1" opacity="1"/><line transform="translate(334,0)" x2="0" y2="-140" stroke="#ddd" stroke-width="1" opacity="1"/></g></g><path class="foreground" aria-hidden="true" d="" pointer-events="none" display="none"/></g></g><g class="mark-group role-axis" role="graphics-symbol" aria-roledescription="axis" aria-label="X-axis for a time scale with values from Wednesday, 01 January 1834, 12:00:00 AM to Tuesday, 01 January 2008, 12:00:00 AM"><g transform="translate(0.5,140.5)"><path class="background" aria-hidden="true" d="M0,0h0v0h0Z" pointer-events="none"/><g><g class="mark-rule role-axis-tick" pointer-events="none"><line transform="translate(12,0)" x2="0" y2="5" stroke="#888" stroke-width="1" opacity="1"/><line transform="translate(52,0)" x2="0" y2="5" stroke="#888" stroke-width="1" opacity="1"/><line transform="translate(93,0)" x2="0" y2="5" stroke="#888" stroke-width="1" opacity="1"/><line transform="translate(133,0)" x2="0" y2="5" stroke="#888" stroke-width="1" opacity="1"/><line transform="translate(173,0)" x2="0" y2="5" stroke="#888" stroke-width="1" opacity="1"/><line transform="translate(213,0)" x2="0" y2="5" stroke="#888" stroke-width="1" opacity="1"/><line transform="translate(253,0)" x2="0" y2="5" stroke="#888" stroke-width="1" opacity="1"/><line transform="translate(294,0)" x2="0" y2="5" stroke="#888" stroke-width="1" opacity="1"/><line transform="translate(334,0)" x2="0" y2="5" stroke="#888" stroke-width="1" opacity="1"/></g><g class="mark-text role-axis-label" pointer-events="none"><text text-anchor="middle" transform="translate(12.066497025956071,16)" font-family="Asap" font-size="11px" fill="#000" opacity="1">1840</text><text text-anchor="middle" transform="translate(52.29733261454991,16)" font-family="Asap" font-size="11px" fill="#000" opacity="1">1860</text><text text-anchor="middle" transform="translate(92.52816820314374,16)" font-family="Asap" font-size="11px" fill="#000" opacity="1">1880</text><text text-anchor="middle" transform="translate(132.75899512283746,16)" font-family="Asap" font-size="11px" fill="#000" opacity="1">1900</text><text text-anchor="middle" transform="translate(172.98432341018713,16)" font-family="Asap" font-size="11px" fill="#000" opacity="1">1920</text><text text-anchor="middle" transform="translate(213.21515899878096,16)" font-family="Asap" font-size="11px" fill="#000" opacity="1">1940</text><text text-anchor="middle" transform="translate(253.44599458737483,16)" font-family="Asap" font-size="11px" fill="#000" opacity="1">1960</text><text text-anchor="middle" transform="translate(293.67683017596863,16)" font-family="Asap" font-size="11px" fill="#000" opacity="1">1980</text><text text-anchor="middle" transform="translate(333.90766576456247,16)" font-family="Asap" font-size="11px" fill="#000" opacity="1">2000</text></g><g class="mark-rule role-axis-domain" pointer-events="none"><line transform="translate(0,0)" x2="350" y2="0" stroke="#888" stroke-width="1" opacity="1"/></g></g><path class="foreground" aria-hidden="true" d="" pointer-events="none" display="none"/></g></g><g class="mark-group role-axis" role="graphics-symbol" aria-roledescription="axis" aria-label="Y-axis for a discrete scale with 4 values: Karel Hynek Mácha, Petr Miloslav Veselský, Josef Kalenský, Fan Vavřincová"><g transform="translate(0.5,0.5)"><path class="background" aria-hidden="true" d="M0,0h0v0h0Z" pointer-events="none"/><g><g class="mark-rule role-axis-tick" pointer-events="none"><line transform="translate(0,20)" x2="-5" y2="0" stroke="#888" stroke-width="1" opacity="1"/><line transform="translate(0,53)" x2="-5" y2="0" stroke="#888" stroke-width="1" opacity="1"/><line transform="translate(0,86)" x2="-5" y2="0" stroke="#888" stroke-width="1" opacity="1"/><line transform="translate(0,119)" x2="-5" y2="0" stroke="#888" stroke-width="1" opacity="1"/></g><g class="mark-text role-axis-label" pointer-events="none"><text text-anchor="end" transform="translate(-7,22.50000000000001)" font-family="Asap" font-size="11px" fill="#000" opacity="1">Karel Hynek Mácha</text><text text-anchor="end" transform="translate(-7,55.83333333333334)" font-family="Asap" font-size="11px" fill="#000" opacity="1">Petr Miloslav Veselský</text><text text-anchor="end" transform="translate(-7,89.16666666666667)" font-family="Asap" font-size="11px" fill="#000" opacity="1">Josef Kalenský</text><text text-anchor="end" transform="translate(-7,122.49999999999999)" font-family="Asap" font-size="11px" fill="#000" opacity="1">Fan Vavřincová</text></g><g class="mark-rule role-axis-domain" pointer-events="none"><line transform="translate(0,0)" x2="0" y2="140" stroke="#888" stroke-width="1" opacity="1"/></g></g><path class="foreground" aria-hidden="true" d="" pointer-events="none" display="none"/></g></g><g class="mark-symbol role-mark layer_0_marks" role="graphics-object" aria-roledescription="symbol mark container"><path aria-label="rok: Jan 01, 1836; kdo: Karel Hynek Mácha; jitter: 0.968736474225" role="graphics-symbol" aria-roledescription="circle" transform="translate(4.020329908237303,20.909199529543304)" d="M1.936,0A1.936,1.936,0,1,1,-1.936,0A1.936,1.936,0,1,1,1.936,0" fill="#445B78" stroke-width="2" opacity="0.7"/><path aria-label="rok: Jan 01, 1834; kdo: Petr Miloslav Veselský; jitter: 0.982168080711" role="graphics-symbol" aria-roledescription="circle" transform="translate(0,54.2534386126176)" d="M1.936,0A1.936,1.936,0,1,1,-1.936,0A1.936,1.936,0,1,1,1.936,0" fill="#DB842F" stroke-width="2" opacity="0.7"/><path aria-label="rok: Jan 01, 1834; kdo: Petr Miloslav Veselský; jitter: 1.04163273531" role="graphics-symbol" aria-roledescription="circle" transform="translate(0,54.30172074790738)" d="M1.936,0A1.936,1.936,0,1,1,-1.936,0A1.936,1.936,0,1,1,1.936,0" fill="#DB842F" stroke-width="2" opacity="0.7"/><path aria-label="rok: Jan 01, 1837; kdo: Petr Miloslav Veselský; jitter: 0.545082912472" role="graphics-symbol" aria-roledescription="circle" transform="translate(6.036002163600115,53.89854871427238)" d="M1.936,0A1.936,1.936,0,1,1,-1.936,0A1.936,1.936,0,1,1,1.936,0" fill="#DB842F" stroke-width="2" opacity="0.7"/><path aria-label="rok: Jan 01, 1838; kdo: Petr Miloslav Veselský; jitter: 0.132146810197" role="graphics-symbol" aria-roledescription="circle" transform="translate(8.046167117718767,53.56326657246538)" d="M1.936,0A1.936,1.936,0,1,1,-1.936,0A1.936,1.936,0,1,1,1.936,0" fill="#DB842F" stroke-width="2" opacity="0.7"/><path aria-label="rok: Jan 01, 1855; kdo: Petr Miloslav Veselský; jitter: −0.823564771476" role="graphics-symbol" aria-roledescription="circle" transform="translate(42.241000542712484,52.787279623665285)" d="M1.936,0A1.936,1.936,0,1,1,-1.936,0A1.936,1.936,0,1,1,1.936,0" fill="#DB842F" stroke-width="2" opacity="0.7"/><path aria-label="rok: Jan 01, 1866; kdo: Petr Miloslav Veselský; jitter: 0.592643384324" role="graphics-symbol" aria-roledescription="circle" transform="translate(64.36933694175013,53.93716528661915)" d="M1.936,0A1.936,1.936,0,1,1,-1.936,0A1.936,1.936,0,1,1,1.936,0" fill="#DB842F" stroke-width="2" opacity="0.7"/><path aria-label="rok: Jan 01, 1889; kdo: Petr Miloslav Veselský; jitter: 1.06918212804" role="graphics-symbol" aria-roledescription="circle" transform="translate(110.63617469394408,54.324089388843234)" d="M1.936,0A1.936,1.936,0,1,1,-1.936,0A1.936,1.936,0,1,1,1.936,0" fill="#DB842F" stroke-width="2" opacity="0.7"/><path aria-label="rok: Jan 01, 1889; kdo: Josef Kalenský; jitter: −1.13371881943" role="graphics-symbol" aria-roledescription="circle" transform="translate(110.63617469394408,85.86878437404111)" d="M1.936,0A1.936,1.936,0,1,1,-1.936,0A1.936,1.936,0,1,1,1.936,0" fill="#70871E" stroke-width="2" opacity="0.7"/><path aria-label="rok: Jan 01, 1889; kdo: Josef Kalenský; jitter: −0.118228085913" role="graphics-symbol" aria-roledescription="circle" transform="translate(110.63617469394408,86.69330881315723)" d="M1.936,0A1.936,1.936,0,1,1,-1.936,0A1.936,1.936,0,1,1,1.936,0" fill="#70871E" stroke-width="2" opacity="0.7"/><path aria-label="rok: Jan 01, 1889; kdo: Josef Kalenský; jitter: 1.90163891132" role="graphics-symbol" aria-roledescription="circle" transform="translate(110.63617469394408,88.33333333333334)" d="M1.936,0A1.936,1.936,0,1,1,-1.936,0A1.936,1.936,0,1,1,1.936,0" fill="#70871E" stroke-width="2" opacity="0.7"/><path aria-label="rok: Jan 01, 1890; kdo: Josef Kalenský; jitter: −1.28524205911" role="graphics-symbol" aria-roledescription="circle" transform="translate(112.64633964806274,85.74575556630663)" d="M1.936,0A1.936,1.936,0,1,1,-1.936,0A1.936,1.936,0,1,1,1.936,0" fill="#70871E" stroke-width="2" opacity="0.7"/><path aria-label="rok: Jan 01, 1890; kdo: Josef Kalenský; jitter: 0.394948537394" role="graphics-symbol" aria-roledescription="circle" transform="translate(112.64633964806274,87.10998092402332)" d="M1.936,0A1.936,1.936,0,1,1,-1.936,0A1.936,1.936,0,1,1,1.936,0" fill="#70871E" stroke-width="2" opacity="0.7"/><path aria-label="rok: Jan 01, 1892; kdo: Josef Kalenský; jitter: −0.632421233692" role="graphics-symbol" aria-roledescription="circle" transform="translate(116.66666088739993,86.27581133851105)" d="M1.936,0A1.936,1.936,0,1,1,-1.936,0A1.936,1.936,0,1,1,1.936,0" fill="#70871E" stroke-width="2" opacity="0.7"/><path aria-label="rok: Jan 01, 1893; kdo: Josef Kalenský; jitter: −0.559144253771" role="graphics-symbol" aria-roledescription="circle" transform="translate(118.68233314276273,86.3353083469773)" d="M1.936,0A1.936,1.936,0,1,1,-1.936,0A1.936,1.936,0,1,1,1.936,0" fill="#70871E" stroke-width="2" opacity="0.7"/><path aria-label="rok: Jan 01, 1928; kdo: Josef Kalenský; jitter: −0.255894471503" role="graphics-symbol" aria-roledescription="circle" transform="translate(189.07665764562466,86.58153103358974)" d="M1.936,0A1.936,1.936,0,1,1,-1.936,0A1.936,1.936,0,1,1,1.936,0" fill="#70871E" stroke-width="2" opacity="0.7"/><path aria-label="rok: Jan 01, 1930; kdo: Josef Kalenský; jitter: −1.50605169488" role="graphics-symbol" aria-roledescription="circle" transform="translate(193.10249485510613,85.56646989182585)" d="M1.936,0A1.936,1.936,0,1,1,-1.936,0A1.936,1.936,0,1,1,1.936,0" fill="#70871E" stroke-width="2" opacity="0.7"/><path aria-label="rok: Jan 01, 1932; kdo: Josef Kalenský; jitter: 1.36334666311" role="graphics-symbol" aria-roledescription="circle" transform="translate(197.12282476334346,87.89626867150815)" d="M1.936,0A1.936,1.936,0,1,1,-1.936,0A1.936,1.936,0,1,1,1.936,0" fill="#70871E" stroke-width="2" opacity="0.7"/><path aria-label="rok: Jan 01, 1938; kdo: Josef Kalenský; jitter: 0.421050545342" role="graphics-symbol" aria-roledescription="circle" transform="translate(209.19482909054366,87.13117436553156)" d="M1.936,0A1.936,1.936,0,1,1,-1.936,0A1.936,1.936,0,1,1,1.936,0" fill="#70871E" stroke-width="2" opacity="0.7"/><path aria-label="rok: Jan 01, 1941; kdo: Josef Kalenský; jitter: 0.444651589514" role="graphics-symbol" aria-roledescription="circle" transform="translate(215.2306017832586,87.15033715753566)" d="M1.936,0A1.936,1.936,0,1,1,-1.936,0A1.936,1.936,0,1,1,1.936,0" fill="#70871E" stroke-width="2" opacity="0.7"/><path aria-label="rok: Jan 01, 1946; kdo: Josef Kalenský; jitter: 1.13397041569" role="graphics-symbol" aria-roledescription="circle" transform="translate(225.2871633259812,87.71002736421379)" d="M1.936,0A1.936,1.936,0,1,1,-1.936,0A1.936,1.936,0,1,1,1.936,0" fill="#70871E" stroke-width="2" opacity="0.7"/><path aria-label="rok: Jan 01, 1939; kdo: Fan Vavřincová; jitter: 1.4225398477" role="graphics-symbol" aria-roledescription="circle" transform="translate(211.20499404466233,121.27766372092893)" d="M1.936,0A1.936,1.936,0,1,1,-1.936,0A1.936,1.936,0,1,1,1.936,0" fill="#E09DA3" stroke-width="2" opacity="0.7"/><path aria-label="rok: Jan 01, 1941; kdo: Fan Vavřincová; jitter: 0.521961383029" role="graphics-symbol" aria-roledescription="circle" transform="translate(215.2306017832586,120.54644192937923)" d="M1.936,0A1.936,1.936,0,1,1,-1.936,0A1.936,1.936,0,1,1,1.936,0" fill="#E09DA3" stroke-width="2" opacity="0.7"/><path aria-label="rok: Jan 01, 1943; kdo: Fan Vavřincová; jitter: −0.0791604963623" role="graphics-symbol" aria-roledescription="circle" transform="translate(219.25116116238107,120.05836295033295)" d="M1.936,0A1.936,1.936,0,1,1,-1.936,0A1.936,1.936,0,1,1,1.936,0" fill="#E09DA3" stroke-width="2" opacity="0.7"/><path aria-label="rok: Jan 01, 1944; kdo: Fan Vavřincová; jitter: −1.79318449964" role="graphics-symbol" aria-roledescription="circle" transform="translate(221.26132611649973,118.66666666666666)" d="M1.936,0A1.936,1.936,0,1,1,-1.936,0A1.936,1.936,0,1,1,1.936,0" fill="#E09DA3" stroke-width="2" opacity="0.7"/><path aria-label="rok: Jan 01, 1991; kdo: Fan Vavřincová; jitter: 1.59750447998" role="graphics-symbol" aria-roledescription="circle" transform="translate(315.8051665750063,121.41972569208718)" d="M1.936,0A1.936,1.936,0,1,1,-1.936,0A1.936,1.936,0,1,1,1.936,0" fill="#E09DA3" stroke-width="2" opacity="0.7"/><path aria-label="rok: Jan 01, 1992; kdo: Fan Vavřincová; jitter: −1.18238733551" role="graphics-symbol" aria-roledescription="circle" transform="translate(317.81533152912493,119.16260146207846)" d="M1.936,0A1.936,1.936,0,1,1,-1.936,0A1.936,1.936,0,1,1,1.936,0" fill="#E09DA3" stroke-width="2" opacity="0.7"/><path aria-label="rok: Jan 01, 1994; kdo: Fan Vavřincová; jitter: −0.621001804935" role="graphics-symbol" aria-roledescription="circle" transform="translate(321.8411687386064,119.61841664034154)" d="M1.936,0A1.936,1.936,0,1,1,-1.936,0A1.936,1.936,0,1,1,1.936,0" fill="#E09DA3" stroke-width="2" opacity="0.7"/><path aria-label="rok: Jan 01, 1995; kdo: Fan Vavřincová; jitter: 0.436483532778" role="graphics-symbol" aria-roledescription="circle" transform="translate(323.85133369272506,120.47703846343967)" d="M1.936,0A1.936,1.936,0,1,1,-1.936,0A1.936,1.936,0,1,1,1.936,0" fill="#E09DA3" stroke-width="2" opacity="0.7"/><path aria-label="rok: Jan 01, 1995; kdo: Fan Vavřincová; jitter: −0.975456294056" role="graphics-symbol" aria-roledescription="circle" transform="translate(323.85133369272506,119.33061845647995)" d="M1.936,0A1.936,1.936,0,1,1,-1.936,0A1.936,1.936,0,1,1,1.936,0" fill="#E09DA3" stroke-width="2" opacity="0.7"/><path aria-label="rok: Jan 01, 1996; kdo: Fan Vavřincová; jitter: −1.3855296134" role="graphics-symbol" aria-roledescription="circle" transform="translate(325.8614986468437,118.99766074207872)" d="M1.936,0A1.936,1.936,0,1,1,-1.936,0A1.936,1.936,0,1,1,1.936,0" fill="#E09DA3" stroke-width="2" opacity="0.7"/><path aria-label="rok: Jan 01, 1996; kdo: Fan Vavřincová; jitter: 0.764270306032" role="graphics-symbol" aria-roledescription="circle" transform="translate(325.8614986468437,120.74318388106552)" d="M1.936,0A1.936,1.936,0,1,1,-1.936,0A1.936,1.936,0,1,1,1.936,0" fill="#E09DA3" stroke-width="2" opacity="0.7"/><path aria-label="rok: Jan 01, 1996; kdo: Fan Vavřincová; jitter: 0.893352623104" role="graphics-symbol" aria-roledescription="circle" transform="translate(325.8614986468437,120.84799185377409)" d="M1.936,0A1.936,1.936,0,1,1,-1.936,0A1.936,1.936,0,1,1,1.936,0" fill="#E09DA3" stroke-width="2" opacity="0.7"/><path aria-label="rok: Jan 01, 1997; kdo: Fan Vavřincová; jitter: 0.359178111915" role="graphics-symbol" aria-roledescription="circle" transform="translate(327.8771709022065,120.41427057529071)" d="M1.936,0A1.936,1.936,0,1,1,-1.936,0A1.936,1.936,0,1,1,1.936,0" fill="#E09DA3" stroke-width="2" opacity="0.7"/><path aria-label="rok: Jan 01, 1997; kdo: Fan Vavřincová; jitter: −0.297452228842" role="graphics-symbol" aria-roledescription="circle" transform="translate(327.8771709022065,119.88112167934351)" d="M1.936,0A1.936,1.936,0,1,1,-1.936,0A1.936,1.936,0,1,1,1.936,0" fill="#E09DA3" stroke-width="2" opacity="0.7"/><path aria-label="rok: Jan 01, 2006; kdo: Fan Vavřincová; jitter: 0.195413904744" role="graphics-symbol" aria-roledescription="circle" transform="translate(345.9796700917627,120.28130275332252)" d="M1.936,0A1.936,1.936,0,1,1,-1.936,0A1.936,1.936,0,1,1,1.936,0" fill="#E09DA3" stroke-width="2" opacity="0.7"/><path aria-label="rok: Jan 01, 2007; kdo: Fan Vavřincová; jitter: −1.55535997096" role="graphics-symbol" aria-roledescription="circle" transform="translate(347.98983504588136,118.85976752878886)" d="M1.936,0A1.936,1.936,0,1,1,-1.936,0A1.936,1.936,0,1,1,1.936,0" fill="#E09DA3" stroke-width="2" opacity="0.7"/><path aria-label="rok: Jan 01, 2008; kdo: Fan Vavřincová; jitter: 0.373907532594" role="graphics-symbol" aria-roledescription="circle" transform="translate(350,120.42623008109751)" d="M1.936,0A1.936,1.936,0,1,1,-1.936,0A1.936,1.936,0,1,1,1.936,0" fill="#E09DA3" stroke-width="2" opacity="0.7"/></g><g class="mark-text role-mark layer_1_marks" role="graphics-object" aria-roledescription="text mark container"><text aria-label="text: vizualizace: iROZHLAS.cz · 2025" role="graphics-symbol" aria-roledescription="text mark" text-anchor="end" transform="translate(355,178)" font-family="Asap" font-size="11px" fill="#222">vizualizace: iROZHLAS.cz · 2025</text></g><g class="mark-group role-title"><g transform="translate(-114.37100219726562,-52)"><path class="background" aria-hidden="true" d="M0,0h0v0h0Z" pointer-events="none"/><g><g class="mark-text role-title-text" role="graphics-symbol" aria-roledescription="title" aria-label="Title text '172 let české literatury ve třech kariérách'" pointer-events="none"><text text-anchor="start" transform="translate(0,6)" font-family="Noticia Text" font-size="20px" font-weight="bold" fill="#000" opacity="1">172 let české literatury ve třech kariérách</text></g><g class="mark-text role-title-subtitle" role="graphics-symbol" aria-roledescription="subtitle" aria-label="Subtitle text 'Knihy vydané během života'" pointer-events="none"><text text-anchor="start" transform="translate(0,35)" font-family="Noticia Text" font-size="14px" fill="#000" opacity="1">Knihy vydané během života</text></g></g><path class="foreground" aria-hidden="true" d="" pointer-events="none" display="none"/></g></g></g><path class="foreground" aria-hidden="true" d="" display="none"/></g></g></g></svg>