<?xml version='1.0' encoding='utf-8'?>
<svg xmlns="http://www.w3.org/2000/svg" width="441px" height="335px">
  <rect width="441" height="335" fill="white"/>
  <g transform="translate(0,0)">
    <ns0:rect xmlns:ns0="http://www.w3.org/2000/svg" width="441" height="295" fill="white"/>
    <ns1:g xmlns:ns1="http://www.w3.org/2000/svg" fill="none" stroke-miterlimit="10" transform="translate(126,36)">
      <ns1:g class="mark-group role-frame root" role="graphics-object" aria-roledescription="group mark container">
        <ns1:g transform="translate(0,0)">
          <ns1:path class="background" aria-hidden="true" d="M0,0h300v0h-300Z"/>
          <ns1:g>
            <ns1:g class="mark-group role-scope concat_0_group" role="graphics-object" aria-roledescription="group mark container">
              <ns1:g transform="translate(0,0)">
                <ns1:path class="background" aria-hidden="true" d="M0.5,0.5h300v60h-300Z" stroke="#ddd"/>
                <ns1:g>
                  <ns1:g class="mark-group role-axis" aria-hidden="true">
                    <ns1:g transform="translate(0.5,60.5)">
                      <ns1:path class="background" aria-hidden="true" d="M0,0h0v0h0Z" pointer-events="none"/>
                      <ns1:g>
                        <ns1:g class="mark-rule role-axis-grid" pointer-events="none">
                          <ns1:line transform="translate(0,0)" x2="0" y2="-60" stroke="#ddd" stroke-width="1" opacity="1"/>
                          <ns1:line transform="translate(27,0)" x2="0" y2="-60" stroke="#ddd" stroke-width="1" opacity="1"/>
                          <ns1:line transform="translate(55,0)" x2="0" y2="-60" stroke="#ddd" stroke-width="1" opacity="1"/>
                          <ns1:line transform="translate(82,0)" x2="0" y2="-60" stroke="#ddd" stroke-width="1" opacity="1"/>
                          <ns1:line transform="translate(109,0)" x2="0" y2="-60" stroke="#ddd" stroke-width="1" opacity="1"/>
                          <ns1:line transform="translate(136,0)" x2="0" y2="-60" stroke="#ddd" stroke-width="1" opacity="1"/>
                          <ns1:line transform="translate(164,0)" x2="0" y2="-60" stroke="#ddd" stroke-width="1" opacity="1"/>
                          <ns1:line transform="translate(191,0)" x2="0" y2="-60" stroke="#ddd" stroke-width="1" opacity="1"/>
                          <ns1:line transform="translate(218,0)" x2="0" y2="-60" stroke="#ddd" stroke-width="1" opacity="1"/>
                          <ns1:line transform="translate(245,0)" x2="0" y2="-60" stroke="#ddd" stroke-width="1" opacity="1"/>
                          <ns1:line transform="translate(273,0)" x2="0" y2="-60" stroke="#ddd" stroke-width="1" opacity="1"/>
                          <ns1:line transform="translate(300,0)" x2="0" y2="-60" stroke="#ddd" stroke-width="1" opacity="1"/>
                        </ns1:g>
                      </ns1:g>
                      <ns1:path class="foreground" aria-hidden="true" d="" pointer-events="none" display="none"/>
                    </ns1:g>
                  </ns1:g>
                  <ns1:g class="mark-group role-axis" role="graphics-symbol" aria-roledescription="axis" aria-label="X-axis for a time scale with values from Wednesday, 01 January 1800, 12:00:00 AM to Wednesday, 01 January 2020, 12:00:00 AM">
                    <ns1:g transform="translate(0.5,60.5)">
                      <ns1:path class="background" aria-hidden="true" d="M0,0h0v0h0Z" pointer-events="none"/>
                      <ns1:g>
                        <ns1:g class="mark-rule role-axis-tick" pointer-events="none">
                          <ns1:line transform="translate(0,0)" x2="0" y2="5" stroke="#DCDDD6" stroke-width="1" opacity="1"/>
                          <ns1:line transform="translate(27,0)" x2="0" y2="5" stroke="#DCDDD6" stroke-width="1" opacity="1"/>
                          <ns1:line transform="translate(55,0)" x2="0" y2="5" stroke="#DCDDD6" stroke-width="1" opacity="1"/>
                          <ns1:line transform="translate(82,0)" x2="0" y2="5" stroke="#DCDDD6" stroke-width="1" opacity="1"/>
                          <ns1:line transform="translate(109,0)" x2="0" y2="5" stroke="#DCDDD6" stroke-width="1" opacity="1"/>
                          <ns1:line transform="translate(136,0)" x2="0" y2="5" stroke="#DCDDD6" stroke-width="1" opacity="1"/>
                          <ns1:line transform="translate(164,0)" x2="0" y2="5" stroke="#DCDDD6" stroke-width="1" opacity="1"/>
                          <ns1:line transform="translate(191,0)" x2="0" y2="5" stroke="#DCDDD6" stroke-width="1" opacity="1"/>
                          <ns1:line transform="translate(218,0)" x2="0" y2="5" stroke="#DCDDD6" stroke-width="1" opacity="1"/>
                          <ns1:line transform="translate(245,0)" x2="0" y2="5" stroke="#DCDDD6" stroke-width="1" opacity="1"/>
                          <ns1:line transform="translate(273,0)" x2="0" y2="5" stroke="#DCDDD6" stroke-width="1" opacity="1"/>
                          <ns1:line transform="translate(300,0)" x2="0" y2="5" stroke="#DCDDD6" stroke-width="1" opacity="1"/>
                        </ns1:g>
                        <ns1:g class="mark-text role-axis-label" pointer-events="none">
                          <ns1:text text-anchor="start" transform="translate(0,15)" font-family="Asap" font-size="10px" fill="#000" opacity="1">1800</ns1:text>
                          <ns1:text text-anchor="middle" transform="translate(27.269673103984736,15)" font-family="Asap" font-size="10px" fill="#000" opacity="0">1820</ns1:text>
                          <ns1:text text-anchor="middle" transform="translate(54.54307973385994,15)" font-family="Asap" font-size="10px" fill="#000" opacity="1">1840</ns1:text>
                          <ns1:text text-anchor="middle" transform="translate(81.81648636373514,15)" font-family="Asap" font-size="10px" fill="#000" opacity="0">1860</ns1:text>
                          <ns1:text text-anchor="middle" transform="translate(109.08989299361035,15)" font-family="Asap" font-size="10px" fill="#000" opacity="1">1880</ns1:text>
                          <ns1:text text-anchor="middle" transform="translate(136.36329374663924,15)" font-family="Asap" font-size="10px" fill="#000" opacity="0">1900</ns1:text>
                          <ns1:text text-anchor="middle" transform="translate(163.63296685062397,15)" font-family="Asap" font-size="10px" fill="#000" opacity="1">1920</ns1:text>
                          <ns1:text text-anchor="middle" transform="translate(190.90637348049918,15)" font-family="Asap" font-size="10px" fill="#000" opacity="0">1940</ns1:text>
                          <ns1:text text-anchor="middle" transform="translate(218.17978011037437,15)" font-family="Asap" font-size="10px" fill="#000" opacity="1">1960</ns1:text>
                          <ns1:text text-anchor="middle" transform="translate(245.4531867402496,15)" font-family="Asap" font-size="10px" fill="#000" opacity="0">1980</ns1:text>
                          <ns1:text text-anchor="middle" transform="translate(272.72659337012476,15)" font-family="Asap" font-size="10px" fill="#000" opacity="1">2000</ns1:text>
                          <ns1:text text-anchor="end" transform="translate(300,15)" font-family="Asap" font-size="10px" fill="#000" opacity="0">2020</ns1:text>
                        </ns1:g>
                        <ns1:g class="mark-rule role-axis-domain" pointer-events="none">
                          <ns1:line transform="translate(0,0)" x2="300" y2="0" stroke="#888" stroke-opacity="0" stroke-width="1" opacity="1"/>
                        </ns1:g>
                      </ns1:g>
                      <ns1:path class="foreground" aria-hidden="true" d="" pointer-events="none" display="none"/>
                    </ns1:g>
                  </ns1:g>
                  <ns1:g class="mark-group role-axis" role="graphics-symbol" aria-roledescription="axis" aria-label="Y-axis for a discrete scale with 3 values: Karel Hynek Mácha, Adolf Heyduk, Vladimír Benedikt Holota">
                    <ns1:g transform="translate(0.5,0.5)">
                      <ns1:path class="background" aria-hidden="true" d="M0,0h0v0h0Z" pointer-events="none"/>
                      <ns1:g>
                        <ns1:g class="mark-rule role-axis-tick" pointer-events="none">
                          <ns1:line transform="translate(0,10)" x2="-5" y2="0" stroke="#DCDDD6" stroke-width="1" opacity="1"/>
                          <ns1:line transform="translate(0,30)" x2="-5" y2="0" stroke="#DCDDD6" stroke-width="1" opacity="1"/>
                          <ns1:line transform="translate(0,50)" x2="-5" y2="0" stroke="#DCDDD6" stroke-width="1" opacity="1"/>
                        </ns1:g>
                        <ns1:g class="mark-text role-axis-label" pointer-events="none">
                          <ns1:text text-anchor="end" transform="translate(-7,12.5)" font-family="Asap" font-size="10px" fill="#000" opacity="1">Karel Hynek Mácha</ns1:text>
                          <ns1:text text-anchor="end" transform="translate(-7,32.5)" font-family="Asap" font-size="10px" fill="#000" opacity="1">Adolf Heyduk</ns1:text>
                          <ns1:text text-anchor="end" transform="translate(-7,52.5)" font-family="Asap" font-size="10px" fill="#000" opacity="1">Vladimír Benedikt Holota</ns1:text>
                        </ns1:g>
                        <ns1:g class="mark-rule role-axis-domain" pointer-events="none">
                          <ns1:line transform="translate(0,0)" x2="0" y2="60" stroke="#888" stroke-opacity="0" stroke-width="1" opacity="1"/>
                        </ns1:g>
                      </ns1:g>
                      <ns1:path class="foreground" aria-hidden="true" d="" pointer-events="none" display="none"/>
                    </ns1:g>
                  </ns1:g>
                  <ns1:g class="mark-rect role-mark concat_0_layer_0_marks" role="graphics-object" aria-roledescription="rect mark container">
                    <ns1:path aria-label="narozeni: Nov 16, 1810; jmeno: Karel Hynek Mácha; umrti: Nov 06, 1836" role="graphics-symbol" aria-roledescription="bar" d="M14.825831311051942,5h35.41996012287831v10h-35.41996012287831Z" fill="#E09DA3"/>
                    <ns1:path aria-label="narozeni: Jun 06, 1835; jmeno: Adolf Heyduk; umrti: Feb 06, 1923" role="graphics-symbol" aria-roledescription="bar" d="M48.3080914967769,25h119.55122666185784v10h-119.55122666185784Z" fill="#E09DA3"/>
                  </ns1:g>
                  <ns1:g class="mark-rect role-mark concat_0_layer_1_marks" role="graphics-object" aria-roledescription="rect mark container">
                    <ns1:path aria-label="narozeni: Aug 05, 1922; jmeno: Vladimír Benedikt Holota; umrti: Dec 31, 2025" role="graphics-symbol" aria-roledescription="bar" d="M167.168615868898,45L303.18015522601735,45C305.93973034848733,45,308.18015522601735,47.24042487753,308.18015522601735,50L308.18015522601735,50C308.18015522601735,52.75957512247,305.93973034848733,55,303.18015522601735,55L167.168615868898,55C167.168615868898,55,167.168615868898,55,167.168615868898,55L167.168615868898,45C167.168615868898,45,167.168615868898,45,167.168615868898,45Z" fill="#E09DA3"/>
                  </ns1:g>
                  <ns1:g class="mark-group role-title">
                    <ns1:g transform="translate(-119.04000854492188,-18)">
                      <ns1:path class="background" aria-hidden="true" d="M0,0h0v0h0Z" pointer-events="none"/>
                      <ns1:g>
                        <ns1:g class="mark-text role-title-text" role="graphics-symbol" aria-roledescription="title" aria-label="Title text 'Od Máje nás dělí jen dva životy…'" pointer-events="none">
                          <ns1:text text-anchor="start" transform="translate(0,-1)" font-family="Noticia Text" font-size="14px" font-weight="bolder" fill="#000" opacity="1">Od Máje nás dělí jen dva životy…</ns1:text>
                        </ns1:g>
                      </ns1:g>
                      <ns1:path class="foreground" aria-hidden="true" d="" pointer-events="none" display="none"/>
                    </ns1:g>
                  </ns1:g>
                </ns1:g>
                <ns1:path class="foreground" aria-hidden="true" d="" display="none"/>
              </ns1:g>
            </ns1:g>
            <ns1:g class="mark-group role-scope concat_1_group" role="graphics-object" aria-roledescription="group mark container">
              <ns1:g transform="translate(0,152)">
                <ns1:path class="background" aria-hidden="true" d="M0.5,0.5h300v84h-300Z" stroke="#ddd"/>
                <ns1:g>
                  <ns1:g class="mark-group role-axis" aria-hidden="true">
                    <ns1:g transform="translate(0.5,84.5)">
                      <ns1:path class="background" aria-hidden="true" d="M0,0h0v0h0Z" pointer-events="none"/>
                      <ns1:g>
                        <ns1:g class="mark-rule role-axis-grid" pointer-events="none">
                          <ns1:line transform="translate(0,0)" x2="0" y2="-84" stroke="#ddd" stroke-width="1" opacity="1"/>
                          <ns1:line transform="translate(27,0)" x2="0" y2="-84" stroke="#ddd" stroke-width="1" opacity="1"/>
                          <ns1:line transform="translate(55,0)" x2="0" y2="-84" stroke="#ddd" stroke-width="1" opacity="1"/>
                          <ns1:line transform="translate(82,0)" x2="0" y2="-84" stroke="#ddd" stroke-width="1" opacity="1"/>
                          <ns1:line transform="translate(109,0)" x2="0" y2="-84" stroke="#ddd" stroke-width="1" opacity="1"/>
                          <ns1:line transform="translate(136,0)" x2="0" y2="-84" stroke="#ddd" stroke-width="1" opacity="1"/>
                          <ns1:line transform="translate(164,0)" x2="0" y2="-84" stroke="#ddd" stroke-width="1" opacity="1"/>
                          <ns1:line transform="translate(191,0)" x2="0" y2="-84" stroke="#ddd" stroke-width="1" opacity="1"/>
                          <ns1:line transform="translate(218,0)" x2="0" y2="-84" stroke="#ddd" stroke-width="1" opacity="1"/>
                          <ns1:line transform="translate(245,0)" x2="0" y2="-84" stroke="#ddd" stroke-width="1" opacity="1"/>
                          <ns1:line transform="translate(273,0)" x2="0" y2="-84" stroke="#ddd" stroke-width="1" opacity="1"/>
                          <ns1:line transform="translate(300,0)" x2="0" y2="-84" stroke="#ddd" stroke-width="1" opacity="1"/>
                        </ns1:g>
                      </ns1:g>
                      <ns1:path class="foreground" aria-hidden="true" d="" pointer-events="none" display="none"/>
                    </ns1:g>
                  </ns1:g>
                  <ns1:g class="mark-group role-axis" role="graphics-symbol" aria-roledescription="axis" aria-label="X-axis for a time scale with values from Wednesday, 01 January 1800, 12:00:00 AM to Wednesday, 01 January 2020, 12:00:00 AM">
                    <ns1:g transform="translate(0.5,84.5)">
                      <ns1:path class="background" aria-hidden="true" d="M0,0h0v0h0Z" pointer-events="none"/>
                      <ns1:g>
                        <ns1:g class="mark-rule role-axis-tick" pointer-events="none">
                          <ns1:line transform="translate(0,0)" x2="0" y2="5" stroke="#DCDDD6" stroke-width="1" opacity="1"/>
                          <ns1:line transform="translate(27,0)" x2="0" y2="5" stroke="#DCDDD6" stroke-width="1" opacity="1"/>
                          <ns1:line transform="translate(55,0)" x2="0" y2="5" stroke="#DCDDD6" stroke-width="1" opacity="1"/>
                          <ns1:line transform="translate(82,0)" x2="0" y2="5" stroke="#DCDDD6" stroke-width="1" opacity="1"/>
                          <ns1:line transform="translate(109,0)" x2="0" y2="5" stroke="#DCDDD6" stroke-width="1" opacity="1"/>
                          <ns1:line transform="translate(136,0)" x2="0" y2="5" stroke="#DCDDD6" stroke-width="1" opacity="1"/>
                          <ns1:line transform="translate(164,0)" x2="0" y2="5" stroke="#DCDDD6" stroke-width="1" opacity="1"/>
                          <ns1:line transform="translate(191,0)" x2="0" y2="5" stroke="#DCDDD6" stroke-width="1" opacity="1"/>
                          <ns1:line transform="translate(218,0)" x2="0" y2="5" stroke="#DCDDD6" stroke-width="1" opacity="1"/>
                          <ns1:line transform="translate(245,0)" x2="0" y2="5" stroke="#DCDDD6" stroke-width="1" opacity="1"/>
                          <ns1:line transform="translate(273,0)" x2="0" y2="5" stroke="#DCDDD6" stroke-width="1" opacity="1"/>
                          <ns1:line transform="translate(300,0)" x2="0" y2="5" stroke="#DCDDD6" stroke-width="1" opacity="1"/>
                        </ns1:g>
                        <ns1:g class="mark-text role-axis-label" pointer-events="none">
                          <ns1:text text-anchor="start" transform="translate(0,15)" font-family="Asap" font-size="10px" fill="#000" opacity="1">1800</ns1:text>
                          <ns1:text text-anchor="middle" transform="translate(27.269673103984736,15)" font-family="Asap" font-size="10px" fill="#000" opacity="0">1820</ns1:text>
                          <ns1:text text-anchor="middle" transform="translate(54.54307973385994,15)" font-family="Asap" font-size="10px" fill="#000" opacity="1">1840</ns1:text>
                          <ns1:text text-anchor="middle" transform="translate(81.81648636373514,15)" font-family="Asap" font-size="10px" fill="#000" opacity="0">1860</ns1:text>
                          <ns1:text text-anchor="middle" transform="translate(109.08989299361035,15)" font-family="Asap" font-size="10px" fill="#000" opacity="1">1880</ns1:text>
                          <ns1:text text-anchor="middle" transform="translate(136.36329374663924,15)" font-family="Asap" font-size="10px" fill="#000" opacity="0">1900</ns1:text>
                          <ns1:text text-anchor="middle" transform="translate(163.63296685062397,15)" font-family="Asap" font-size="10px" fill="#000" opacity="1">1920</ns1:text>
                          <ns1:text text-anchor="middle" transform="translate(190.90637348049918,15)" font-family="Asap" font-size="10px" fill="#000" opacity="0">1940</ns1:text>
                          <ns1:text text-anchor="middle" transform="translate(218.17978011037437,15)" font-family="Asap" font-size="10px" fill="#000" opacity="1">1960</ns1:text>
                          <ns1:text text-anchor="middle" transform="translate(245.4531867402496,15)" font-family="Asap" font-size="10px" fill="#000" opacity="0">1980</ns1:text>
                          <ns1:text text-anchor="middle" transform="translate(272.72659337012476,15)" font-family="Asap" font-size="10px" fill="#000" opacity="1">2000</ns1:text>
                          <ns1:text text-anchor="end" transform="translate(300,15)" font-family="Asap" font-size="10px" fill="#000" opacity="0">2020</ns1:text>
                        </ns1:g>
                        <ns1:g class="mark-rule role-axis-domain" pointer-events="none">
                          <ns1:line transform="translate(0,0)" x2="300" y2="0" stroke="#888" stroke-opacity="0" stroke-width="1" opacity="1"/>
                        </ns1:g>
                      </ns1:g>
                      <ns1:path class="foreground" aria-hidden="true" d="" pointer-events="none" display="none"/>
                    </ns1:g>
                  </ns1:g>
                  <ns1:g class="mark-group role-axis" role="graphics-symbol" aria-roledescription="axis" aria-label="Y-axis for a discrete scale with 4 values: Karel Hynek Mácha, Petr Miloslav Veselský, Josef Kalenský, Fan Vavřincová">
                    <ns1:g transform="translate(0.5,0.5)">
                      <ns1:path class="background" aria-hidden="true" d="M0,0h0v0h0Z" pointer-events="none"/>
                      <ns1:g>
                        <ns1:g class="mark-rule role-axis-tick" pointer-events="none">
                          <ns1:line transform="translate(0,12)" x2="-5" y2="0" stroke="#DCDDD6" stroke-width="1" opacity="1"/>
                          <ns1:line transform="translate(0,32)" x2="-5" y2="0" stroke="#DCDDD6" stroke-width="1" opacity="1"/>
                          <ns1:line transform="translate(0,52)" x2="-5" y2="0" stroke="#DCDDD6" stroke-width="1" opacity="1"/>
                          <ns1:line transform="translate(0,72)" x2="-5" y2="0" stroke="#DCDDD6" stroke-width="1" opacity="1"/>
                        </ns1:g>
                        <ns1:g class="mark-text role-axis-label" pointer-events="none">
                          <ns1:text text-anchor="end" transform="translate(-7,14.5)" font-family="Asap" font-size="10px" fill="#000" opacity="1">Karel Hynek Mácha</ns1:text>
                          <ns1:text text-anchor="end" transform="translate(-7,34.5)" font-family="Asap" font-size="10px" fill="#000" opacity="1">Petr Miloslav Veselský</ns1:text>
                          <ns1:text text-anchor="end" transform="translate(-7,54.5)" font-family="Asap" font-size="10px" fill="#000" opacity="1">Josef Kalenský</ns1:text>
                          <ns1:text text-anchor="end" transform="translate(-7,74.5)" font-family="Asap" font-size="10px" fill="#000" opacity="1">Fan Vavřincová</ns1:text>
                        </ns1:g>
                        <ns1:g class="mark-rule role-axis-domain" pointer-events="none">
                          <ns1:line transform="translate(0,0)" x2="0" y2="84" stroke="#888" stroke-opacity="0" stroke-width="1" opacity="1"/>
                        </ns1:g>
                      </ns1:g>
                      <ns1:path class="foreground" aria-hidden="true" d="" pointer-events="none" display="none"/>
                    </ns1:g>
                  </ns1:g>
                  <ns1:g class="mark-symbol role-mark concat_1_marks" role="graphics-object" aria-roledescription="symbol mark container">
                    <ns1:path aria-label="rok: Jan 01, 1836; kdo: Karel Hynek Mácha; jitter: −0.0150846188278" role="graphics-symbol" aria-roledescription="circle" transform="translate(49.0883984078849,14.27044788467323)" d="M1.936,0A1.936,1.936,0,1,1,-1.936,0A1.936,1.936,0,1,1,1.936,0" fill="#D6534B" stroke-width="2" opacity="0.7"/>
                    <ns1:path aria-label="rok: Jan 01, 1834; kdo: Petr Miloslav Veselský; jitter: 0.796862191928" role="graphics-symbol" aria-roledescription="circle" transform="translate(46.36292450784261,34.58034767967932)" d="M1.936,0A1.936,1.936,0,1,1,-1.936,0A1.936,1.936,0,1,1,1.936,0" fill="#445B78" stroke-width="2" opacity="0.7"/>
                    <ns1:path aria-label="rok: Jan 01, 1834; kdo: Petr Miloslav Veselský; jitter: −0.00506582197019" role="graphics-symbol" aria-roledescription="circle" transform="translate(46.36292450784261,34.27427180891462)" d="M1.936,0A1.936,1.936,0,1,1,-1.936,0A1.936,1.936,0,1,1,1.936,0" fill="#445B78" stroke-width="2" opacity="0.7"/>
                    <ns1:path aria-label="rok: Jan 01, 1837; kdo: Petr Miloslav Veselský; jitter: −2.20681638354" role="graphics-symbol" aria-roledescription="circle" transform="translate(50.45486888379651,33.433918674146135)" d="M1.936,0A1.936,1.936,0,1,1,-1.936,0A1.936,1.936,0,1,1,1.936,0" fill="#445B78" stroke-width="2" opacity="0.7"/>
                    <ns1:path aria-label="rok: Jan 01, 1838; kdo: Petr Miloslav Veselský; jitter: 0.562713250763" role="graphics-symbol" aria-roledescription="circle" transform="translate(51.81760583381766,34.49097888371075)" d="M1.936,0A1.936,1.936,0,1,1,-1.936,0A1.936,1.936,0,1,1,1.936,0" fill="#445B78" stroke-width="2" opacity="0.7"/>
                    <ns1:path aria-label="rok: Jan 01, 1855; kdo: Petr Miloslav Veselský; jitter: 1.89636392959" role="graphics-symbol" aria-roledescription="circle" transform="translate(74.99906808773896,35)" d="M1.936,0A1.936,1.936,0,1,1,-1.936,0A1.936,1.936,0,1,1,1.936,0" fill="#445B78" stroke-width="2" opacity="0.7"/>
                    <ns1:path aria-label="rok: Jan 01, 1866; kdo: Petr Miloslav Veselský; jitter: 0.378033910481" role="graphics-symbol" aria-roledescription="circle" transform="translate(90.00037511564294,34.42049139741585)" d="M1.936,0A1.936,1.936,0,1,1,-1.936,0A1.936,1.936,0,1,1,1.936,0" fill="#445B78" stroke-width="2" opacity="0.7"/>
                    <ns1:path aria-label="rok: Jan 01, 1889; kdo: Petr Miloslav Veselský; jitter: −0.438843686724" role="graphics-symbol" aria-roledescription="circle" transform="translate(121.36572612147204,34.10870964451576)" d="M1.936,0A1.936,1.936,0,1,1,-1.936,0A1.936,1.936,0,1,1,1.936,0" fill="#445B78" stroke-width="2" opacity="0.7"/>
                    <ns1:path aria-label="rok: Jan 01, 1889; kdo: Josef Kalenský; jitter: 0.891665098421" role="graphics-symbol" aria-roledescription="circle" transform="translate(121.36572612147204,54.6165315785494)" d="M1.936,0A1.936,1.936,0,1,1,-1.936,0A1.936,1.936,0,1,1,1.936,0" fill="#DB842F" stroke-width="2" opacity="0.7"/>
                    <ns1:path aria-label="rok: Jan 01, 1889; kdo: Josef Kalenský; jitter: −0.248607931888" role="graphics-symbol" aria-roledescription="circle" transform="translate(121.36572612147204,54.181317875308395)" d="M1.936,0A1.936,1.936,0,1,1,-1.936,0A1.936,1.936,0,1,1,1.936,0" fill="#DB842F" stroke-width="2" opacity="0.7"/>
                    <ns1:path aria-label="rok: Jan 01, 1889; kdo: Josef Kalenský; jitter: 0.328145845927" role="graphics-symbol" aria-roledescription="circle" transform="translate(121.36572612147204,54.40145037062216)" d="M1.936,0A1.936,1.936,0,1,1,-1.936,0A1.936,1.936,0,1,1,1.936,0" fill="#DB842F" stroke-width="2" opacity="0.7"/>
                    <ns1:path aria-label="rok: Jan 01, 1890; kdo: Josef Kalenský; jitter: −1.38784600954" role="graphics-symbol" aria-roledescription="circle" transform="translate(122.72846307149318,53.74649918761874)" d="M1.936,0A1.936,1.936,0,1,1,-1.936,0A1.936,1.936,0,1,1,1.936,0" fill="#DB842F" stroke-width="2" opacity="0.7"/>
                    <ns1:path aria-label="rok: Jan 01, 1890; kdo: Josef Kalenský; jitter: −0.27618879521" role="graphics-symbol" aria-roledescription="circle" transform="translate(122.72846307149318,54.17079094943521)" d="M1.936,0A1.936,1.936,0,1,1,-1.936,0A1.936,1.936,0,1,1,1.936,0" fill="#DB842F" stroke-width="2" opacity="0.7"/>
                    <ns1:path aria-label="rok: Jan 01, 1892; kdo: Josef Kalenský; jitter: −1.43362641064" role="graphics-symbol" aria-roledescription="circle" transform="translate(125.45393109468915,53.72902595325291)" d="M1.936,0A1.936,1.936,0,1,1,-1.936,0A1.936,1.936,0,1,1,1.936,0" fill="#DB842F" stroke-width="2" opacity="0.7"/>
                    <ns1:path aria-label="rok: Jan 01, 1893; kdo: Josef Kalenský; jitter: −0.864550098834" role="graphics-symbol" aria-roledescription="circle" transform="translate(126.82040157060078,53.946228151765375)" d="M1.936,0A1.936,1.936,0,1,1,-1.936,0A1.936,1.936,0,1,1,1.936,0" fill="#DB842F" stroke-width="2" opacity="0.7"/>
                    <ns1:path aria-label="rok: Jan 01, 1928; kdo: Josef Kalenský; jitter: −0.802828584676" role="graphics-symbol" aria-roledescription="circle" transform="translate(174.54232950257406,53.96978571037835)" d="M1.936,0A1.936,1.936,0,1,1,-1.936,0A1.936,1.936,0,1,1,1.936,0" fill="#DB842F" stroke-width="2" opacity="0.7"/>
                    <ns1:path aria-label="rok: Jan 01, 1930; kdo: Josef Kalenský; jitter: 0.58563020263" role="graphics-symbol" aria-roledescription="circle" transform="translate(177.27153692850683,54.499725711201734)" d="M1.936,0A1.936,1.936,0,1,1,-1.936,0A1.936,1.936,0,1,1,1.936,0" fill="#DB842F" stroke-width="2" opacity="0.7"/>
                    <ns1:path aria-label="rok: Jan 01, 1932; kdo: Josef Kalenský; jitter: −1.55555986678" role="graphics-symbol" aria-roledescription="circle" transform="translate(179.9970108285491,53.68248700197958)" d="M1.936,0A1.936,1.936,0,1,1,-1.936,0A1.936,1.936,0,1,1,1.936,0" fill="#DB842F" stroke-width="2" opacity="0.7"/>
                    <ns1:path aria-label="rok: Jan 01, 1938; kdo: Josef Kalenský; jitter: −1.0041740696" role="graphics-symbol" aria-roledescription="circle" transform="translate(188.1808995804569,53.89293717340781)" d="M1.936,0A1.936,1.936,0,1,1,-1.936,0A1.936,1.936,0,1,1,1.936,0" fill="#DB842F" stroke-width="2" opacity="0.7"/>
                    <ns1:path aria-label="rok: Jan 01, 1941; kdo: Josef Kalenský; jitter: −0.358793820291" role="graphics-symbol" aria-roledescription="circle" transform="translate(192.27268839283204,54.13926267689327)" d="M1.936,0A1.936,1.936,0,1,1,-1.936,0A1.936,1.936,0,1,1,1.936,0" fill="#DB842F" stroke-width="2" opacity="0.7"/>
                    <ns1:path aria-label="rok: Jan 01, 1946; kdo: Josef Kalenský; jitter: −0.453307196764" role="graphics-symbol" aria-roledescription="circle" transform="translate(199.09026223240699,54.103189284392535)" d="M1.936,0A1.936,1.936,0,1,1,-1.936,0A1.936,1.936,0,1,1,1.936,0" fill="#DB842F" stroke-width="2" opacity="0.7"/>
                    <ns1:path aria-label="rok: Jan 01, 1939; kdo: Fan Vavřincová; jitter: 1.19659781509" role="graphics-symbol" aria-roledescription="circle" transform="translate(189.54363653047807,74.73291677168437)" d="M1.936,0A1.936,1.936,0,1,1,-1.936,0A1.936,1.936,0,1,1,1.936,0" fill="#70871E" stroke-width="2" opacity="0.7"/>
                    <ns1:path aria-label="rok: Jan 01, 1941; kdo: Fan Vavřincová; jitter: −0.417662434481" role="graphics-symbol" aria-roledescription="circle" transform="translate(192.27268839283204,74.11679399886162)" d="M1.936,0A1.936,1.936,0,1,1,-1.936,0A1.936,1.936,0,1,1,1.936,0" fill="#70871E" stroke-width="2" opacity="0.7"/>
                    <ns1:path aria-label="rok: Jan 01, 1943; kdo: Fan Vavřincová; jitter: −1.74308472021" role="graphics-symbol" aria-roledescription="circle" transform="translate(194.9983178564531,73.61091345446903)" d="M1.936,0A1.936,1.936,0,1,1,-1.936,0A1.936,1.936,0,1,1,1.936,0" fill="#70871E" stroke-width="2" opacity="0.7"/>
                    <ns1:path aria-label="rok: Jan 01, 1944; kdo: Fan Vavřincová; jitter: 0.477718215832" role="graphics-symbol" aria-roledescription="circle" transform="translate(196.36105480647421,74.45853840417104)" d="M1.936,0A1.936,1.936,0,1,1,-1.936,0A1.936,1.936,0,1,1,1.936,0" fill="#70871E" stroke-width="2" opacity="0.7"/>
                    <ns1:path aria-label="rok: Jan 01, 1991; kdo: Fan Vavřincová; jitter: 0.804908052228" role="graphics-symbol" aria-roledescription="circle" transform="translate(260.4544937681536,74.58341858336978)" d="M1.936,0A1.936,1.936,0,1,1,-1.936,0A1.936,1.936,0,1,1,1.936,0" fill="#70871E" stroke-width="2" opacity="0.7"/>
                    <ns1:path aria-label="rok: Jan 01, 1992; kdo: Fan Vavřincová; jitter: −3.34369639855" role="graphics-symbol" aria-roledescription="circle" transform="translate(261.8172307181747,73)" d="M1.936,0A1.936,1.936,0,1,1,-1.936,0A1.936,1.936,0,1,1,1.936,0" fill="#70871E" stroke-width="2" opacity="0.7"/>
                    <ns1:path aria-label="rok: Jan 01, 1994; kdo: Fan Vavřincová; jitter: 0.462634109286" role="graphics-symbol" aria-roledescription="circle" transform="translate(264.54643814410747,74.45278117787909)" d="M1.936,0A1.936,1.936,0,1,1,-1.936,0A1.936,1.936,0,1,1,1.936,0" fill="#70871E" stroke-width="2" opacity="0.7"/>
                    <ns1:path aria-label="rok: Jan 01, 1995; kdo: Fan Vavřincová; jitter: 0.0427482101613" role="graphics-symbol" aria-roledescription="circle" transform="translate(265.9091750941286,74.29252122939349)" d="M1.936,0A1.936,1.936,0,1,1,-1.936,0A1.936,1.936,0,1,1,1.936,0" fill="#70871E" stroke-width="2" opacity="0.7"/>
                    <ns1:path aria-label="rok: Jan 01, 1995; kdo: Fan Vavřincová; jitter: 0.465265312703" role="graphics-symbol" aria-roledescription="circle" transform="translate(265.9091750941286,74.4537854424303)" d="M1.936,0A1.936,1.936,0,1,1,-1.936,0A1.936,1.936,0,1,1,1.936,0" fill="#70871E" stroke-width="2" opacity="0.7"/>
                    <ns1:path aria-label="rok: Jan 01, 1996; kdo: Fan Vavřincová; jitter: −1.08830067773" role="graphics-symbol" aria-roledescription="circle" transform="translate(267.27191204414976,73.86082815066621)" d="M1.936,0A1.936,1.936,0,1,1,-1.936,0A1.936,1.936,0,1,1,1.936,0" fill="#70871E" stroke-width="2" opacity="0.7"/>
                    <ns1:path aria-label="rok: Jan 01, 1996; kdo: Fan Vavřincová; jitter: 1.57052175403" role="graphics-symbol" aria-roledescription="circle" transform="translate(267.27191204414976,74.87563418924262)" d="M1.936,0A1.936,1.936,0,1,1,-1.936,0A1.936,1.936,0,1,1,1.936,0" fill="#70871E" stroke-width="2" opacity="0.7"/>
                    <ns1:path aria-label="rok: Jan 01, 1996; kdo: Fan Vavřincová; jitter: −0.32011261113" role="graphics-symbol" aria-roledescription="circle" transform="translate(267.27191204414976,74.15402632720972)" d="M1.936,0A1.936,1.936,0,1,1,-1.936,0A1.936,1.936,0,1,1,1.936,0" fill="#70871E" stroke-width="2" opacity="0.7"/>
                    <ns1:path aria-label="rok: Jan 01, 1997; kdo: Fan Vavřincová; jitter: 0.468557102591" role="graphics-symbol" aria-roledescription="circle" transform="translate(268.6383825200614,74.45504183631952)" d="M1.936,0A1.936,1.936,0,1,1,-1.936,0A1.936,1.936,0,1,1,1.936,0" fill="#70871E" stroke-width="2" opacity="0.7"/>
                    <ns1:path aria-label="rok: Jan 01, 1997; kdo: Fan Vavřincová; jitter: 0.187608383742" role="graphics-symbol" aria-roledescription="circle" transform="translate(268.6383825200614,74.34781073543333)" d="M1.936,0A1.936,1.936,0,1,1,-1.936,0A1.936,1.936,0,1,1,1.936,0" fill="#70871E" stroke-width="2" opacity="0.7"/>
                    <ns1:path aria-label="rok: Jan 01, 2006; kdo: Fan Vavřincová; jitter: −1.58641417332" role="graphics-symbol" aria-roledescription="circle" transform="translate(280.9104821220326,73.6707106846826)" d="M1.936,0A1.936,1.936,0,1,1,-1.936,0A1.936,1.936,0,1,1,1.936,0" fill="#70871E" stroke-width="2" opacity="0.7"/>
                    <ns1:path aria-label="rok: Jan 01, 2007; kdo: Fan Vavřincová; jitter: −0.781921365316" role="graphics-symbol" aria-roledescription="circle" transform="translate(282.27321907205373,73.97776547322471)" d="M1.936,0A1.936,1.936,0,1,1,-1.936,0A1.936,1.936,0,1,1,1.936,0" fill="#70871E" stroke-width="2" opacity="0.7"/>
                    <ns1:path aria-label="rok: Jan 01, 2008; kdo: Fan Vavřincová; jitter: 0.874371955847" role="graphics-symbol" aria-roledescription="circle" transform="translate(283.6359560220749,74.60993121844237)" d="M1.936,0A1.936,1.936,0,1,1,-1.936,0A1.936,1.936,0,1,1,1.936,0" fill="#70871E" stroke-width="2" opacity="0.7"/>
                  </ns1:g>
                  <ns1:g class="mark-group role-title">
                    <ns1:g transform="translate(-104.60999298095703,-41)">
                      <ns1:path class="background" aria-hidden="true" d="M0,0h0v0h0Z" pointer-events="none"/>
                      <ns1:g>
                        <ns1:g class="mark-text role-title-text" role="graphics-symbol" aria-roledescription="title" aria-label="Title text '…nebo tři a čtvrt kariéry'" pointer-events="none">
                          <ns1:text text-anchor="start" transform="translate(-12,-1)" font-family="Noticia Text" font-size="14px" font-weight="bolder" fill="#000" opacity="1">…nebo tři a čtvrt kariéry</ns1:text>
                        </ns1:g>
                        <ns1:g class="mark-text role-title-subtitle" role="graphics-symbol" aria-roledescription="subtitle" aria-label="Subtitle text 'Tečky označují knihy vydané během života.'" pointer-events="none">
                          <ns1:text text-anchor="start" transform="translate(-12,23)" font-family="Noticia Text" font-size="12px" font-weight="lighter" fill="#000" opacity="1">Tečky označují knihy vydané během života.</ns1:text>
                        </ns1:g>
                      </ns1:g>
                      <ns1:path class="foreground" aria-hidden="true" d="" pointer-events="none" display="none"/>
                    </ns1:g>
                  </ns1:g>
                </ns1:g>
                <ns1:path class="foreground" aria-hidden="true" d="" display="none"/>
              </ns1:g>
            </ns1:g>
          </ns1:g>
          <ns1:path class="foreground" aria-hidden="true" d="" display="none"/>
        </ns1:g>
      </ns1:g>
    </ns1:g>
  </g>
  <g transform="translate(123,295)">
    <ns0:rect xmlns:ns0="http://www.w3.org/2000/svg" width="318" height="40" fill="white"/>
    <ns1:g xmlns:ns1="http://www.w3.org/2000/svg" fill="none" stroke-miterlimit="10" transform="translate(9,5)">
      <ns1:g class="mark-group role-frame root" role="graphics-object" aria-roledescription="group mark container">
        <ns1:g transform="translate(0,0)">
          <ns1:path class="background" aria-hidden="true" d="M0,0h300v30h-300Z"/>
          <ns1:g>
            <ns1:g class="mark-text role-mark marks" role="graphics-object" aria-roledescription="text mark container">
              <ns1:text aria-label="text: zdroj dat: Česká národní bibliografie · vizualizace: iROZHLAS.cz · 2025" role="graphics-symbol" aria-roledescription="text mark" text-anchor="middle" transform="translate(150,12)" font-family="Asap" font-size="10px" fill="black">zdroj dat: Česká národní bibliografie · vizualizace: iROZHLAS.cz · 2025</ns1:text>
            </ns1:g>
          </ns1:g>
          <ns1:path class="foreground" aria-hidden="true" d="" display="none"/>
        </ns1:g>
      </ns1:g>
    </ns1:g>
  </g>
</svg>
