<svg xmlns="http://www.w3.org/2000/svg" xmlns:xlink="http://www.w3.org/1999/xlink" version="1.1" class="marks" width="480" height="224" viewBox="0 0 480 224"><rect width="480" height="224" fill="white"/><g fill="none" stroke-miterlimit="10" transform="translate(120,39)"><g class="mark-group role-frame root" role="graphics-object" aria-roledescription="group mark container"><g transform="translate(0,0)"><path class="background" aria-hidden="true" d="M0.5,0.5h350v140h-350Z" stroke="#ddd"/><g><g class="mark-group role-axis" aria-hidden="true"><g transform="translate(0.5,140.5)"><path class="background" aria-hidden="true" d="M0,0h0v0h0Z" pointer-events="none"/><g><g class="mark-rule role-axis-grid" pointer-events="none"><line transform="translate(12,0)" x2="0" y2="-140" stroke="#ddd" stroke-width="1" opacity="1"/><line transform="translate(52,0)" x2="0" y2="-140" stroke="#ddd" stroke-width="1" opacity="1"/><line transform="translate(93,0)" x2="0" y2="-140" stroke="#ddd" stroke-width="1" opacity="1"/><line transform="translate(133,0)" x2="0" y2="-140" stroke="#ddd" stroke-width="1" opacity="1"/><line transform="translate(173,0)" x2="0" y2="-140" stroke="#ddd" stroke-width="1" opacity="1"/><line transform="translate(213,0)" x2="0" y2="-140" stroke="#ddd" stroke-width="1" opacity="1"/><line transform="translate(253,0)" x2="0" y2="-140" stroke="#ddd" stroke-width="1" opacity="1"/><line transform="translate(294,0)" x2="0" y2="-140" stroke="#ddd" stroke-width="1" opacity="1"/><line transform="translate(334,0)" x2="0" y2="-140" stroke="#ddd" stroke-width="1" opacity="1"/></g></g><path class="foreground" aria-hidden="true" d="" pointer-events="none" display="none"/></g></g><g class="mark-group role-axis" role="graphics-symbol" aria-roledescription="axis" aria-label="X-axis for a time scale with values from Wednesday, 01 January 1834, 12:00:00 AM to Tuesday, 01 January 2008, 12:00:00 AM"><g transform="translate(0.5,140.5)"><path class="background" aria-hidden="true" d="M0,0h0v0h0Z" pointer-events="none"/><g><g class="mark-rule role-axis-tick" pointer-events="none"><line transform="translate(12,0)" x2="0" y2="5" stroke="#888" stroke-width="1" opacity="1"/><line transform="translate(52,0)" x2="0" y2="5" stroke="#888" stroke-width="1" opacity="1"/><line transform="translate(93,0)" x2="0" y2="5" stroke="#888" stroke-width="1" opacity="1"/><line transform="translate(133,0)" x2="0" y2="5" stroke="#888" stroke-width="1" opacity="1"/><line transform="translate(173,0)" x2="0" y2="5" stroke="#888" stroke-width="1" opacity="1"/><line transform="translate(213,0)" x2="0" y2="5" stroke="#888" stroke-width="1" opacity="1"/><line transform="translate(253,0)" x2="0" y2="5" stroke="#888" stroke-width="1" opacity="1"/><line transform="translate(294,0)" x2="0" y2="5" stroke="#888" stroke-width="1" opacity="1"/><line transform="translate(334,0)" x2="0" y2="5" stroke="#888" stroke-width="1" opacity="1"/></g><g class="mark-text role-axis-label" pointer-events="none"><text text-anchor="middle" transform="translate(12.066497025956071,16)" font-family="Asap" font-size="11px" fill="#000" opacity="1">1840</text><text text-anchor="middle" transform="translate(52.29733261454991,16)" font-family="Asap" font-size="11px" fill="#000" opacity="1">1860</text><text text-anchor="middle" transform="translate(92.52816820314374,16)" font-family="Asap" font-size="11px" fill="#000" opacity="1">1880</text><text text-anchor="middle" transform="translate(132.75899512283746,16)" font-family="Asap" font-size="11px" fill="#000" opacity="1">1900</text><text text-anchor="middle" transform="translate(172.98432341018713,16)" font-family="Asap" font-size="11px" fill="#000" opacity="1">1920</text><text text-anchor="middle" transform="translate(213.21515899878096,16)" font-family="Asap" font-size="11px" fill="#000" opacity="1">1940</text><text text-anchor="middle" transform="translate(253.44599458737483,16)" font-family="Asap" font-size="11px" fill="#000" opacity="1">1960</text><text text-anchor="middle" transform="translate(293.67683017596863,16)" font-family="Asap" font-size="11px" fill="#000" opacity="1">1980</text><text text-anchor="middle" transform="translate(333.90766576456247,16)" font-family="Asap" font-size="11px" fill="#000" opacity="1">2000</text></g><g class="mark-rule role-axis-domain" pointer-events="none"><line transform="translate(0,0)" x2="350" y2="0" stroke="#888" stroke-width="1" opacity="1"/></g></g><path class="foreground" aria-hidden="true" d="" pointer-events="none" display="none"/></g></g><g class="mark-group role-axis" role="graphics-symbol" aria-roledescription="axis" aria-label="Y-axis for a discrete scale with 4 values: Karel Hynek Mácha, Petr Miloslav Veselský, Josef Kalenský, Fan Vavřincová"><g transform="translate(0.5,0.5)"><path class="background" aria-hidden="true" d="M0,0h0v0h0Z" pointer-events="none"/><g><g class="mark-rule role-axis-tick" pointer-events="none"><line transform="translate(0,20)" x2="-5" y2="0" stroke="#888" stroke-width="1" opacity="1"/><line transform="translate(0,53)" x2="-5" y2="0" stroke="#888" stroke-width="1" opacity="1"/><line transform="translate(0,86)" x2="-5" y2="0" stroke="#888" stroke-width="1" opacity="1"/><line transform="translate(0,119)" x2="-5" y2="0" stroke="#888" stroke-width="1" opacity="1"/></g><g class="mark-text role-axis-label" pointer-events="none"><text text-anchor="end" transform="translate(-7,22.50000000000001)" font-family="Asap" font-size="11px" fill="#000" opacity="1">Karel Hynek Mácha</text><text text-anchor="end" transform="translate(-7,55.83333333333334)" font-family="Asap" font-size="11px" fill="#000" opacity="1">Petr Miloslav Veselský</text><text text-anchor="end" transform="translate(-7,89.16666666666667)" font-family="Asap" font-size="11px" fill="#000" opacity="1">Josef Kalenský</text><text text-anchor="end" transform="translate(-7,122.49999999999999)" font-family="Asap" font-size="11px" fill="#000" opacity="1">Fan Vavřincová</text></g><g class="mark-rule role-axis-domain" pointer-events="none"><line transform="translate(0,0)" x2="0" y2="140" stroke="#888" stroke-width="1" opacity="1"/></g></g><path class="foreground" aria-hidden="true" d="" pointer-events="none" display="none"/></g></g><g class="mark-symbol role-mark layer_0_marks" role="graphics-object" aria-roledescription="symbol mark container"><path aria-label="rok: Jan 01, 1836; kdo: Karel Hynek Mácha; jitter: 0.260270571277" role="graphics-symbol" aria-roledescription="circle" transform="translate(4.020329908237303,20.523132664672247)" d="M1.936,0A1.936,1.936,0,1,1,-1.936,0A1.936,1.936,0,1,1,1.936,0" fill="#445B78" stroke-width="2" opacity="0.7"/><path aria-label="rok: Jan 01, 1834; kdo: Petr Miloslav Veselský; jitter: 1.27268619319" role="graphics-symbol" aria-roledescription="circle" transform="translate(0,54.51003464117015)" d="M1.936,0A1.936,1.936,0,1,1,-1.936,0A1.936,1.936,0,1,1,1.936,0" fill="#DB842F" stroke-width="2" opacity="0.7"/><path aria-label="rok: Jan 01, 1834; kdo: Petr Miloslav Veselský; jitter: 1.94645160929" role="graphics-symbol" aria-roledescription="circle" transform="translate(0,54.94498639347933)" d="M1.936,0A1.936,1.936,0,1,1,-1.936,0A1.936,1.936,0,1,1,1.936,0" fill="#DB842F" stroke-width="2" opacity="0.7"/><path aria-label="rok: Jan 01, 1837; kdo: Petr Miloslav Veselský; jitter: 1.94502078201" role="graphics-symbol" aria-roledescription="circle" transform="translate(6.036002163600115,54.944062717639596)" d="M1.936,0A1.936,1.936,0,1,1,-1.936,0A1.936,1.936,0,1,1,1.936,0" fill="#DB842F" stroke-width="2" opacity="0.7"/><path aria-label="rok: Jan 01, 1838; kdo: Petr Miloslav Veselský; jitter: −0.156456482746" role="graphics-symbol" aria-roledescription="circle" transform="translate(8.046167117718767,53.587446309477606)" d="M1.936,0A1.936,1.936,0,1,1,-1.936,0A1.936,1.936,0,1,1,1.936,0" fill="#DB842F" stroke-width="2" opacity="0.7"/><path aria-label="rok: Jan 01, 1855; kdo: Petr Miloslav Veselský; jitter: 1.14522674326" role="graphics-symbol" aria-roledescription="circle" transform="translate(42.241000542712484,54.42775272261592)" d="M1.936,0A1.936,1.936,0,1,1,-1.936,0A1.936,1.936,0,1,1,1.936,0" fill="#DB842F" stroke-width="2" opacity="0.7"/><path aria-label="rok: Jan 01, 1866; kdo: Petr Miloslav Veselský; jitter: −0.901725993463" role="graphics-symbol" aria-roledescription="circle" transform="translate(64.36933694175013,53.10633482485668)" d="M1.936,0A1.936,1.936,0,1,1,-1.936,0A1.936,1.936,0,1,1,1.936,0" fill="#DB842F" stroke-width="2" opacity="0.7"/><path aria-label="rok: Jan 01, 1889; kdo: Petr Miloslav Veselský; jitter: 1.67021902196" role="graphics-symbol" aria-roledescription="circle" transform="translate(110.63617469394408,54.76666342671017)" d="M1.936,0A1.936,1.936,0,1,1,-1.936,0A1.936,1.936,0,1,1,1.936,0" fill="#DB842F" stroke-width="2" opacity="0.7"/><path aria-label="rok: Jan 01, 1889; kdo: Josef Kalenský; jitter: 0.421468688585" role="graphics-symbol" aria-roledescription="circle" transform="translate(110.63617469394408,87.29386137120594)" d="M1.936,0A1.936,1.936,0,1,1,-1.936,0A1.936,1.936,0,1,1,1.936,0" fill="#70871E" stroke-width="2" opacity="0.7"/><path aria-label="rok: Jan 01, 1889; kdo: Josef Kalenský; jitter: −1.46899957954" role="graphics-symbol" aria-roledescription="circle" transform="translate(110.63617469394408,86.07346259998751)" d="M1.936,0A1.936,1.936,0,1,1,-1.936,0A1.936,1.936,0,1,1,1.936,0" fill="#70871E" stroke-width="2" opacity="0.7"/><path aria-label="rok: Jan 01, 1889; kdo: Josef Kalenský; jitter: −0.248240173592" role="graphics-symbol" aria-roledescription="circle" transform="translate(110.63617469394408,86.86152834226547)" d="M1.936,0A1.936,1.936,0,1,1,-1.936,0A1.936,1.936,0,1,1,1.936,0" fill="#70871E" stroke-width="2" opacity="0.7"/><path aria-label="rok: Jan 01, 1890; kdo: Josef Kalenský; jitter: 1.37734652162" role="graphics-symbol" aria-roledescription="circle" transform="translate(112.64633964806274,87.91093183599239)" d="M1.936,0A1.936,1.936,0,1,1,-1.936,0A1.936,1.936,0,1,1,1.936,0" fill="#70871E" stroke-width="2" opacity="0.7"/><path aria-label="rok: Jan 01, 1890; kdo: Josef Kalenský; jitter: −0.0472102744606" role="graphics-symbol" aria-roledescription="circle" transform="translate(112.64633964806274,86.9913039359712)" d="M1.936,0A1.936,1.936,0,1,1,-1.936,0A1.936,1.936,0,1,1,1.936,0" fill="#70871E" stroke-width="2" opacity="0.7"/><path aria-label="rok: Jan 01, 1892; kdo: Josef Kalenský; jitter: 1.52760629396" role="graphics-symbol" aria-roledescription="circle" transform="translate(116.66666088739993,88.00793258687406)" d="M1.936,0A1.936,1.936,0,1,1,-1.936,0A1.936,1.936,0,1,1,1.936,0" fill="#70871E" stroke-width="2" opacity="0.7"/><path aria-label="rok: Jan 01, 1893; kdo: Josef Kalenský; jitter: 0.6520747965" role="graphics-symbol" aria-roledescription="circle" transform="translate(118.68233314276273,87.44272999570555)" d="M1.936,0A1.936,1.936,0,1,1,-1.936,0A1.936,1.936,0,1,1,1.936,0" fill="#70871E" stroke-width="2" opacity="0.7"/><path aria-label="rok: Jan 01, 1928; kdo: Josef Kalenský; jitter: −0.0777307007651" role="graphics-symbol" aria-roledescription="circle" transform="translate(189.07665764562466,86.9716013620708)" d="M1.936,0A1.936,1.936,0,1,1,-1.936,0A1.936,1.936,0,1,1,1.936,0" fill="#70871E" stroke-width="2" opacity="0.7"/><path aria-label="rok: Jan 01, 1930; kdo: Josef Kalenský; jitter: 0.866160869419" role="graphics-symbol" aria-roledescription="circle" transform="translate(193.10249485510613,87.58093405061112)" d="M1.936,0A1.936,1.936,0,1,1,-1.936,0A1.936,1.936,0,1,1,1.936,0" fill="#70871E" stroke-width="2" opacity="0.7"/><path aria-label="rok: Jan 01, 1932; kdo: Josef Kalenský; jitter: 0.637677497138" role="graphics-symbol" aria-roledescription="circle" transform="translate(197.12282476334346,87.43343576593898)" d="M1.936,0A1.936,1.936,0,1,1,-1.936,0A1.936,1.936,0,1,1,1.936,0" fill="#70871E" stroke-width="2" opacity="0.7"/><path aria-label="rok: Jan 01, 1938; kdo: Josef Kalenský; jitter: 0.469457042131" role="graphics-symbol" aria-roledescription="circle" transform="translate(209.19482909054366,87.32484043003912)" d="M1.936,0A1.936,1.936,0,1,1,-1.936,0A1.936,1.936,0,1,1,1.936,0" fill="#70871E" stroke-width="2" opacity="0.7"/><path aria-label="rok: Jan 01, 1941; kdo: Josef Kalenský; jitter: 1.16237113272" role="graphics-symbol" aria-roledescription="circle" transform="translate(215.2306017832586,87.7721536798681)" d="M1.936,0A1.936,1.936,0,1,1,-1.936,0A1.936,1.936,0,1,1,1.936,0" fill="#70871E" stroke-width="2" opacity="0.7"/><path aria-label="rok: Jan 01, 1946; kdo: Josef Kalenský; jitter: 0.671359981114" role="graphics-symbol" aria-roledescription="circle" transform="translate(225.2871633259812,87.45517961784526)" d="M1.936,0A1.936,1.936,0,1,1,-1.936,0A1.936,1.936,0,1,1,1.936,0" fill="#70871E" stroke-width="2" opacity="0.7"/><path aria-label="rok: Jan 01, 1939; kdo: Fan Vavřincová; jitter: −2.61550261274" role="graphics-symbol" aria-roledescription="circle" transform="translate(211.20499404466233,118.66666666666666)" d="M1.936,0A1.936,1.936,0,1,1,-1.936,0A1.936,1.936,0,1,1,1.936,0" fill="#E09DA3" stroke-width="2" opacity="0.7"/><path aria-label="rok: Jan 01, 1941; kdo: Fan Vavřincová; jitter: −0.0556904460576" role="graphics-symbol" aria-roledescription="circle" transform="translate(215.2306017832586,120.31916286321623)" d="M1.936,0A1.936,1.936,0,1,1,-1.936,0A1.936,1.936,0,1,1,1.936,0" fill="#E09DA3" stroke-width="2" opacity="0.7"/><path aria-label="rok: Jan 01, 1943; kdo: Fan Vavřincová; jitter: −0.135509725805" role="graphics-symbol" aria-roledescription="circle" transform="translate(219.25116116238107,120.26763523243504)" d="M1.936,0A1.936,1.936,0,1,1,-1.936,0A1.936,1.936,0,1,1,1.936,0" fill="#E09DA3" stroke-width="2" opacity="0.7"/><path aria-label="rok: Jan 01, 1944; kdo: Fan Vavřincová; jitter: 2.03167086704" role="graphics-symbol" aria-roledescription="circle" transform="translate(221.26132611649973,121.66666666666666)" d="M1.936,0A1.936,1.936,0,1,1,-1.936,0A1.936,1.936,0,1,1,1.936,0" fill="#E09DA3" stroke-width="2" opacity="0.7"/><path aria-label="rok: Jan 01, 1991; kdo: Fan Vavřincová; jitter: 0.406176697488" role="graphics-symbol" aria-roledescription="circle" transform="translate(315.8051665750063,120.61732290321997)" d="M1.936,0A1.936,1.936,0,1,1,-1.936,0A1.936,1.936,0,1,1,1.936,0" fill="#E09DA3" stroke-width="2" opacity="0.7"/><path aria-label="rok: Jan 01, 1992; kdo: Fan Vavřincová; jitter: −1.40655357527" role="graphics-symbol" aria-roledescription="circle" transform="translate(317.81533152912493,119.44710818196631)" d="M1.936,0A1.936,1.936,0,1,1,-1.936,0A1.936,1.936,0,1,1,1.936,0" fill="#E09DA3" stroke-width="2" opacity="0.7"/><path aria-label="rok: Jan 01, 1994; kdo: Fan Vavřincová; jitter: 1.28052478174" role="graphics-symbol" aria-roledescription="circle" transform="translate(321.8411687386064,121.18176153761848)" d="M1.936,0A1.936,1.936,0,1,1,-1.936,0A1.936,1.936,0,1,1,1.936,0" fill="#E09DA3" stroke-width="2" opacity="0.7"/><path aria-label="rok: Jan 01, 1995; kdo: Fan Vavřincová; jitter: 1.20278517365" role="graphics-symbol" aria-roledescription="circle" transform="translate(323.85133369272506,121.13157644655848)" d="M1.936,0A1.936,1.936,0,1,1,-1.936,0A1.936,1.936,0,1,1,1.936,0" fill="#E09DA3" stroke-width="2" opacity="0.7"/><path aria-label="rok: Jan 01, 1995; kdo: Fan Vavřincová; jitter: −0.180497136165" role="graphics-symbol" aria-roledescription="circle" transform="translate(323.85133369272506,120.23859344355711)" d="M1.936,0A1.936,1.936,0,1,1,-1.936,0A1.936,1.936,0,1,1,1.936,0" fill="#E09DA3" stroke-width="2" opacity="0.7"/><path aria-label="rok: Jan 01, 1996; kdo: Fan Vavřincová; jitter: −0.175034799225" role="graphics-symbol" aria-roledescription="circle" transform="translate(325.8614986468437,120.24211967533915)" d="M1.936,0A1.936,1.936,0,1,1,-1.936,0A1.936,1.936,0,1,1,1.936,0" fill="#E09DA3" stroke-width="2" opacity="0.7"/><path aria-label="rok: Jan 01, 1996; kdo: Fan Vavřincová; jitter: −0.862066360327" role="graphics-symbol" aria-roledescription="circle" transform="translate(325.8614986468437,119.7986039141414)" d="M1.936,0A1.936,1.936,0,1,1,-1.936,0A1.936,1.936,0,1,1,1.936,0" fill="#E09DA3" stroke-width="2" opacity="0.7"/><path aria-label="rok: Jan 01, 1996; kdo: Fan Vavřincová; jitter: 0.668878160559" role="graphics-symbol" aria-roledescription="circle" transform="translate(325.8614986468437,120.78691080275479)" d="M1.936,0A1.936,1.936,0,1,1,-1.936,0A1.936,1.936,0,1,1,1.936,0" fill="#E09DA3" stroke-width="2" opacity="0.7"/><path aria-label="rok: Jan 01, 1997; kdo: Fan Vavřincová; jitter: −1.92155839705" role="graphics-symbol" aria-roledescription="circle" transform="translate(327.8771709022065,119.11464491755905)" d="M1.936,0A1.936,1.936,0,1,1,-1.936,0A1.936,1.936,0,1,1,1.936,0" fill="#E09DA3" stroke-width="2" opacity="0.7"/><path aria-label="rok: Jan 01, 1997; kdo: Fan Vavřincová; jitter: −0.461703999287" role="graphics-symbol" aria-roledescription="circle" transform="translate(327.8771709022065,120.057059314686)" d="M1.936,0A1.936,1.936,0,1,1,-1.936,0A1.936,1.936,0,1,1,1.936,0" fill="#E09DA3" stroke-width="2" opacity="0.7"/><path aria-label="rok: Jan 01, 2006; kdo: Fan Vavřincová; jitter: 1.13206400627" role="graphics-symbol" aria-roledescription="circle" transform="translate(345.9796700917627,121.08592213580948)" d="M1.936,0A1.936,1.936,0,1,1,-1.936,0A1.936,1.936,0,1,1,1.936,0" fill="#E09DA3" stroke-width="2" opacity="0.7"/><path aria-label="rok: Jan 01, 2007; kdo: Fan Vavřincová; jitter: −0.725213520488" role="graphics-symbol" aria-roledescription="circle" transform="translate(347.98983504588136,119.88694977024132)" d="M1.936,0A1.936,1.936,0,1,1,-1.936,0A1.936,1.936,0,1,1,1.936,0" fill="#E09DA3" stroke-width="2" opacity="0.7"/><path aria-label="rok: Jan 01, 2008; kdo: Fan Vavřincová; jitter: −0.335945188387" role="graphics-symbol" aria-roledescription="circle" transform="translate(350,120.1382433794386)" d="M1.936,0A1.936,1.936,0,1,1,-1.936,0A1.936,1.936,0,1,1,1.936,0" fill="#E09DA3" stroke-width="2" opacity="0.7"/></g><g class="mark-text role-mark layer_1_marks" role="graphics-object" aria-roledescription="text mark container"><text aria-label="text: vizualizace: iROZHLAS.cz · 2025" role="graphics-symbol" aria-roledescription="text mark" text-anchor="end" transform="translate(355,178)" font-family="Asap" font-size="11px" fill="#222">vizualizace: iROZHLAS.cz · 2025</text></g><g class="mark-group role-title"><g transform="translate(-114.37100219726562,-24)"><path class="background" aria-hidden="true" d="M0,0h0v0h0Z" pointer-events="none"/><g><g class="mark-text role-title-text" role="graphics-symbol" aria-roledescription="title" aria-label="Title text 'Dvě století české literatury ve třech kariérách'" pointer-events="none"><text text-anchor="start" transform="translate(0,6)" font-family="Noticia Text" font-size="20px" font-weight="bold" fill="#000" opacity="1">Dvě století české literatury ve třech kariérách</text></g></g><path class="foreground" aria-hidden="true" d="" pointer-events="none" display="none"/></g></g></g><path class="foreground" aria-hidden="true" d="" display="none"/></g></g></g></svg>