<svg xmlns="http://www.w3.org/2000/svg" xmlns:xlink="http://www.w3.org/1999/xlink" version="1.1" class="marks" width="523" height="324" viewBox="0 0 523 324"><rect width="523" height="324" fill="white"/><g fill="none" stroke-miterlimit="10" transform="translate(66,39)"><g class="mark-group role-frame root" role="graphics-object" aria-roledescription="group mark container"><g transform="translate(0,0)"><path class="background" aria-hidden="true" d="M0.5,0.5h450v160h-450Z" stroke="#ddd"/><g><g class="mark-group role-axis" aria-hidden="true"><g transform="translate(0.5,160.5)"><path class="background" aria-hidden="true" d="M0,0h0v0h0Z" pointer-events="none"/><g><g class="mark-rule role-axis-grid" pointer-events="none"><line transform="translate(16,0)" x2="0" y2="-160" stroke="#ddd" stroke-width="1" opacity="1"/><line transform="translate(67,0)" x2="0" y2="-160" stroke="#ddd" stroke-width="1" opacity="1"/><line transform="translate(119,0)" x2="0" y2="-160" stroke="#ddd" stroke-width="1" opacity="1"/><line transform="translate(171,0)" x2="0" y2="-160" stroke="#ddd" stroke-width="1" opacity="1"/><line transform="translate(222,0)" x2="0" y2="-160" stroke="#ddd" stroke-width="1" opacity="1"/><line transform="translate(274,0)" x2="0" y2="-160" stroke="#ddd" stroke-width="1" opacity="1"/><line transform="translate(326,0)" x2="0" y2="-160" stroke="#ddd" stroke-width="1" opacity="1"/><line transform="translate(378,0)" x2="0" y2="-160" stroke="#ddd" stroke-width="1" opacity="1"/><line transform="translate(429,0)" x2="0" y2="-160" stroke="#ddd" stroke-width="1" opacity="1"/></g></g><path class="foreground" aria-hidden="true" d="" pointer-events="none" display="none"/></g></g><g class="mark-group role-axis" role="graphics-symbol" aria-roledescription="axis" aria-label="X-axis for a time scale with values from Wednesday, 01 January 1834, 12:00:00 AM to Tuesday, 01 January 2008, 12:00:00 AM"><g transform="translate(0.5,160.5)"><path class="background" aria-hidden="true" d="M0,0h0v0h0Z" pointer-events="none"/><g><g class="mark-rule role-axis-tick" pointer-events="none"><line transform="translate(16,0)" x2="0" y2="5" stroke="#888" stroke-width="1" opacity="1"/><line transform="translate(67,0)" x2="0" y2="5" stroke="#888" stroke-width="1" opacity="1"/><line transform="translate(119,0)" x2="0" y2="5" stroke="#888" stroke-width="1" opacity="1"/><line transform="translate(171,0)" x2="0" y2="5" stroke="#888" stroke-width="1" opacity="1"/><line transform="translate(222,0)" x2="0" y2="5" stroke="#888" stroke-width="1" opacity="1"/><line transform="translate(274,0)" x2="0" y2="5" stroke="#888" stroke-width="1" opacity="1"/><line transform="translate(326,0)" x2="0" y2="5" stroke="#888" stroke-width="1" opacity="1"/><line transform="translate(378,0)" x2="0" y2="5" stroke="#888" stroke-width="1" opacity="1"/><line transform="translate(429,0)" x2="0" y2="5" stroke="#888" stroke-width="1" opacity="1"/></g><g class="mark-text role-axis-label" pointer-events="none"><text text-anchor="middle" transform="translate(15.514067604800662,16)" font-family="Asap" font-size="11px" fill="#000" opacity="1">1840</text><text text-anchor="middle" transform="translate(67.23942764727845,16)" font-family="Asap" font-size="11px" fill="#000" opacity="1">1860</text><text text-anchor="middle" transform="translate(118.96478768975622,16)" font-family="Asap" font-size="11px" fill="#000" opacity="1">1880</text><text text-anchor="middle" transform="translate(170.6901365865053,16)" font-family="Asap" font-size="11px" fill="#000" opacity="1">1900</text><text text-anchor="middle" transform="translate(222.40841581309775,16)" font-family="Asap" font-size="11px" fill="#000" opacity="1">1920</text><text text-anchor="middle" transform="translate(274.13377585557555,16)" font-family="Asap" font-size="11px" fill="#000" opacity="1">1940</text><text text-anchor="middle" transform="translate(325.85913589805335,16)" font-family="Asap" font-size="11px" fill="#000" opacity="1">1960</text><text text-anchor="middle" transform="translate(377.5844959405311,16)" font-family="Asap" font-size="11px" fill="#000" opacity="1">1980</text><text text-anchor="middle" transform="translate(429.30985598300884,16)" font-family="Asap" font-size="11px" fill="#000" opacity="1">2000</text></g><g class="mark-rule role-axis-domain" pointer-events="none"><line transform="translate(0,0)" x2="450" y2="0" stroke="#888" stroke-width="1" opacity="1"/></g></g><path class="foreground" aria-hidden="true" d="" pointer-events="none" display="none"/></g></g><g class="mark-group role-axis" role="graphics-symbol" aria-roledescription="axis" aria-label="Y-axis for a discrete scale with 4 values: Mácha, Veselský, Kalenský, Vavřincová"><g transform="translate(0.5,0.5)"><path class="background" aria-hidden="true" d="M0,0h0v0h0Z" pointer-events="none"/><g><g class="mark-rule role-axis-tick" pointer-events="none"><line transform="translate(0,22)" x2="-5" y2="0" stroke="#888" stroke-width="1" opacity="1"/><line transform="translate(0,60)" x2="-5" y2="0" stroke="#888" stroke-width="1" opacity="1"/><line transform="translate(0,99)" x2="-5" y2="0" stroke="#888" stroke-width="1" opacity="1"/><line transform="translate(0,137)" x2="-5" y2="0" stroke="#888" stroke-width="1" opacity="1"/></g><g class="mark-text role-axis-label" pointer-events="none"><text text-anchor="end" transform="translate(-7,25.35714285714286)" font-family="Asap" font-size="11px" fill="#000" opacity="1">Mácha</text><text text-anchor="end" transform="translate(-7,63.452380952380956)" font-family="Asap" font-size="11px" fill="#000" opacity="1">Veselský</text><text text-anchor="end" transform="translate(-7,101.54761904761905)" font-family="Asap" font-size="11px" fill="#000" opacity="1">Kalenský</text><text text-anchor="end" transform="translate(-7,139.64285714285714)" font-family="Asap" font-size="11px" fill="#000" opacity="1">Vavřincová</text></g><g class="mark-rule role-axis-domain" pointer-events="none"><line transform="translate(0,0)" x2="0" y2="160" stroke="#888" stroke-width="1" opacity="1"/></g></g><path class="foreground" aria-hidden="true" d="" pointer-events="none" display="none"/></g></g><g class="mark-symbol role-mark layer_0_marks" role="graphics-object" aria-roledescription="symbol mark container"><path aria-label="rok: Jan 01, 1836; kdo: Mácha; jitter: 0.845448137031; téma: undefined" role="graphics-symbol" aria-roledescription="circle" transform="translate(5.168995596305104,30.022455698360417)" d="M1.414,0A1.414,1.414,0,1,1,-1.414,0A1.414,1.414,0,1,1,1.414,0" fill="#65A8CD" stroke-width="2" opacity="0.7"/><path aria-label="rok: Jan 01, 1834; kdo: Veselský; jitter: −1.13635808645; téma: undefined" role="graphics-symbol" aria-roledescription="circle" transform="translate(0,54.28853694647848)" d="M1.414,0A1.414,1.414,0,1,1,-1.414,0A1.414,1.414,0,1,1,1.414,0" fill="#65A8CD" stroke-width="2" opacity="0.7"/><path aria-label="rok: Jan 01, 1834; kdo: Veselský; jitter: −0.267041480687; téma: undefined" role="graphics-symbol" aria-roledescription="circle" transform="translate(0,60.35467779740151)" d="M1.414,0A1.414,1.414,0,1,1,-1.414,0A1.414,1.414,0,1,1,1.414,0" fill="#65A8CD" stroke-width="2" opacity="0.7"/><path aria-label="rok: Jan 01, 1837; kdo: Veselský; jitter: 1.67060037964; téma: undefined" role="graphics-symbol" aria-roledescription="circle" transform="translate(7.760574210343005,73.87565319981196)" d="M1.414,0A1.414,1.414,0,1,1,-1.414,0A1.414,1.414,0,1,1,1.414,0" fill="#65A8CD" stroke-width="2" opacity="0.7"/><path aria-label="rok: Jan 01, 1838; kdo: Veselský; jitter: 1.93408812514; téma: undefined" role="graphics-symbol" aria-roledescription="circle" transform="translate(10.345072008495556,75.71428571428572)" d="M1.414,0A1.414,1.414,0,1,1,-1.414,0A1.414,1.414,0,1,1,1.414,0" fill="#65A8CD" stroke-width="2" opacity="0.7"/><path aria-label="rok: Jan 01, 1855; kdo: Veselský; jitter: 0.323412260949; téma: undefined" role="graphics-symbol" aria-roledescription="circle" transform="translate(54.309857840630336,64.47489767930504)" d="M1.414,0A1.414,1.414,0,1,1,-1.414,0A1.414,1.414,0,1,1,1.414,0" fill="#65A8CD" stroke-width="2" opacity="0.7"/><path aria-label="rok: Jan 01, 1866; kdo: Veselský; jitter: 0.0645001820178; téma: undefined" role="graphics-symbol" aria-roledescription="circle" transform="translate(82.76057606796445,62.66819442712192)" d="M1.414,0A1.414,1.414,0,1,1,-1.414,0A1.414,1.414,0,1,1,1.414,0" fill="#65A8CD" stroke-width="2" opacity="0.7"/><path aria-label="rok: Jan 01, 1889; kdo: Veselský; jitter: 0.72480230689; téma: undefined" role="graphics-symbol" aria-roledescription="circle" transform="translate(142.24651032078526,67.27582031061223)" d="M1.414,0A1.414,1.414,0,1,1,-1.414,0A1.414,1.414,0,1,1,1.414,0" fill="#65A8CD" stroke-width="2" opacity="0.7"/><path aria-label="rok: Jan 01, 1889; kdo: Kalenský; jitter: 0.216984756477; téma: undefined" role="graphics-symbol" aria-roledescription="circle" transform="translate(142.24651032078526,101.82747857892232)" d="M1.414,0A1.414,1.414,0,1,1,-1.414,0A1.414,1.414,0,1,1,1.414,0" fill="#65A8CD" stroke-width="2" opacity="0.7"/><path aria-label="rok: Jan 01, 1889; kdo: Kalenský; jitter: 0.435510288094; téma: undefined" role="graphics-symbol" aria-roledescription="circle" transform="translate(142.24651032078526,103.35236220076303)" d="M1.414,0A1.414,1.414,0,1,1,-1.414,0A1.414,1.414,0,1,1,1.414,0" fill="#65A8CD" stroke-width="2" opacity="0.7"/><path aria-label="rok: Jan 01, 1889; kdo: Kalenský; jitter: 0.368919356434; téma: undefined" role="graphics-symbol" aria-roledescription="circle" transform="translate(142.24651032078526,102.88768688204765)" d="M1.414,0A1.414,1.414,0,1,1,-1.414,0A1.414,1.414,0,1,1,1.414,0" fill="#65A8CD" stroke-width="2" opacity="0.7"/><path aria-label="rok: Jan 01, 1890; kdo: Kalenský; jitter: 0.656271315001; téma: undefined" role="graphics-symbol" aria-roledescription="circle" transform="translate(144.8310081189378,104.89284523621814)" d="M1.414,0A1.414,1.414,0,1,1,-1.414,0A1.414,1.414,0,1,1,1.414,0" fill="#65A8CD" stroke-width="2" opacity="0.7"/><path aria-label="rok: Jan 01, 1890; kdo: Kalenský; jitter: 1.14151756967; téma: undefined" role="graphics-symbol" aria-roledescription="circle" transform="translate(144.8310081189378,108.27892127421057)" d="M1.414,0A1.414,1.414,0,1,1,-1.414,0A1.414,1.414,0,1,1,1.414,0" fill="#65A8CD" stroke-width="2" opacity="0.7"/><path aria-label="rok: Jan 01, 1892; kdo: Kalenský; jitter: −0.808090372805; téma: undefined" role="graphics-symbol" aria-roledescription="circle" transform="translate(149.99999256951418,94.67444586815823)" d="M1.414,0A1.414,1.414,0,1,1,-1.414,0A1.414,1.414,0,1,1,1.414,0" fill="#65A8CD" stroke-width="2" opacity="0.7"/><path aria-label="rok: Jan 01, 1893; kdo: Kalenský; jitter: 1.04660523475; téma: undefined" role="graphics-symbol" aria-roledescription="circle" transform="translate(152.59157118355208,107.61661758846526)" d="M1.414,0A1.414,1.414,0,1,1,-1.414,0A1.414,1.414,0,1,1,1.414,0" fill="#65A8CD" stroke-width="2" opacity="0.7"/><path aria-label="rok: Jan 01, 1928; kdo: Kalenský; jitter: −0.277760784359; téma: undefined" role="graphics-symbol" aria-roledescription="circle" transform="translate(243.09855983008885,98.37511598030969)" d="M1.414,0A1.414,1.414,0,1,1,-1.414,0A1.414,1.414,0,1,1,1.414,0" fill="#65A8CD" stroke-width="2" opacity="0.7"/><path aria-label="rok: Jan 01, 1930; kdo: Kalenský; jitter: −0.543556296382; téma: undefined" role="graphics-symbol" aria-roledescription="circle" transform="translate(248.2746362422793,96.5203797394573)" d="M1.414,0A1.414,1.414,0,1,1,-1.414,0A1.414,1.414,0,1,1,1.414,0" fill="#65A8CD" stroke-width="2" opacity="0.7"/><path aria-label="rok: Jan 01, 1932; kdo: Kalenský; jitter: 0.513599990164; téma: undefined" role="graphics-symbol" aria-roledescription="circle" transform="translate(253.44363183858445,103.89727659515617)" d="M1.414,0A1.414,1.414,0,1,1,-1.414,0A1.414,1.414,0,1,1,1.414,0" fill="#65A8CD" stroke-width="2" opacity="0.7"/><path aria-label="rok: Jan 01, 1938; kdo: Kalenský; jitter: 0.993493972399; téma: undefined" role="graphics-symbol" aria-roledescription="circle" transform="translate(268.96478025927047,107.24600417088884)" d="M1.414,0A1.414,1.414,0,1,1,-1.414,0A1.414,1.414,0,1,1,1.414,0" fill="#65A8CD" stroke-width="2" opacity="0.7"/><path aria-label="rok: Jan 01, 1941; kdo: Kalenský; jitter: 1.06691675925; téma: undefined" role="graphics-symbol" aria-roledescription="circle" transform="translate(276.7250594356182,107.75835256472789)" d="M1.414,0A1.414,1.414,0,1,1,-1.414,0A1.414,1.414,0,1,1,1.414,0" fill="#65A8CD" stroke-width="2" opacity="0.7"/><path aria-label="rok: Jan 01, 1946; kdo: Kalenský; jitter: 0.722483824232; téma: undefined" role="graphics-symbol" aria-roledescription="circle" transform="translate(289.6549242762615,105.35487990163696)" d="M1.414,0A1.414,1.414,0,1,1,-1.414,0A1.414,1.414,0,1,1,1.414,0" fill="#65A8CD" stroke-width="2" opacity="0.7"/><path aria-label="rok: Jan 01, 1939; kdo: Vavřincová; jitter: −0.18131142979; téma: undefined" role="graphics-symbol" aria-roledescription="circle" transform="translate(271.549278057423,137.1433831721047)" d="M1.414,0A1.414,1.414,0,1,1,-1.414,0A1.414,1.414,0,1,1,1.414,0" fill="#65A8CD" stroke-width="2" opacity="0.7"/><path aria-label="rok: Jan 01, 1941; kdo: Vavřincová; jitter: 1.18026327817; téma: undefined" role="graphics-symbol" aria-roledescription="circle" transform="translate(276.7250594356182,146.6445291330286)" d="M1.414,0A1.414,1.414,0,1,1,-1.414,0A1.414,1.414,0,1,1,1.414,0" fill="#65A8CD" stroke-width="2" opacity="0.7"/><path aria-label="rok: Jan 01, 1943; kdo: Vavřincová; jitter: 0.402845085163; téma: undefined" role="graphics-symbol" aria-roledescription="circle" transform="translate(281.8943500659185,141.21966064709568)" d="M1.414,0A1.414,1.414,0,1,1,-1.414,0A1.414,1.414,0,1,1,1.414,0" fill="#65A8CD" stroke-width="2" opacity="0.7"/><path aria-label="rok: Jan 01, 1944; kdo: Vavřincová; jitter: −0.194342895919; téma: undefined" role="graphics-symbol" aria-roledescription="circle" transform="translate(284.47884786407104,137.0524488582863)" d="M1.414,0A1.414,1.414,0,1,1,-1.414,0A1.414,1.414,0,1,1,1.414,0" fill="#65A8CD" stroke-width="2" opacity="0.7"/><path aria-label="rok: Jan 01, 1991; kdo: Vavřincová; jitter: 0.757763124941; téma: undefined" role="graphics-symbol" aria-roledescription="circle" transform="translate(406.03521416786526,143.6962989691579)" d="M1.414,0A1.414,1.414,0,1,1,-1.414,0A1.414,1.414,0,1,1,1.414,0" fill="#65A8CD" stroke-width="2" opacity="0.7"/><path aria-label="rok: Jan 01, 1992; kdo: Vavřincová; jitter: 1.1222504538; téma: undefined" role="graphics-symbol" aria-roledescription="circle" transform="translate(408.6197119660178,146.23971233613645)" d="M1.414,0A1.414,1.414,0,1,1,-1.414,0A1.414,1.414,0,1,1,1.414,0" fill="#65A8CD" stroke-width="2" opacity="0.7"/><path aria-label="rok: Jan 01, 1994; kdo: Vavřincová; jitter: 1.52107511418; téma: undefined" role="graphics-symbol" aria-roledescription="circle" transform="translate(413.7957883782082,149.0227335606994)" d="M1.414,0A1.414,1.414,0,1,1,-1.414,0A1.414,1.414,0,1,1,1.414,0" fill="#65A8CD" stroke-width="2" opacity="0.7"/><path aria-label="rok: Jan 01, 1995; kdo: Vavřincová; jitter: 0.74353673799; téma: undefined" role="graphics-symbol" aria-roledescription="circle" transform="translate(416.38028617636076,143.59702642970194)" d="M1.414,0A1.414,1.414,0,1,1,-1.414,0A1.414,1.414,0,1,1,1.414,0" fill="#65A8CD" stroke-width="2" opacity="0.7"/><path aria-label="rok: Jan 01, 1995; kdo: Vavřincová; jitter: −0.445511502195; téma: undefined" role="graphics-symbol" aria-roledescription="circle" transform="translate(416.38028617636076,135.2997799998878)" d="M1.414,0A1.414,1.414,0,1,1,-1.414,0A1.414,1.414,0,1,1,1.414,0" fill="#65A8CD" stroke-width="2" opacity="0.7"/><path aria-label="rok: Jan 01, 1996; kdo: Vavřincová; jitter: 0.829701284932; téma: undefined" role="graphics-symbol" aria-roledescription="circle" transform="translate(418.9647839745133,144.19828755211165)" d="M1.414,0A1.414,1.414,0,1,1,-1.414,0A1.414,1.414,0,1,1,1.414,0" fill="#65A8CD" stroke-width="2" opacity="0.7"/><path aria-label="rok: Jan 01, 1996; kdo: Vavřincová; jitter: 0.297349581838; téma: undefined" role="graphics-symbol" aria-roledescription="circle" transform="translate(418.9647839745133,140.48350700862534)" d="M1.414,0A1.414,1.414,0,1,1,-1.414,0A1.414,1.414,0,1,1,1.414,0" fill="#65A8CD" stroke-width="2" opacity="0.7"/><path aria-label="rok: Jan 01, 1996; kdo: Vavřincová; jitter: −2.36510287844; téma: undefined" role="graphics-symbol" aria-roledescription="circle" transform="translate(418.9647839745133,121.9047619047619)" d="M1.414,0A1.414,1.414,0,1,1,-1.414,0A1.414,1.414,0,1,1,1.414,0" fill="#65A8CD" stroke-width="2" opacity="0.7"/><path aria-label="rok: Jan 01, 1997; kdo: Vavřincová; jitter: 0.131596445082; téma: undefined" role="graphics-symbol" aria-roledescription="circle" transform="translate(421.5563625885512,139.32687216767098)" d="M1.414,0A1.414,1.414,0,1,1,-1.414,0A1.414,1.414,0,1,1,1.414,0" fill="#65A8CD" stroke-width="2" opacity="0.7"/><path aria-label="rok: Jan 01, 1997; kdo: Vavřincová; jitter: 0.00342735705271; téma: undefined" role="graphics-symbol" aria-roledescription="circle" transform="translate(421.5563625885512,138.432500962092)" d="M1.414,0A1.414,1.414,0,1,1,-1.414,0A1.414,1.414,0,1,1,1.414,0" fill="#65A8CD" stroke-width="2" opacity="0.7"/><path aria-label="rok: Jan 01, 2006; kdo: Vavřincová; jitter: −0.804555428727; téma: undefined" role="graphics-symbol" aria-roledescription="circle" transform="translate(444.8310044036949,132.7943510047647)" d="M1.414,0A1.414,1.414,0,1,1,-1.414,0A1.414,1.414,0,1,1,1.414,0" fill="#65A8CD" stroke-width="2" opacity="0.7"/><path aria-label="rok: Jan 01, 2007; kdo: Vavřincová; jitter: −1.61169916766; téma: undefined" role="graphics-symbol" aria-roledescription="circle" transform="translate(447.41550220184746,127.1620559642182)" d="M1.414,0A1.414,1.414,0,1,1,-1.414,0A1.414,1.414,0,1,1,1.414,0" fill="#65A8CD" stroke-width="2" opacity="0.7"/><path aria-label="rok: Jan 01, 2008; kdo: Vavřincová; jitter: 0.711014170394; téma: undefined" role="graphics-symbol" aria-roledescription="circle" transform="translate(450,143.37008209829753)" d="M1.414,0A1.414,1.414,0,1,1,-1.414,0A1.414,1.414,0,1,1,1.414,0" fill="#65A8CD" stroke-width="2" opacity="0.7"/></g><g class="mark-text role-mark layer_1_marks" role="graphics-object" aria-roledescription="text mark container"><text aria-label="text: vizualizace: iROZHLAS.cz · 2025" role="graphics-symbol" aria-roledescription="text mark" text-anchor="end" transform="translate(448,278)" font-family="Asap" font-size="11px" fill="#222">vizualizace: iROZHLAS.cz · 2025</text></g><g class="mark-group role-title"><g transform="translate(-60.44898986816406,-24)"><path class="background" aria-hidden="true" d="M0,0h0v0h0Z" pointer-events="none"/><g><g class="mark-text role-title-text" role="graphics-symbol" aria-roledescription="title" aria-label="Title text 'Dvě století české literatury ve čtyřech kariérách'" pointer-events="none"><text text-anchor="start" transform="translate(0,6)" font-family="Noticia Text" font-size="20px" font-weight="bold" fill="#000" opacity="1">Dvě století české literatury ve čtyřech kariérách</text></g></g><path class="foreground" aria-hidden="true" d="" pointer-events="none" display="none"/></g></g></g><path class="foreground" aria-hidden="true" d="" display="none"/></g></g></g></svg>