<?xml version='1.0' encoding='utf-8'?>
<svg xmlns="http://www.w3.org/2000/svg" width="340px" height="218px">
  <rect width="340" height="218" fill="white"/>
  <g transform="translate(0,0)">
    <ns0:rect xmlns:ns0="http://www.w3.org/2000/svg" width="340" height="178" fill="white"/>
    <ns1:g xmlns:ns1="http://www.w3.org/2000/svg" fill="none" stroke-miterlimit="10" transform="translate(7,56)">
      <ns1:g class="mark-group role-frame root" role="graphics-object" aria-roledescription="group mark container">
        <ns1:g transform="translate(0,0)">
          <ns1:path class="background" aria-hidden="true" d="M0.5,0.5h300v100h-300Z"/>
          <ns1:g>
            <ns1:g class="mark-group role-axis" aria-hidden="true">
              <ns1:g transform="translate(0.5,100.5)">
                <ns1:path class="background" aria-hidden="true" d="M0,0h0v0h0Z" pointer-events="none"/>
                <ns1:g>
                  <ns1:g class="mark-rule role-axis-grid" pointer-events="none">
                    <ns1:line transform="translate(17,-100)" x2="0" y2="100" stroke="#ddd" stroke-width="1" opacity="1"/>
                    <ns1:line transform="translate(52,-100)" x2="0" y2="100" stroke="#ddd" stroke-width="1" opacity="1"/>
                    <ns1:line transform="translate(86,-100)" x2="0" y2="100" stroke="#ddd" stroke-width="1" opacity="1"/>
                    <ns1:line transform="translate(121,-100)" x2="0" y2="100" stroke="#ddd" stroke-width="1" opacity="1"/>
                    <ns1:line transform="translate(155,-100)" x2="0" y2="100" stroke="#ddd" stroke-width="1" opacity="1"/>
                    <ns1:line transform="translate(190,-100)" x2="0" y2="100" stroke="#ddd" stroke-width="1" opacity="1"/>
                    <ns1:line transform="translate(224,-100)" x2="0" y2="100" stroke="#ddd" stroke-width="1" opacity="1"/>
                    <ns1:line transform="translate(259,-100)" x2="0" y2="100" stroke="#ddd" stroke-width="1" opacity="1"/>
                    <ns1:line transform="translate(293,-100)" x2="0" y2="100" stroke="#ddd" stroke-width="1" opacity="1"/>
                  </ns1:g>
                </ns1:g>
                <ns1:path class="foreground" aria-hidden="true" d="" pointer-events="none" display="none"/>
              </ns1:g>
            </ns1:g>
            <ns1:g class="mark-group role-axis" aria-hidden="true">
              <ns1:g transform="translate(300.5,0.5)">
                <ns1:path class="background" aria-hidden="true" d="M0,0h0v0h0Z" pointer-events="none"/>
                <ns1:g>
                  <ns1:g class="mark-rule role-axis-grid" pointer-events="none">
                    <ns1:line transform="translate(0,100)" x2="-300" y2="0" stroke="#ddd" stroke-width="1" opacity="1"/>
                    <ns1:line transform="translate(0,78)" x2="-300" y2="0" stroke="#ddd" stroke-width="1" opacity="1"/>
                    <ns1:line transform="translate(0,56)" x2="-300" y2="0" stroke="#ddd" stroke-width="1" opacity="1"/>
                    <ns1:line transform="translate(0,33)" x2="-300" y2="0" stroke="#ddd" stroke-width="1" opacity="1"/>
                    <ns1:line transform="translate(0,11)" x2="-300" y2="0" stroke="#ddd" stroke-width="1" opacity="1"/>
                  </ns1:g>
                </ns1:g>
                <ns1:path class="foreground" aria-hidden="true" d="" pointer-events="none" display="none"/>
              </ns1:g>
            </ns1:g>
            <ns1:g class="mark-group role-axis" role="graphics-symbol" aria-roledescription="axis" aria-label="X-axis for a time scale with values from Tuesday, 01 January 1850, 12:00:00 AM to Monday, 01 January 2024, 12:00:00 AM">
              <ns1:g transform="translate(0.5,100.5)">
                <ns1:path class="background" aria-hidden="true" d="M0,0h0v0h0Z" pointer-events="none"/>
                <ns1:g>
                  <ns1:g class="mark-rule role-axis-tick" pointer-events="none">
                    <ns1:line transform="translate(17,0)" x2="0" y2="5" stroke="#DCDDD6" stroke-width="1" opacity="1"/>
                    <ns1:line transform="translate(52,0)" x2="0" y2="5" stroke="#DCDDD6" stroke-width="1" opacity="1"/>
                    <ns1:line transform="translate(86,0)" x2="0" y2="5" stroke="#DCDDD6" stroke-width="1" opacity="1"/>
                    <ns1:line transform="translate(121,0)" x2="0" y2="5" stroke="#DCDDD6" stroke-width="1" opacity="1"/>
                    <ns1:line transform="translate(155,0)" x2="0" y2="5" stroke="#DCDDD6" stroke-width="1" opacity="1"/>
                    <ns1:line transform="translate(190,0)" x2="0" y2="5" stroke="#DCDDD6" stroke-width="1" opacity="1"/>
                    <ns1:line transform="translate(224,0)" x2="0" y2="5" stroke="#DCDDD6" stroke-width="1" opacity="1"/>
                    <ns1:line transform="translate(259,0)" x2="0" y2="5" stroke="#DCDDD6" stroke-width="1" opacity="1"/>
                    <ns1:line transform="translate(293,0)" x2="0" y2="5" stroke="#DCDDD6" stroke-width="1" opacity="1"/>
                  </ns1:g>
                  <ns1:g class="mark-text role-axis-label" pointer-events="none">
                    <ns1:text text-anchor="middle" transform="translate(17.239426408864144,15)" font-family="Asap" font-size="10px" fill="#000" opacity="1">1860</ns1:text>
                    <ns1:text text-anchor="middle" transform="translate(51.722999770516005,15)" font-family="Asap" font-size="10px" fill="#000" opacity="1">1880</ns1:text>
                    <ns1:text text-anchor="middle" transform="translate(86.20656570168205,15)" font-family="Asap" font-size="10px" fill="#000" opacity="1">1900</ns1:text>
                    <ns1:text text-anchor="middle" transform="translate(120.68541851941035,15)" font-family="Asap" font-size="10px" fill="#000" opacity="1">1920</ns1:text>
                    <ns1:text text-anchor="middle" transform="translate(155.1689918810622,15)" font-family="Asap" font-size="10px" fill="#000" opacity="1">1940</ns1:text>
                    <ns1:text text-anchor="middle" transform="translate(189.65256524271405,15)" font-family="Asap" font-size="10px" fill="#000" opacity="1">1960</ns1:text>
                    <ns1:text text-anchor="middle" transform="translate(224.13613860436593,15)" font-family="Asap" font-size="10px" fill="#000" opacity="1">1980</ns1:text>
                    <ns1:text text-anchor="middle" transform="translate(258.61971196601775,15)" font-family="Asap" font-size="10px" fill="#000" opacity="1">2000</ns1:text>
                    <ns1:text text-anchor="middle" transform="translate(293.10328532766965,15)" font-family="Asap" font-size="10px" fill="#000" opacity="1">2020</ns1:text>
                  </ns1:g>
                  <ns1:g class="mark-rule role-axis-domain" pointer-events="none">
                    <ns1:line transform="translate(0,0)" x2="300" y2="0" stroke="#888" stroke-opacity="0" stroke-width="1" opacity="1"/>
                  </ns1:g>
                </ns1:g>
                <ns1:path class="foreground" aria-hidden="true" d="" pointer-events="none" display="none"/>
              </ns1:g>
            </ns1:g>
            <ns1:g class="mark-group role-axis" role="graphics-symbol" aria-roledescription="axis" aria-label="Y-axis for a linear scale with values from 0.0 to 0.5">
              <ns1:g transform="translate(300.5,0.5)">
                <ns1:path class="background" aria-hidden="true" d="M0,0h0v0h0Z" pointer-events="none"/>
                <ns1:g>
                  <ns1:g class="mark-rule role-axis-tick" pointer-events="none">
                    <ns1:line transform="translate(0,100)" x2="5" y2="0" stroke="#DCDDD6" stroke-width="1" opacity="1"/>
                    <ns1:line transform="translate(0,78)" x2="5" y2="0" stroke="#DCDDD6" stroke-width="1" opacity="1"/>
                    <ns1:line transform="translate(0,56)" x2="5" y2="0" stroke="#DCDDD6" stroke-width="1" opacity="1"/>
                    <ns1:line transform="translate(0,33)" x2="5" y2="0" stroke="#DCDDD6" stroke-width="1" opacity="1"/>
                    <ns1:line transform="translate(0,11)" x2="5" y2="0" stroke="#DCDDD6" stroke-width="1" opacity="1"/>
                  </ns1:g>
                  <ns1:g class="mark-text role-axis-label" pointer-events="none">
                    <ns1:text text-anchor="start" transform="translate(7,103)" font-family="Asap" font-size="10px" fill="#000" opacity="1">0 %</ns1:text>
                    <ns1:text text-anchor="start" transform="translate(7,80.77777777777779)" font-family="Asap" font-size="10px" fill="#000" opacity="1">10 %</ns1:text>
                    <ns1:text text-anchor="start" transform="translate(7,58.55555555555556)" font-family="Asap" font-size="10px" fill="#000" opacity="1">20 %</ns1:text>
                    <ns1:text text-anchor="start" transform="translate(7,36.333333333333336)" font-family="Asap" font-size="10px" fill="#000" opacity="1">30 %</ns1:text>
                    <ns1:text text-anchor="start" transform="translate(7,14.111111111111105)" font-family="Asap" font-size="10px" fill="#000" opacity="1">40 %</ns1:text>
                  </ns1:g>
                  <ns1:g class="mark-rule role-axis-domain" pointer-events="none">
                    <ns1:line transform="translate(0,100)" x2="0" y2="-100" stroke="#888" stroke-opacity="0" stroke-width="1" opacity="1"/>
                  </ns1:g>
                </ns1:g>
                <ns1:path class="foreground" aria-hidden="true" d="" pointer-events="none" display="none"/>
              </ns1:g>
            </ns1:g>
            <ns1:g class="mark-line role-mark marks" role="graphics-object" aria-roledescription="line mark container">
              <ns1:path aria-label="rok: Jan 01, 1850; podil: 0.0149286987522" role="graphics-symbol" aria-roledescription="line mark" d="M0,96.683L3.446,96.978L6.897,97.16L8.62,94.856L10.343,94.505L12.07,93.704L15.516,92.632L17.239,95.595L18.967,96.534L20.69,90.822L22.413,88.861L24.136,89.519L25.864,90.578L27.587,91.266L31.033,90.321L32.761,92.75L34.484,94.511L36.207,95.615L37.93,89.06L39.657,88.511L41.38,92.692L43.103,90.091L44.826,91.812L46.554,92.832L48.277,92.497L50,93.855L51.723,93.99L53.451,90.727L55.174,87.963L56.897,90.516L58.62,93.391L60.347,92.926L62.07,88.976L63.793,84.994L65.516,85.104L67.244,86.575L68.967,84.032L70.69,83.804L72.413,87.372L74.141,88.104L75.864,87.47L77.587,86.14L79.31,86.942L81.038,87.9L82.761,89.046L84.484,90.26L86.207,88.282L87.93,87.721L89.653,88.14L91.376,86.71L93.099,87.108L94.826,89.912L96.549,92.764L98.272,92.631L99.995,91.569L101.723,91.317L103.446,90.695L105.169,90.955L106.892,89.262L108.62,86.912L110.343,86.91L112.066,87.815L113.789,86.531L115.516,85.124L117.239,84.595L118.962,86.433L120.685,87.548L122.413,87.242L124.136,87.742L125.859,87.408L127.582,87.678L129.31,85.74L131.033,84.159L132.756,85.09L134.479,84.66L136.207,82.22L137.93,82.796L139.653,84.967L141.376,84.098L143.103,84.189L144.826,84.338L146.549,83.901L148.272,83.352L150,82.565L151.723,83.577L153.446,83.494L155.169,81.202L156.897,80.14L158.62,75.206L160.343,73.147L162.066,73.761L163.793,78.766L165.516,84.354L167.24,82.344L168.962,82.551L170.69,83.862L172.413,84.903L174.136,86.69L175.859,88.265L177.587,87.858L179.31,85.616L181.033,83.948L182.756,83.252L184.484,80.32L186.207,79.692L187.93,79.696L189.653,77.087L191.38,75.83L193.103,74.781L194.826,76.3L196.549,77.579L198.277,75.007L200,75.165L201.723,75.305L203.446,74.799L205.174,72.408L206.897,69.1L208.62,69.421L210.343,69.278L212.07,67.886L213.793,65.25L215.516,64.761L217.239,66.146L218.967,65.238L220.69,63.616L222.413,63.908L224.136,65.836L225.864,68.104L227.587,65.339L229.31,63.26L231.033,63.005L232.761,62.612L234.484,63.072L236.207,61.796L237.93,59.524L239.657,59.429L241.38,63.122L243.103,61.386L244.826,58.335L246.554,56.604L248.277,53.536L250,53.705L251.723,53.615L253.451,53.72L255.174,51.568L256.897,48.362L258.62,47.602L260.347,46.676L262.07,46.639L263.793,45.463L265.516,43.558L267.244,41.154L268.967,37.365L270.69,35.084L272.413,34.874L274.141,33.214L275.864,32.268L277.587,32.034L279.31,30.214L281.038,28.47L282.761,27.242L284.484,25L286.207,22.881L287.934,22.418L289.657,21.452L291.38,19.319L293.103,17.086L294.831,14.067L296.554,12.186L298.277,12.308L300,12.11" stroke="#4c78a8" stroke-width="2"/>
            </ns1:g>
            <ns1:g class="mark-group role-title">
              <ns1:g transform="translate(-2,-39)">
                <ns1:path class="background" aria-hidden="true" d="M0,0h0v0h0Z" pointer-events="none"/>
                <ns1:g>
                  <ns1:g class="mark-text role-title-text" role="graphics-symbol" aria-roledescription="title" aria-label="Title text 'Podíl ženských autorek na nově vydaných původních českých knihách všech žánrů'" pointer-events="none">
                    <ns1:text text-anchor="start" transform="translate(0,-1)" font-family="Noticia Text" font-size="14px" font-weight="bolder" fill="#000" opacity="1">
                      <ns1:tspan>Podíl ženských autorek na nově vydaných</ns1:tspan>
                      <ns1:tspan x="0" dy="21">původních českých knihách všech žánrů</ns1:tspan>
                    </ns1:text>
                  </ns1:g>
                </ns1:g>
                <ns1:path class="foreground" aria-hidden="true" d="" pointer-events="none" display="none"/>
              </ns1:g>
            </ns1:g>
          </ns1:g>
          <ns1:path class="foreground" aria-hidden="true" d="" display="none"/>
        </ns1:g>
      </ns1:g>
    </ns1:g>
  </g>
  <g transform="translate(30,178)">
    <ns0:rect xmlns:ns0="http://www.w3.org/2000/svg" width="310" height="40" fill="white"/>
    <ns1:g xmlns:ns1="http://www.w3.org/2000/svg" fill="none" stroke-miterlimit="10" transform="translate(5,5)">
      <ns1:g class="mark-group role-frame root" role="graphics-object" aria-roledescription="group mark container">
        <ns1:g transform="translate(0,0)">
          <ns1:path class="background" aria-hidden="true" d="M0.5,0.5h300v30h-300Z"/>
          <ns1:g>
            <ns1:g class="mark-text role-mark marks" role="graphics-object" aria-roledescription="text mark container">
              <ns1:text aria-label="text: data: Národní knihovna, Wikidata ~ vizualizace: iROZHLAS.cz ~ 2025" role="graphics-symbol" aria-roledescription="text mark" text-anchor="end" transform="translate(300,12)" font-family="Asap" font-size="10px" fill="black">data: Národní knihovna, Wikidata ~ vizualizace: iROZHLAS.cz ~ 2025</ns1:text>
            </ns1:g>
          </ns1:g>
          <ns1:path class="foreground" aria-hidden="true" d="" display="none"/>
        </ns1:g>
      </ns1:g>
    </ns1:g>
  </g>
</svg>
