<svg xmlns="http://www.w3.org/2000/svg" xmlns:xlink="http://www.w3.org/1999/xlink" version="1.1" class="marks" width="380" height="478" viewBox="0 0 380 478"><rect width="380" height="478" fill="white"/><g fill="none" stroke-miterlimit="10" transform="translate(49,41)"><g class="mark-group role-frame root" role="graphics-object" aria-roledescription="group mark container"><g transform="translate(0,0)"><path class="background" aria-hidden="true" d="M0,0h0v0h0Z"/><g><g class="mark-group role-scope concat_0_group" role="graphics-object" aria-roledescription="group mark container"><g transform="translate(0,0)"><path class="background" aria-hidden="true" d="M0,0h0v0h0Z"/><g><g class="mark-group role-row-header concat_0_row_header" role="graphics-object" aria-roledescription="group mark container"><g transform="translate(-2,0)"><path class="background" aria-hidden="true" d="M0,0h0v100h0Z"/><g><g class="mark-group role-title"><g transform="translate(-41.98999786376953,50)"><path class="background" aria-hidden="true" d="M0,0h0v0h0Z" pointer-events="none"/><g><g class="mark-text role-title-text" role="graphics-symbol" aria-roledescription="title" aria-label="Title text 'celkem'" pointer-events="none"><text text-anchor="start" transform="translate(0,3)" font-family="Asap" font-size="10px" fill="#000" opacity="1">celkem</text></g></g><path class="foreground" aria-hidden="true" d="" pointer-events="none" display="none"/></g></g></g><path class="foreground" aria-hidden="true" d="" display="none"/></g><g transform="translate(-2,134)"><path class="background" aria-hidden="true" d="M0,0h0v100h0Z"/><g><g class="mark-group role-title"><g transform="translate(-31.360000610351562,50)"><path class="background" aria-hidden="true" d="M0,0h0v0h0Z" pointer-events="none"/><g><g class="mark-text role-title-text" role="graphics-symbol" aria-roledescription="title" aria-label="Title text 'nová'" pointer-events="none"><text text-anchor="start" transform="translate(0,3)" font-family="Asap" font-size="10px" fill="#000" opacity="1">nová</text></g></g><path class="foreground" aria-hidden="true" d="" pointer-events="none" display="none"/></g></g></g><path class="foreground" aria-hidden="true" d="" display="none"/></g><g transform="translate(-2,273)"><path class="background" aria-hidden="true" d="M0,0h0v100h0Z"/><g><g class="mark-group role-title"><g transform="translate(-41.16999816894531,50)"><path class="background" aria-hidden="true" d="M0,0h0v0h0Z" pointer-events="none"/><g><g class="mark-text role-title-text" role="graphics-symbol" aria-roledescription="title" aria-label="Title text 'končící'" pointer-events="none"><text text-anchor="start" transform="translate(0,3)" font-family="Asap" font-size="10px" fill="#000" opacity="1">končící</text></g></g><path class="foreground" aria-hidden="true" d="" pointer-events="none" display="none"/></g></g></g><path class="foreground" aria-hidden="true" d="" display="none"/></g></g><g class="mark-group role-scope concat_0_cell" role="graphics-object" aria-roledescription="group mark container"><g transform="translate(0,0)"><path class="background" aria-hidden="true" d="M0.5,0.5h300v100h-300Z" stroke="#ddd"/><g><g class="mark-group role-axis" aria-hidden="true"><g transform="translate(0.5,100.5)"><path class="background" aria-hidden="true" d="M0,0h0v0h0Z" pointer-events="none"/><g><g class="mark-rule role-axis-grid" pointer-events="none"><line transform="translate(0,-100)" x2="0" y2="100" stroke="#ddd" stroke-width="1" opacity="1"/><line transform="translate(30,-100)" x2="0" y2="100" stroke="#ddd" stroke-width="1" opacity="1"/><line transform="translate(60,-100)" x2="0" y2="100" stroke="#ddd" stroke-width="1" opacity="1"/><line transform="translate(90,-100)" x2="0" y2="100" stroke="#ddd" stroke-width="1" opacity="1"/><line transform="translate(120,-100)" x2="0" y2="100" stroke="#ddd" stroke-width="1" opacity="1"/><line transform="translate(150,-100)" x2="0" y2="100" stroke="#ddd" stroke-width="1" opacity="1"/><line transform="translate(180,-100)" x2="0" y2="100" stroke="#ddd" stroke-width="1" opacity="1"/><line transform="translate(210,-100)" x2="0" y2="100" stroke="#ddd" stroke-width="1" opacity="1"/><line transform="translate(240,-100)" x2="0" y2="100" stroke="#ddd" stroke-width="1" opacity="1"/><line transform="translate(270,-100)" x2="0" y2="100" stroke="#ddd" stroke-width="1" opacity="1"/><line transform="translate(300,-100)" x2="0" y2="100" stroke="#ddd" stroke-width="1" opacity="1"/></g></g><path class="foreground" aria-hidden="true" d="" pointer-events="none" display="none"/></g></g><g class="mark-group role-axis" aria-hidden="true"><g transform="translate(300.5,0.5)"><path class="background" aria-hidden="true" d="M0,0h0v0h0Z" pointer-events="none"/><g><g class="mark-rule role-axis-grid" pointer-events="none"><line transform="translate(0,100)" x2="-300" y2="0" stroke="#ddd" stroke-width="1" opacity="1"/><line transform="translate(0,75)" x2="-300" y2="0" stroke="#ddd" stroke-width="1" opacity="1"/><line transform="translate(0,50)" x2="-300" y2="0" stroke="#ddd" stroke-width="1" opacity="1"/><line transform="translate(0,25)" x2="-300" y2="0" stroke="#ddd" stroke-width="1" opacity="1"/><line transform="translate(0,0)" x2="-300" y2="0" stroke="#ddd" stroke-width="1" opacity="1"/></g></g><path class="foreground" aria-hidden="true" d="" pointer-events="none" display="none"/></g></g><g class="mark-group role-axis" role="graphics-symbol" aria-roledescription="axis" aria-label="X-axis for a time scale with values from Thursday, 01 January 1920, 12:00:00 AM to Wednesday, 01 January 2020, 12:00:00 AM"><g transform="translate(0.5,100.5)"><path class="background" aria-hidden="true" d="M0,0h0v0h0Z" pointer-events="none"/><g><g class="mark-rule role-axis-tick" pointer-events="none"><line transform="translate(0,0)" x2="0" y2="5" stroke="#DCDDD6" stroke-width="1" opacity="1"/><line transform="translate(30,0)" x2="0" y2="5" stroke="#DCDDD6" stroke-width="1" opacity="1"/><line transform="translate(60,0)" x2="0" y2="5" stroke="#DCDDD6" stroke-width="1" opacity="1"/><line transform="translate(90,0)" x2="0" y2="5" stroke="#DCDDD6" stroke-width="1" opacity="1"/><line transform="translate(120,0)" x2="0" y2="5" stroke="#DCDDD6" stroke-width="1" opacity="1"/><line transform="translate(150,0)" x2="0" y2="5" stroke="#DCDDD6" stroke-width="1" opacity="1"/><line transform="translate(180,0)" x2="0" y2="5" stroke="#DCDDD6" stroke-width="1" opacity="1"/><line transform="translate(210,0)" x2="0" y2="5" stroke="#DCDDD6" stroke-width="1" opacity="1"/><line transform="translate(240,0)" x2="0" y2="5" stroke="#DCDDD6" stroke-width="1" opacity="1"/><line transform="translate(270,0)" x2="0" y2="5" stroke="#DCDDD6" stroke-width="1" opacity="1"/><line transform="translate(300,0)" x2="0" y2="5" stroke="#DCDDD6" stroke-width="1" opacity="1"/></g><g class="mark-text role-axis-label" pointer-events="none"><text text-anchor="start" transform="translate(0,15)" font-family="Asap" font-size="10px" fill="#000" opacity="1">1920</text><text text-anchor="middle" transform="translate(30.0041067761807,15)" font-family="Asap" font-size="10px" fill="#000" opacity="0">1930</text><text text-anchor="middle" transform="translate(60,15)" font-family="Asap" font-size="10px" fill="#000" opacity="1">1940</text><text text-anchor="middle" transform="translate(90.0041067761807,15)" font-family="Asap" font-size="10px" fill="#000" opacity="0">1950</text><text text-anchor="middle" transform="translate(120,15)" font-family="Asap" font-size="10px" fill="#000" opacity="1">1960</text><text text-anchor="middle" transform="translate(150.0041067761807,15)" font-family="Asap" font-size="10px" fill="#000" opacity="0">1970</text><text text-anchor="middle" transform="translate(180,15)" font-family="Asap" font-size="10px" fill="#000" opacity="1">1980</text><text text-anchor="middle" transform="translate(210.00410677618072,15)" font-family="Asap" font-size="10px" fill="#000" opacity="0">1990</text><text text-anchor="middle" transform="translate(240,15)" font-family="Asap" font-size="10px" fill="#000" opacity="1">2000</text><text text-anchor="middle" transform="translate(270.0041067761807,15)" font-family="Asap" font-size="10px" fill="#000" opacity="0">2010</text><text text-anchor="end" transform="translate(300,15)" font-family="Asap" font-size="10px" fill="#000" opacity="1">2020</text></g><g class="mark-rule role-axis-domain" pointer-events="none"><line transform="translate(0,0)" x2="300" y2="0" stroke="#888" stroke-opacity="0" stroke-width="1" opacity="1"/></g></g><path class="foreground" aria-hidden="true" d="" pointer-events="none" display="none"/></g></g><g class="mark-group role-axis" role="graphics-symbol" aria-roledescription="axis" aria-label="Y-axis for a linear scale with values from 0k to 2k"><g transform="translate(300.5,0.5)"><path class="background" aria-hidden="true" d="M0,0h0v0h0Z" pointer-events="none"/><g><g class="mark-rule role-axis-tick" pointer-events="none"><line transform="translate(0,100)" x2="5" y2="0" stroke="#DCDDD6" stroke-width="1" opacity="1"/><line transform="translate(0,75)" x2="5" y2="0" stroke="#DCDDD6" stroke-width="1" opacity="1"/><line transform="translate(0,50)" x2="5" y2="0" stroke="#DCDDD6" stroke-width="1" opacity="1"/><line transform="translate(0,25)" x2="5" y2="0" stroke="#DCDDD6" stroke-width="1" opacity="1"/><line transform="translate(0,0)" x2="5" y2="0" stroke="#DCDDD6" stroke-width="1" opacity="1"/></g><g class="mark-text role-axis-label" pointer-events="none"><text text-anchor="start" transform="translate(7,103)" font-family="Asap" font-size="10px" fill="#000" opacity="1">0k</text><text text-anchor="start" transform="translate(7,78)" font-family="Asap" font-size="10px" fill="#000" opacity="1">0.5k</text><text text-anchor="start" transform="translate(7,53)" font-family="Asap" font-size="10px" fill="#000" opacity="1">1k</text><text text-anchor="start" transform="translate(7,28)" font-family="Asap" font-size="10px" fill="#000" opacity="1">1.5k</text><text text-anchor="start" transform="translate(7,3)" font-family="Asap" font-size="10px" fill="#000" opacity="1">2k</text></g><g class="mark-rule role-axis-domain" pointer-events="none"><line transform="translate(0,100)" x2="0" y2="-100" stroke="#888" stroke-opacity="0" stroke-width="1" opacity="1"/></g></g><path class="foreground" aria-hidden="true" d="" pointer-events="none" display="none"/></g></g><g class="mark-group role-scope concat_0_child_pathgroup" role="graphics-object" aria-roledescription="group mark container"><g transform="translate(0,0)"><path class="background" aria-hidden="true" d="M0,0h300v100h-300Z"/><g><g class="mark-area role-mark concat_0_child_marks" role="graphics-object" aria-roledescription="area mark container"><path aria-label="rok: Jan 01, 1920; value: 815; variable: celkem" role="graphics-symbol" aria-roledescription="area mark" d="M0,59.25L3.006,62.1L6.004,56.7L9.002,54.45L12,51.75L15.006,51.65L18.004,59.55L21.002,58.55L24,56.1L27.006,58.15L30.004,53.95L33.002,59.7L36,61.75L39.006,61.6L42.004,60.9L45.002,57.65L48,55.8L51.006,55.1L54.004,58.8L57.002,66.8L60,64.05L63.006,66.55L66.004,77.9L69.002,82.7L72,80.45L75.006,73.65L78.004,60.5L81.002,61.5L84,66.75L87.006,81.95L90.004,89.55L93.002,90.7L96,91.95L99.006,91.7L102.004,90.9L105.002,89.8L108,88.85L111.006,88.75L114.004,89.25L117.002,88.6L120,87.55L123.006,88.75L126.004,87.45L129.002,88L132,87.1L135.006,85.6L138.004,84.5L141.002,83.25L144,81.75L147.006,82L150.004,81.05L153.002,82.35L156,83.6L159.006,83.4L162.004,84.6L165.002,84.6L168,83.35L171.006,83.3L174.004,82.75L177.002,80.45L180,80.3L183.006,79.4L186.004,79.15L189.002,78.3L192,79.4L195.006,78.85L198.004,78.2L201.002,78.85L204,77.85L207.006,76.7L210.004,66.7L213.002,54.2L216,50.4L219.006,49.2L222.004,47L225.002,39.05L228,40.35L231.006,36.45L234.004,34.1L237.002,30.25L240,26.8L243.006,26.4L246.004,24.1L249.002,24.4L252,23.7L255.006,22.45L258.004,17.9L261.002,12.45L264,9.85L267.006,11.7L270.004,7.2L273.002,10.7L276,11.3L279.006,12L282.004,7.75L285.002,0.9L288,5.85L291.006,6.45L294.004,4.8L297.002,8.95L300,13.15L300,100L297.002,100L294.004,100L291.006,100L288,100L285.002,100L282.004,100L279.006,100L276,100L273.002,100L270.004,100L267.006,100L264,100L261.002,100L258.004,100L255.006,100L252,100L249.002,100L246.004,100L243.006,100L240,100L237.002,100L234.004,100L231.006,100L228,100L225.002,100L222.004,100L219.006,100L216,100L213.002,100L210.004,100L207.006,100L204,100L201.002,100L198.004,100L195.006,100L192,100L189.002,100L186.004,100L183.006,100L180,100L177.002,100L174.004,100L171.006,100L168,100L165.002,100L162.004,100L159.006,100L156,100L153.002,100L150.004,100L147.006,100L144,100L141.002,100L138.004,100L135.006,100L132,100L129.002,100L126.004,100L123.006,100L120,100L117.002,100L114.004,100L111.006,100L108,100L105.002,100L102.004,100L99.006,100L96,100L93.002,100L90.004,100L87.006,100L84,100L81.002,100L78.004,100L75.006,100L72,100L69.002,100L66.004,100L63.006,100L60,100L57.002,100L54.004,100L51.006,100L48,100L45.002,100L42.004,100L39.006,100L36,100L33.002,100L30.004,100L27.006,100L24,100L21.002,100L18.004,100L15.006,100L12,100L9.002,100L6.004,100L3.006,100L0,100Z" fill="#D55F50"/></g></g><path class="foreground" aria-hidden="true" d="" display="none"/></g></g></g><path class="foreground" aria-hidden="true" d="" display="none"/></g><g transform="translate(0,134)"><path class="background" aria-hidden="true" d="M0.5,0.5h300v100h-300Z" stroke="#ddd"/><g><g class="mark-group role-axis" aria-hidden="true"><g transform="translate(0.5,100.5)"><path class="background" aria-hidden="true" d="M0,0h0v0h0Z" pointer-events="none"/><g><g class="mark-rule role-axis-grid" pointer-events="none"><line transform="translate(0,-100)" x2="0" y2="100" stroke="#ddd" stroke-width="1" opacity="1"/><line transform="translate(30,-100)" x2="0" y2="100" stroke="#ddd" stroke-width="1" opacity="1"/><line transform="translate(60,-100)" x2="0" y2="100" stroke="#ddd" stroke-width="1" opacity="1"/><line transform="translate(90,-100)" x2="0" y2="100" stroke="#ddd" stroke-width="1" opacity="1"/><line transform="translate(120,-100)" x2="0" y2="100" stroke="#ddd" stroke-width="1" opacity="1"/><line transform="translate(150,-100)" x2="0" y2="100" stroke="#ddd" stroke-width="1" opacity="1"/><line transform="translate(180,-100)" x2="0" y2="100" stroke="#ddd" stroke-width="1" opacity="1"/><line transform="translate(210,-100)" x2="0" y2="100" stroke="#ddd" stroke-width="1" opacity="1"/><line transform="translate(240,-100)" x2="0" y2="100" stroke="#ddd" stroke-width="1" opacity="1"/><line transform="translate(270,-100)" x2="0" y2="100" stroke="#ddd" stroke-width="1" opacity="1"/><line transform="translate(300,-100)" x2="0" y2="100" stroke="#ddd" stroke-width="1" opacity="1"/></g></g><path class="foreground" aria-hidden="true" d="" pointer-events="none" display="none"/></g></g><g class="mark-group role-axis" aria-hidden="true"><g transform="translate(300.5,0.5)"><path class="background" aria-hidden="true" d="M0,0h0v0h0Z" pointer-events="none"/><g><g class="mark-rule role-axis-grid" pointer-events="none"><line transform="translate(0,100)" x2="-300" y2="0" stroke="#ddd" stroke-width="1" opacity="1"/><line transform="translate(0,56)" x2="-300" y2="0" stroke="#ddd" stroke-width="1" opacity="1"/><line transform="translate(0,11)" x2="-300" y2="0" stroke="#ddd" stroke-width="1" opacity="1"/></g></g><path class="foreground" aria-hidden="true" d="" pointer-events="none" display="none"/></g></g><g class="mark-group role-axis" role="graphics-symbol" aria-roledescription="axis" aria-label="X-axis for a time scale with values from Thursday, 01 January 1920, 12:00:00 AM to Wednesday, 01 January 2020, 12:00:00 AM"><g transform="translate(0.5,100.5)"><path class="background" aria-hidden="true" d="M0,0h0v0h0Z" pointer-events="none"/><g><g class="mark-rule role-axis-tick" pointer-events="none"><line transform="translate(0,0)" x2="0" y2="5" stroke="#DCDDD6" stroke-width="1" opacity="1"/><line transform="translate(30,0)" x2="0" y2="5" stroke="#DCDDD6" stroke-width="1" opacity="1"/><line transform="translate(60,0)" x2="0" y2="5" stroke="#DCDDD6" stroke-width="1" opacity="1"/><line transform="translate(90,0)" x2="0" y2="5" stroke="#DCDDD6" stroke-width="1" opacity="1"/><line transform="translate(120,0)" x2="0" y2="5" stroke="#DCDDD6" stroke-width="1" opacity="1"/><line transform="translate(150,0)" x2="0" y2="5" stroke="#DCDDD6" stroke-width="1" opacity="1"/><line transform="translate(180,0)" x2="0" y2="5" stroke="#DCDDD6" stroke-width="1" opacity="1"/><line transform="translate(210,0)" x2="0" y2="5" stroke="#DCDDD6" stroke-width="1" opacity="1"/><line transform="translate(240,0)" x2="0" y2="5" stroke="#DCDDD6" stroke-width="1" opacity="1"/><line transform="translate(270,0)" x2="0" y2="5" stroke="#DCDDD6" stroke-width="1" opacity="1"/><line transform="translate(300,0)" x2="0" y2="5" stroke="#DCDDD6" stroke-width="1" opacity="1"/></g><g class="mark-text role-axis-label" pointer-events="none"><text text-anchor="start" transform="translate(0,15)" font-family="Asap" font-size="10px" fill="#000" opacity="1">1920</text><text text-anchor="middle" transform="translate(30.0041067761807,15)" font-family="Asap" font-size="10px" fill="#000" opacity="0">1930</text><text text-anchor="middle" transform="translate(60,15)" font-family="Asap" font-size="10px" fill="#000" opacity="1">1940</text><text text-anchor="middle" transform="translate(90.0041067761807,15)" font-family="Asap" font-size="10px" fill="#000" opacity="0">1950</text><text text-anchor="middle" transform="translate(120,15)" font-family="Asap" font-size="10px" fill="#000" opacity="1">1960</text><text text-anchor="middle" transform="translate(150.0041067761807,15)" font-family="Asap" font-size="10px" fill="#000" opacity="0">1970</text><text text-anchor="middle" transform="translate(180,15)" font-family="Asap" font-size="10px" fill="#000" opacity="1">1980</text><text text-anchor="middle" transform="translate(210.00410677618072,15)" font-family="Asap" font-size="10px" fill="#000" opacity="0">1990</text><text text-anchor="middle" transform="translate(240,15)" font-family="Asap" font-size="10px" fill="#000" opacity="1">2000</text><text text-anchor="middle" transform="translate(270.0041067761807,15)" font-family="Asap" font-size="10px" fill="#000" opacity="0">2010</text><text text-anchor="end" transform="translate(300,15)" font-family="Asap" font-size="10px" fill="#000" opacity="1">2020</text></g><g class="mark-rule role-axis-domain" pointer-events="none"><line transform="translate(0,0)" x2="300" y2="0" stroke="#888" stroke-opacity="0" stroke-width="1" opacity="1"/></g></g><path class="foreground" aria-hidden="true" d="" pointer-events="none" display="none"/></g></g><g class="mark-group role-axis" role="graphics-symbol" aria-roledescription="axis" aria-label="Y-axis for a linear scale with values from 0 to 450"><g transform="translate(300.5,0.5)"><path class="background" aria-hidden="true" d="M0,0h0v0h0Z" pointer-events="none"/><g><g class="mark-rule role-axis-tick" pointer-events="none"><line transform="translate(0,100)" x2="5" y2="0" stroke="#DCDDD6" stroke-width="1" opacity="1"/><line transform="translate(0,56)" x2="5" y2="0" stroke="#DCDDD6" stroke-width="1" opacity="1"/><line transform="translate(0,11)" x2="5" y2="0" stroke="#DCDDD6" stroke-width="1" opacity="1"/></g><g class="mark-text role-axis-label" pointer-events="none"><text text-anchor="start" transform="translate(7,103)" font-family="Asap" font-size="10px" fill="#000" opacity="1">0</text><text text-anchor="start" transform="translate(7,58.55555555555556)" font-family="Asap" font-size="10px" fill="#000" opacity="1">200</text><text text-anchor="start" transform="translate(7,14.111111111111116)" font-family="Asap" font-size="10px" fill="#000" opacity="1">400</text></g><g class="mark-rule role-axis-domain" pointer-events="none"><line transform="translate(0,100)" x2="0" y2="-100" stroke="#888" stroke-opacity="0" stroke-width="1" opacity="1"/></g></g><path class="foreground" aria-hidden="true" d="" pointer-events="none" display="none"/></g></g><g class="mark-group role-scope concat_0_child_pathgroup" role="graphics-object" aria-roledescription="group mark container"><g transform="translate(0,0)"><path class="background" aria-hidden="true" d="M0,0h300v100h-300Z"/><g><g class="mark-area role-mark concat_0_child_marks" role="graphics-object" aria-roledescription="area mark container"><path aria-label="rok: Jan 01, 1920; value: 238; variable: nová" role="graphics-symbol" aria-roledescription="area mark" d="M0,47.111L3.006,66.444L6.004,59.778L9.002,58.444L12,65.111L15.006,67.333L18.004,70.444L21.002,66.667L24,68.667L27.006,71.778L30.004,68L33.002,72.667L36,76L39.006,76.444L42.004,76L45.002,68.444L48,76.444L51.006,76.444L54.004,85.556L57.002,80.444L60,76.889L63.006,83.556L66.004,88.889L69.002,92.222L72,92.667L75.006,80.667L78.004,70.889L81.002,81.333L84,88.667L87.006,81.111L90.004,86.889L93.002,87.333L96,90.889L99.006,88.222L102.004,90L105.002,89.778L108,88.222L111.006,89.111L114.004,90.667L117.002,87.556L120,87.111L123.006,88.667L126.004,88L129.002,93.556L132,88L135.006,87.111L138.004,87.333L141.002,81.111L144,85.556L147.006,83.556L150.004,84.667L153.002,90.444L156,90.222L159.006,90.889L162.004,92L165.002,92.222L168,90L171.006,92.667L174.004,91.778L177.002,89.333L180,91.333L183.006,88.667L186.004,88.222L189.002,88.889L192,92.222L195.006,92.667L198.004,91.778L201.002,95.778L204,93.556L207.006,89.778L210.004,39.333L213.002,14.889L216,36L219.006,37.333L222.004,45.111L225.002,39.333L228,55.333L231.006,52.667L234.004,52.667L237.002,47.111L240,44.667L243.006,48.667L246.004,45.111L249.002,40.667L252,52L255.006,43.778L258.004,42.889L261.002,33.556L264,41.778L267.006,44.889L270.004,46.667L273.002,54.889L276,51.333L279.006,58L282.004,44.667L285.002,8.222L288,39.556L291.006,47.333L294.004,59.333L297.002,64.667L300,68.444L300,100L297.002,100L294.004,100L291.006,100L288,100L285.002,100L282.004,100L279.006,100L276,100L273.002,100L270.004,100L267.006,100L264,100L261.002,100L258.004,100L255.006,100L252,100L249.002,100L246.004,100L243.006,100L240,100L237.002,100L234.004,100L231.006,100L228,100L225.002,100L222.004,100L219.006,100L216,100L213.002,100L210.004,100L207.006,100L204,100L201.002,100L198.004,100L195.006,100L192,100L189.002,100L186.004,100L183.006,100L180,100L177.002,100L174.004,100L171.006,100L168,100L165.002,100L162.004,100L159.006,100L156,100L153.002,100L150.004,100L147.006,100L144,100L141.002,100L138.004,100L135.006,100L132,100L129.002,100L126.004,100L123.006,100L120,100L117.002,100L114.004,100L111.006,100L108,100L105.002,100L102.004,100L99.006,100L96,100L93.002,100L90.004,100L87.006,100L84,100L81.002,100L78.004,100L75.006,100L72,100L69.002,100L66.004,100L63.006,100L60,100L57.002,100L54.004,100L51.006,100L48,100L45.002,100L42.004,100L39.006,100L36,100L33.002,100L30.004,100L27.006,100L24,100L21.002,100L18.004,100L15.006,100L12,100L9.002,100L6.004,100L3.006,100L0,100Z" fill="#9CA545"/></g></g><path class="foreground" aria-hidden="true" d="" display="none"/></g></g></g><path class="foreground" aria-hidden="true" d="" display="none"/></g><g transform="translate(0,273)"><path class="background" aria-hidden="true" d="M0.5,0.5h300v100h-300Z" stroke="#ddd"/><g><g class="mark-group role-axis" aria-hidden="true"><g transform="translate(0.5,100.5)"><path class="background" aria-hidden="true" d="M0,0h0v0h0Z" pointer-events="none"/><g><g class="mark-rule role-axis-grid" pointer-events="none"><line transform="translate(0,-100)" x2="0" y2="100" stroke="#ddd" stroke-width="1" opacity="1"/><line transform="translate(30,-100)" x2="0" y2="100" stroke="#ddd" stroke-width="1" opacity="1"/><line transform="translate(60,-100)" x2="0" y2="100" stroke="#ddd" stroke-width="1" opacity="1"/><line transform="translate(90,-100)" x2="0" y2="100" stroke="#ddd" stroke-width="1" opacity="1"/><line transform="translate(120,-100)" x2="0" y2="100" stroke="#ddd" stroke-width="1" opacity="1"/><line transform="translate(150,-100)" x2="0" y2="100" stroke="#ddd" stroke-width="1" opacity="1"/><line transform="translate(180,-100)" x2="0" y2="100" stroke="#ddd" stroke-width="1" opacity="1"/><line transform="translate(210,-100)" x2="0" y2="100" stroke="#ddd" stroke-width="1" opacity="1"/><line transform="translate(240,-100)" x2="0" y2="100" stroke="#ddd" stroke-width="1" opacity="1"/><line transform="translate(270,-100)" x2="0" y2="100" stroke="#ddd" stroke-width="1" opacity="1"/><line transform="translate(300,-100)" x2="0" y2="100" stroke="#ddd" stroke-width="1" opacity="1"/></g></g><path class="foreground" aria-hidden="true" d="" pointer-events="none" display="none"/></g></g><g class="mark-group role-axis" aria-hidden="true"><g transform="translate(300.5,0.5)"><path class="background" aria-hidden="true" d="M0,0h0v0h0Z" pointer-events="none"/><g><g class="mark-rule role-axis-grid" pointer-events="none"><line transform="translate(0,100)" x2="-300" y2="0" stroke="#ddd" stroke-width="1" opacity="1"/><line transform="translate(0,75)" x2="-300" y2="0" stroke="#ddd" stroke-width="1" opacity="1"/><line transform="translate(0,50)" x2="-300" y2="0" stroke="#ddd" stroke-width="1" opacity="1"/><line transform="translate(0,25)" x2="-300" y2="0" stroke="#ddd" stroke-width="1" opacity="1"/><line transform="translate(0,0)" x2="-300" y2="0" stroke="#ddd" stroke-width="1" opacity="1"/></g></g><path class="foreground" aria-hidden="true" d="" pointer-events="none" display="none"/></g></g><g class="mark-group role-axis" role="graphics-symbol" aria-roledescription="axis" aria-label="X-axis for a time scale with values from Thursday, 01 January 1920, 12:00:00 AM to Wednesday, 01 January 2020, 12:00:00 AM"><g transform="translate(0.5,100.5)"><path class="background" aria-hidden="true" d="M0,0h0v0h0Z" pointer-events="none"/><g><g class="mark-rule role-axis-tick" pointer-events="none"><line transform="translate(0,0)" x2="0" y2="5" stroke="#DCDDD6" stroke-width="1" opacity="1"/><line transform="translate(30,0)" x2="0" y2="5" stroke="#DCDDD6" stroke-width="1" opacity="1"/><line transform="translate(60,0)" x2="0" y2="5" stroke="#DCDDD6" stroke-width="1" opacity="1"/><line transform="translate(90,0)" x2="0" y2="5" stroke="#DCDDD6" stroke-width="1" opacity="1"/><line transform="translate(120,0)" x2="0" y2="5" stroke="#DCDDD6" stroke-width="1" opacity="1"/><line transform="translate(150,0)" x2="0" y2="5" stroke="#DCDDD6" stroke-width="1" opacity="1"/><line transform="translate(180,0)" x2="0" y2="5" stroke="#DCDDD6" stroke-width="1" opacity="1"/><line transform="translate(210,0)" x2="0" y2="5" stroke="#DCDDD6" stroke-width="1" opacity="1"/><line transform="translate(240,0)" x2="0" y2="5" stroke="#DCDDD6" stroke-width="1" opacity="1"/><line transform="translate(270,0)" x2="0" y2="5" stroke="#DCDDD6" stroke-width="1" opacity="1"/><line transform="translate(300,0)" x2="0" y2="5" stroke="#DCDDD6" stroke-width="1" opacity="1"/></g><g class="mark-text role-axis-label" pointer-events="none"><text text-anchor="start" transform="translate(0,15)" font-family="Asap" font-size="10px" fill="#000" opacity="1">1920</text><text text-anchor="middle" transform="translate(30.0041067761807,15)" font-family="Asap" font-size="10px" fill="#000" opacity="0">1930</text><text text-anchor="middle" transform="translate(60,15)" font-family="Asap" font-size="10px" fill="#000" opacity="1">1940</text><text text-anchor="middle" transform="translate(90.0041067761807,15)" font-family="Asap" font-size="10px" fill="#000" opacity="0">1950</text><text text-anchor="middle" transform="translate(120,15)" font-family="Asap" font-size="10px" fill="#000" opacity="1">1960</text><text text-anchor="middle" transform="translate(150.0041067761807,15)" font-family="Asap" font-size="10px" fill="#000" opacity="0">1970</text><text text-anchor="middle" transform="translate(180,15)" font-family="Asap" font-size="10px" fill="#000" opacity="1">1980</text><text text-anchor="middle" transform="translate(210.00410677618072,15)" font-family="Asap" font-size="10px" fill="#000" opacity="0">1990</text><text text-anchor="middle" transform="translate(240,15)" font-family="Asap" font-size="10px" fill="#000" opacity="1">2000</text><text text-anchor="middle" transform="translate(270.0041067761807,15)" font-family="Asap" font-size="10px" fill="#000" opacity="0">2010</text><text text-anchor="end" transform="translate(300,15)" font-family="Asap" font-size="10px" fill="#000" opacity="1">2020</text></g><g class="mark-rule role-axis-domain" pointer-events="none"><line transform="translate(0,0)" x2="300" y2="0" stroke="#888" stroke-opacity="0" stroke-width="1" opacity="1"/></g></g><path class="foreground" aria-hidden="true" d="" pointer-events="none" display="none"/></g></g><g class="mark-group role-axis" role="graphics-symbol" aria-roledescription="axis" aria-label="Y-axis for a linear scale with values from 0 to 400"><g transform="translate(300.5,0.5)"><path class="background" aria-hidden="true" d="M0,0h0v0h0Z" pointer-events="none"/><g><g class="mark-rule role-axis-tick" pointer-events="none"><line transform="translate(0,100)" x2="5" y2="0" stroke="#DCDDD6" stroke-width="1" opacity="1"/><line transform="translate(0,75)" x2="5" y2="0" stroke="#DCDDD6" stroke-width="1" opacity="1"/><line transform="translate(0,50)" x2="5" y2="0" stroke="#DCDDD6" stroke-width="1" opacity="1"/><line transform="translate(0,25)" x2="5" y2="0" stroke="#DCDDD6" stroke-width="1" opacity="1"/><line transform="translate(0,0)" x2="5" y2="0" stroke="#DCDDD6" stroke-width="1" opacity="1"/></g><g class="mark-text role-axis-label" pointer-events="none"><text text-anchor="start" transform="translate(7,103)" font-family="Asap" font-size="10px" fill="#000" opacity="1">0</text><text text-anchor="start" transform="translate(7,78)" font-family="Asap" font-size="10px" fill="#000" opacity="1">100</text><text text-anchor="start" transform="translate(7,53)" font-family="Asap" font-size="10px" fill="#000" opacity="1">200</text><text text-anchor="start" transform="translate(7,28)" font-family="Asap" font-size="10px" fill="#000" opacity="1">300</text><text text-anchor="start" transform="translate(7,3)" font-family="Asap" font-size="10px" fill="#000" opacity="1">400</text></g><g class="mark-rule role-axis-domain" pointer-events="none"><line transform="translate(0,100)" x2="0" y2="-100" stroke="#888" stroke-opacity="0" stroke-width="1" opacity="1"/></g></g><path class="foreground" aria-hidden="true" d="" pointer-events="none" display="none"/></g></g><g class="mark-group role-scope concat_0_child_pathgroup" role="graphics-object" aria-roledescription="group mark container"><g transform="translate(0,0)"><path class="background" aria-hidden="true" d="M0,0h300v100h-300Z"/><g><g class="mark-area role-mark concat_0_child_marks" role="graphics-object" aria-roledescription="area mark container"><path aria-label="rok: Jan 01, 1920; value: 63; variable: končící" role="graphics-symbol" aria-roledescription="area mark" d="M0,84.25L3.006,77.5L6.004,75.25L9.002,73.5L12,62L15.006,44.75L18.004,74.75L21.002,73L24,69.25L27.006,71.75L30.004,61.75L33.002,66.75L36,75.5L39.006,72L42.004,72.5L45.002,71.25L48,61.5L51.006,52L54.004,42.25L57.002,63.25L60,56.25L63.006,54.25L66.004,82.5L69.002,87L72,82.5L75.006,74L78.004,50.75L81.002,37L84,4.75L87.006,58L90.004,81L93.002,85L96,90.5L99.006,94.25L102.004,95.25L105.002,93.25L108,92.25L111.006,90.75L114.004,91.5L117.002,93.75L120,88.25L123.006,94.25L126.004,92.25L129.002,91L132,93.25L135.006,94.25L138.004,90L141.002,90.5L144,87L147.006,89.25L150.004,88.75L153.002,91L156,90.5L159.006,93L162.004,92.5L165.002,95.25L168,94.75L171.006,93.25L174.004,95.75L177.002,93L180,91.5L183.006,90.25L186.004,91.75L189.002,88.25L192,91.25L195.006,91.25L198.004,86L201.002,84.25L204,78L207.006,64.5L210.004,63.5L213.002,65.5L216,61.5L219.006,72L222.004,75.75L225.002,72.25L228,71L231.006,71L234.004,69.75L237.002,66.75L240,66.25L243.006,61L246.004,50.75L249.002,60.5L252,59.5L255.006,61.25L258.004,58.75L261.002,55L264,52.75L267.006,50.75L270.004,35.75L273.002,38L276,30.5L279.006,32.75L282.004,3.75L285.002,19.25L288,40.5L291.006,38.75L294.004,14.5L297.002,19L300,16.25L300,100L297.002,100L294.004,100L291.006,100L288,100L285.002,100L282.004,100L279.006,100L276,100L273.002,100L270.004,100L267.006,100L264,100L261.002,100L258.004,100L255.006,100L252,100L249.002,100L246.004,100L243.006,100L240,100L237.002,100L234.004,100L231.006,100L228,100L225.002,100L222.004,100L219.006,100L216,100L213.002,100L210.004,100L207.006,100L204,100L201.002,100L198.004,100L195.006,100L192,100L189.002,100L186.004,100L183.006,100L180,100L177.002,100L174.004,100L171.006,100L168,100L165.002,100L162.004,100L159.006,100L156,100L153.002,100L150.004,100L147.006,100L144,100L141.002,100L138.004,100L135.006,100L132,100L129.002,100L126.004,100L123.006,100L120,100L117.002,100L114.004,100L111.006,100L108,100L105.002,100L102.004,100L99.006,100L96,100L93.002,100L90.004,100L87.006,100L84,100L81.002,100L78.004,100L75.006,100L72,100L69.002,100L66.004,100L63.006,100L60,100L57.002,100L54.004,100L51.006,100L48,100L45.002,100L42.004,100L39.006,100L36,100L33.002,100L30.004,100L27.006,100L24,100L21.002,100L18.004,100L15.006,100L12,100L9.002,100L6.004,100L3.006,100L0,100Z" fill="#ECD410"/></g></g><path class="foreground" aria-hidden="true" d="" display="none"/></g></g></g><path class="foreground" aria-hidden="true" d="" display="none"/></g></g><g class="mark-group role-title"><g transform="translate(-43.98999786376953,-24)"><path class="background" aria-hidden="true" d="M0,0h0v0h0Z" pointer-events="none"/><g><g class="mark-text role-title-text" role="graphics-symbol" aria-roledescription="title" aria-label="Title text 'Kolik různých nakladatelství vydávalo knihy'" pointer-events="none"><text text-anchor="start" transform="translate(0,-1)" font-family="Noticia Text" font-size="14px" font-weight="bolder" fill="#000" opacity="1">Kolik různých nakladatelství vydávalo knihy</text></g></g><path class="foreground" aria-hidden="true" d="" pointer-events="none" display="none"/></g></g></g><path class="foreground" aria-hidden="true" d="" display="none"/></g></g><g class="mark-group role-scope concat_1_group" role="graphics-object" aria-roledescription="group mark container"><g transform="translate(0,412)"><path class="background" aria-hidden="true" d="M0,0h300v20h-300Z"/><g><g class="mark-text role-mark concat_1_marks" role="graphics-object" aria-roledescription="text mark container"><text aria-label="text: zdroj dat: Česká národní bibliografie · vizualizace: iROZHLAS.cz · 2025" role="graphics-symbol" aria-roledescription="text mark" text-anchor="middle" transform="translate(150,7)" font-family="Asap" font-size="10px" fill="black">zdroj dat: Česká národní bibliografie · vizualizace: iROZHLAS.cz · 2025</text></g></g><path class="foreground" aria-hidden="true" d="" display="none"/></g></g></g><path class="foreground" aria-hidden="true" d="" display="none"/></g></g></g></svg>