<svg xmlns="http://www.w3.org/2000/svg" xmlns:xlink="http://www.w3.org/1999/xlink" version="1.1" class="marks" width="343" height="538" viewBox="0 0 343 538"><rect width="343" height="538" fill="white"/><g fill="none" stroke-miterlimit="10" transform="translate(9,36)"><g class="mark-group role-frame root" role="graphics-object" aria-roledescription="group mark container"><g transform="translate(0,0)"><path class="background" aria-hidden="true" d="M0,0h300v0h-300Z"/><g><g class="mark-group role-scope concat_0_group" role="graphics-object" aria-roledescription="group mark container"><g transform="translate(0,0)"><path class="background" aria-hidden="true" d="M0,0h0v0h0Z"/><g><g class="mark-group role-scope concat_0_concat_0_group" role="graphics-object" aria-roledescription="group mark container"><g transform="translate(0,0)"><path class="background" aria-hidden="true" d="M0.5,0.5h300v100h-300Z" stroke="#ddd"/><g><g class="mark-group role-axis" aria-hidden="true"><g transform="translate(0.5,100.5)"><path class="background" aria-hidden="true" d="M0,0h0v0h0Z" pointer-events="none"/><g><g class="mark-rule role-axis-grid" pointer-events="none"><line transform="translate(0,-100)" x2="0" y2="100" stroke="#ddd" stroke-width="1" opacity="1"/><line transform="translate(49,-100)" x2="0" y2="100" stroke="#ddd" stroke-width="1" opacity="1"/><line transform="translate(98,-100)" x2="0" y2="100" stroke="#ddd" stroke-width="1" opacity="1"/><line transform="translate(146,-100)" x2="0" y2="100" stroke="#ddd" stroke-width="1" opacity="1"/><line transform="translate(195,-100)" x2="0" y2="100" stroke="#ddd" stroke-width="1" opacity="1"/><line transform="translate(244,-100)" x2="0" y2="100" stroke="#ddd" stroke-width="1" opacity="1"/><line transform="translate(293,-100)" x2="0" y2="100" stroke="#ddd" stroke-width="1" opacity="1"/></g></g><path class="foreground" aria-hidden="true" d="" pointer-events="none" display="none"/></g></g><g class="mark-group role-axis" aria-hidden="true"><g transform="translate(300.5,0.5)"><path class="background" aria-hidden="true" d="M0,0h0v0h0Z" pointer-events="none"/><g><g class="mark-rule role-axis-grid" pointer-events="none"><line transform="translate(0,100)" x2="-300" y2="0" stroke="#ddd" stroke-width="1" opacity="1"/><line transform="translate(0,72)" x2="-300" y2="0" stroke="#ddd" stroke-width="1" opacity="1"/><line transform="translate(0,44)" x2="-300" y2="0" stroke="#ddd" stroke-width="1" opacity="1"/><line transform="translate(0,17)" x2="-300" y2="0" stroke="#ddd" stroke-width="1" opacity="1"/></g></g><path class="foreground" aria-hidden="true" d="" pointer-events="none" display="none"/></g></g><g class="mark-group role-axis" role="graphics-symbol" aria-roledescription="axis" aria-label="X-axis for a time scale with values from Monday, 01 January 1900, 12:00:00 AM to Sunday, 01 January 2023, 12:00:00 AM"><g transform="translate(0.5,100.5)"><path class="background" aria-hidden="true" d="M0,0h0v0h0Z" pointer-events="none"/><g><g class="mark-rule role-axis-tick" pointer-events="none"><line transform="translate(0,0)" x2="0" y2="5" stroke="#DCDDD6" stroke-width="1" opacity="1"/><line transform="translate(49,0)" x2="0" y2="5" stroke="#DCDDD6" stroke-width="1" opacity="1"/><line transform="translate(98,0)" x2="0" y2="5" stroke="#DCDDD6" stroke-width="1" opacity="1"/><line transform="translate(146,0)" x2="0" y2="5" stroke="#DCDDD6" stroke-width="1" opacity="1"/><line transform="translate(195,0)" x2="0" y2="5" stroke="#DCDDD6" stroke-width="1" opacity="1"/><line transform="translate(244,0)" x2="0" y2="5" stroke="#DCDDD6" stroke-width="1" opacity="1"/><line transform="translate(293,0)" x2="0" y2="5" stroke="#DCDDD6" stroke-width="1" opacity="1"/></g><g class="mark-text role-axis-label" pointer-events="none"><text text-anchor="start" transform="translate(0,15)" font-family="Asap" font-size="10px" fill="#000" opacity="1">1900</text><text text-anchor="middle" transform="translate(48.7746243739566,15)" font-family="Asap" font-size="10px" fill="#000" opacity="1">1920</text><text text-anchor="middle" transform="translate(97.55592654424039,15)" font-family="Asap" font-size="10px" fill="#000" opacity="1">1940</text><text text-anchor="middle" transform="translate(146.3372287145242,15)" font-family="Asap" font-size="10px" fill="#000" opacity="1">1960</text><text text-anchor="middle" transform="translate(195.11853088480802,15)" font-family="Asap" font-size="10px" fill="#000" opacity="1">1980</text><text text-anchor="middle" transform="translate(243.89983305509182,15)" font-family="Asap" font-size="10px" fill="#000" opacity="1">2000</text><text text-anchor="middle" transform="translate(292.6811352253756,15)" font-family="Asap" font-size="10px" fill="#000" opacity="1">2020</text></g><g class="mark-rule role-axis-domain" pointer-events="none"><line transform="translate(0,0)" x2="300" y2="0" stroke="#888" stroke-opacity="0" stroke-width="1" opacity="1"/></g></g><path class="foreground" aria-hidden="true" d="" pointer-events="none" display="none"/></g></g><g class="mark-group role-axis" role="graphics-symbol" aria-roledescription="axis" aria-label="Y-axis for a linear scale with values from 0k to 18k"><g transform="translate(300.5,0.5)"><path class="background" aria-hidden="true" d="M0,0h0v0h0Z" pointer-events="none"/><g><g class="mark-rule role-axis-tick" pointer-events="none"><line transform="translate(0,100)" x2="5" y2="0" stroke="#DCDDD6" stroke-width="1" opacity="1"/><line transform="translate(0,72)" x2="5" y2="0" stroke="#DCDDD6" stroke-width="1" opacity="1"/><line transform="translate(0,44)" x2="5" y2="0" stroke="#DCDDD6" stroke-width="1" opacity="1"/><line transform="translate(0,17)" x2="5" y2="0" stroke="#DCDDD6" stroke-width="1" opacity="1"/></g><g class="mark-text role-axis-label" pointer-events="none"><text text-anchor="start" transform="translate(7,103)" font-family="Asap" font-size="10px" fill="#000" opacity="1">0k</text><text text-anchor="start" transform="translate(7,75.22222222222221)" font-family="Asap" font-size="10px" fill="#000" opacity="1">5k</text><text text-anchor="start" transform="translate(7,47.44444444444444)" font-family="Asap" font-size="10px" fill="#000" opacity="1">10k</text><text text-anchor="start" transform="translate(7,19.666666666666664)" font-family="Asap" font-size="10px" fill="#000" opacity="1">15k</text></g><g class="mark-rule role-axis-domain" pointer-events="none"><line transform="translate(0,100)" x2="0" y2="-100" stroke="#888" stroke-opacity="0" stroke-width="1" opacity="1"/></g></g><path class="foreground" aria-hidden="true" d="" pointer-events="none" display="none"/></g></g><g class="mark-group role-scope concat_0_concat_0_pathgroup" role="graphics-object" aria-roledescription="group mark container"><g transform="translate(0,0)"><path class="background" aria-hidden="true" d="M0,0h300v100h-300Z"/><g><g class="mark-area role-mark concat_0_concat_0_marks" role="graphics-object" aria-roledescription="area mark container"><path aria-label="rok: Jan 01, 1900; value: 1.35500k; variable: všechny publikace" role="graphics-symbol" aria-roledescription="area mark" d="M0,92.472L2.437,89.944L4.875,88.7L7.312,89.044L9.75,89.467L12.194,89.939L14.631,87.561L17.068,88.472L19.506,86.989L21.95,87.528L24.387,85.861L26.825,86.25L29.262,85.589L31.706,85.061L34.144,88.694L36.581,92.256L39.018,91.622L41.462,91.261L43.9,89.406L46.337,80.989L48.775,76.106L51.219,78.889L53.656,76.483L56.093,76.517L58.531,73.939L60.975,70.8L63.412,73.028L65.85,74L68.287,72.522L70.731,73.022L73.169,69.278L75.606,72.333L78.043,74.25L80.487,74.294L82.925,72.939L85.362,69.639L87.8,64.228L90.244,64.061L92.681,68.822L95.119,76.622L97.556,69.122L100,70.744L102.437,84.972L104.875,88.45L107.312,86.328L109.756,82.867L112.194,66.378L114.631,63.944L117.068,70.089L119.513,77.933L121.95,77.611L124.387,74.694L126.825,75.556L129.269,72.194L131.706,70.244L134.144,72.511L136.581,72.744L139.025,72.628L141.462,69.372L143.9,65.978L146.337,67.278L148.781,66.206L151.219,69.089L153.656,67.533L156.093,69.139L158.538,71.156L160.975,71.422L163.412,71.544L165.85,72.444L168.294,72.744L170.731,70.872L173.169,70.25L175.606,70.706L178.05,69.622L180.487,68.867L182.925,69.067L185.362,67.822L187.806,69.083L190.244,68.661L192.681,67.139L195.119,66.406L197.563,66.578L200,65.939L202.437,65.606L204.875,64.756L207.319,64.328L209.756,63.317L212.194,61.683L214.631,62.2L217.075,60.756L219.513,61.528L221.95,59.989L224.387,52.017L226.831,52.833L229.269,50.328L231.706,45.617L234.144,41.911L236.588,39.189L239.025,37.611L241.462,35.311L243.9,30.444L246.344,30.283L248.781,29.328L251.219,23.256L253.656,23.478L256.1,21.239L258.538,15.806L260.975,11.022L263.412,7.072L265.856,13.6L268.294,11.6L270.731,14.478L273.169,13.683L275.613,15.389L278.05,15.3L280.487,18.056L282.925,22.228L285.369,23.428L287.806,21.317L290.244,23.733L292.681,30.672L295.125,28.117L297.563,26.244L300,34.656L300,100L297.563,100L295.125,100L292.681,100L290.244,100L287.806,100L285.369,100L282.925,100L280.487,100L278.05,100L275.613,100L273.169,100L270.731,100L268.294,100L265.856,100L263.412,100L260.975,100L258.538,100L256.1,100L253.656,100L251.219,100L248.781,100L246.344,100L243.9,100L241.462,100L239.025,100L236.588,100L234.144,100L231.706,100L229.269,100L226.831,100L224.387,100L221.95,100L219.513,100L217.075,100L214.631,100L212.194,100L209.756,100L207.319,100L204.875,100L202.437,100L200,100L197.563,100L195.119,100L192.681,100L190.244,100L187.806,100L185.362,100L182.925,100L180.487,100L178.05,100L175.606,100L173.169,100L170.731,100L168.294,100L165.85,100L163.412,100L160.975,100L158.538,100L156.093,100L153.656,100L151.219,100L148.781,100L146.337,100L143.9,100L141.462,100L139.025,100L136.581,100L134.144,100L131.706,100L129.269,100L126.825,100L124.387,100L121.95,100L119.513,100L117.068,100L114.631,100L112.194,100L109.756,100L107.312,100L104.875,100L102.437,100L100,100L97.556,100L95.119,100L92.681,100L90.244,100L87.8,100L85.362,100L82.925,100L80.487,100L78.043,100L75.606,100L73.169,100L70.731,100L68.287,100L65.85,100L63.412,100L60.975,100L58.531,100L56.093,100L53.656,100L51.219,100L48.775,100L46.337,100L43.9,100L41.462,100L39.018,100L36.581,100L34.144,100L31.706,100L29.262,100L26.825,100L24.387,100L21.95,100L19.506,100L17.068,100L14.631,100L12.194,100L9.75,100L7.312,100L4.875,100L2.437,100L0,100Z" fill="#81A9D5"/></g></g><path class="foreground" aria-hidden="true" d="" display="none"/></g></g><g class="mark-group role-title"><g transform="translate(-1,-18)"><path class="background" aria-hidden="true" d="M0,0h0v0h0Z" pointer-events="none"/><g><g class="mark-text role-title-text" role="graphics-symbol" aria-roledescription="title" aria-label="Title text 'Vývoj knižní produkce na českém území'" pointer-events="none"><text text-anchor="start" transform="translate(0,-1)" font-family="Noticia Text" font-size="14px" font-weight="bolder" fill="#000" opacity="1">Vývoj knižní produkce na českém území</text></g></g><path class="foreground" aria-hidden="true" d="" pointer-events="none" display="none"/></g></g></g><path class="foreground" aria-hidden="true" d="" display="none"/></g></g><g class="mark-group role-scope concat_0_concat_1_group" role="graphics-object" aria-roledescription="group mark container"><g transform="translate(0,169)"><path class="background" aria-hidden="true" d="M0.5,0.5h300v100h-300Z" stroke="#ddd"/><g><g class="mark-group role-axis" aria-hidden="true"><g transform="translate(0.5,100.5)"><path class="background" aria-hidden="true" d="M0,0h0v0h0Z" pointer-events="none"/><g><g class="mark-rule role-axis-grid" pointer-events="none"><line transform="translate(0,-100)" x2="0" y2="100" stroke="#ddd" stroke-width="1" opacity="1"/><line transform="translate(49,-100)" x2="0" y2="100" stroke="#ddd" stroke-width="1" opacity="1"/><line transform="translate(98,-100)" x2="0" y2="100" stroke="#ddd" stroke-width="1" opacity="1"/><line transform="translate(146,-100)" x2="0" y2="100" stroke="#ddd" stroke-width="1" opacity="1"/><line transform="translate(195,-100)" x2="0" y2="100" stroke="#ddd" stroke-width="1" opacity="1"/><line transform="translate(244,-100)" x2="0" y2="100" stroke="#ddd" stroke-width="1" opacity="1"/><line transform="translate(293,-100)" x2="0" y2="100" stroke="#ddd" stroke-width="1" opacity="1"/></g></g><path class="foreground" aria-hidden="true" d="" pointer-events="none" display="none"/></g></g><g class="mark-group role-axis" aria-hidden="true"><g transform="translate(300.5,0.5)"><path class="background" aria-hidden="true" d="M0,0h0v0h0Z" pointer-events="none"/><g><g class="mark-rule role-axis-grid" pointer-events="none"><line transform="translate(0,100)" x2="-300" y2="0" stroke="#ddd" stroke-width="1" opacity="1"/><line transform="translate(0,55)" x2="-300" y2="0" stroke="#ddd" stroke-width="1" opacity="1"/><line transform="translate(0,9)" x2="-300" y2="0" stroke="#ddd" stroke-width="1" opacity="1"/></g></g><path class="foreground" aria-hidden="true" d="" pointer-events="none" display="none"/></g></g><g class="mark-group role-axis" role="graphics-symbol" aria-roledescription="axis" aria-label="X-axis for a time scale with values from Monday, 01 January 1900, 12:00:00 AM to Sunday, 01 January 2023, 12:00:00 AM"><g transform="translate(0.5,100.5)"><path class="background" aria-hidden="true" d="M0,0h0v0h0Z" pointer-events="none"/><g><g class="mark-rule role-axis-tick" pointer-events="none"><line transform="translate(0,0)" x2="0" y2="5" stroke="#DCDDD6" stroke-width="1" opacity="1"/><line transform="translate(49,0)" x2="0" y2="5" stroke="#DCDDD6" stroke-width="1" opacity="1"/><line transform="translate(98,0)" x2="0" y2="5" stroke="#DCDDD6" stroke-width="1" opacity="1"/><line transform="translate(146,0)" x2="0" y2="5" stroke="#DCDDD6" stroke-width="1" opacity="1"/><line transform="translate(195,0)" x2="0" y2="5" stroke="#DCDDD6" stroke-width="1" opacity="1"/><line transform="translate(244,0)" x2="0" y2="5" stroke="#DCDDD6" stroke-width="1" opacity="1"/><line transform="translate(293,0)" x2="0" y2="5" stroke="#DCDDD6" stroke-width="1" opacity="1"/></g><g class="mark-text role-axis-label" pointer-events="none"><text text-anchor="start" transform="translate(0,15)" font-family="Asap" font-size="10px" fill="#000" opacity="1">1900</text><text text-anchor="middle" transform="translate(48.7746243739566,15)" font-family="Asap" font-size="10px" fill="#000" opacity="1">1920</text><text text-anchor="middle" transform="translate(97.55592654424039,15)" font-family="Asap" font-size="10px" fill="#000" opacity="1">1940</text><text text-anchor="middle" transform="translate(146.3372287145242,15)" font-family="Asap" font-size="10px" fill="#000" opacity="1">1960</text><text text-anchor="middle" transform="translate(195.11853088480802,15)" font-family="Asap" font-size="10px" fill="#000" opacity="1">1980</text><text text-anchor="middle" transform="translate(243.89983305509182,15)" font-family="Asap" font-size="10px" fill="#000" opacity="1">2000</text><text text-anchor="middle" transform="translate(292.6811352253756,15)" font-family="Asap" font-size="10px" fill="#000" opacity="1">2020</text></g><g class="mark-rule role-axis-domain" pointer-events="none"><line transform="translate(0,0)" x2="300" y2="0" stroke="#888" stroke-opacity="0" stroke-width="1" opacity="1"/></g></g><path class="foreground" aria-hidden="true" d="" pointer-events="none" display="none"/></g></g><g class="mark-group role-axis" role="graphics-symbol" aria-roledescription="axis" aria-label="Y-axis for a linear scale with values from 0k to 11k"><g transform="translate(300.5,0.5)"><path class="background" aria-hidden="true" d="M0,0h0v0h0Z" pointer-events="none"/><g><g class="mark-rule role-axis-tick" pointer-events="none"><line transform="translate(0,100)" x2="5" y2="0" stroke="#DCDDD6" stroke-width="1" opacity="1"/><line transform="translate(0,55)" x2="5" y2="0" stroke="#DCDDD6" stroke-width="1" opacity="1"/><line transform="translate(0,9)" x2="5" y2="0" stroke="#DCDDD6" stroke-width="1" opacity="1"/></g><g class="mark-text role-axis-label" pointer-events="none"><text text-anchor="start" transform="translate(7,103)" font-family="Asap" font-size="10px" fill="#000" opacity="1">0k</text><text text-anchor="start" transform="translate(7,57.54545454545454)" font-family="Asap" font-size="10px" fill="#000" opacity="1">5k</text><text text-anchor="start" transform="translate(7,12.090909090909093)" font-family="Asap" font-size="10px" fill="#000" opacity="1">10k</text></g><g class="mark-rule role-axis-domain" pointer-events="none"><line transform="translate(0,100)" x2="0" y2="-100" stroke="#888" stroke-opacity="0" stroke-width="1" opacity="1"/></g></g><path class="foreground" aria-hidden="true" d="" pointer-events="none" display="none"/></g></g><g class="mark-group role-scope concat_0_concat_1_pathgroup" role="graphics-object" aria-roledescription="group mark container"><g transform="translate(0,0)"><path class="background" aria-hidden="true" d="M0,0h300v100h-300Z"/><g><g class="mark-area role-mark concat_0_concat_1_marks" role="graphics-object" aria-roledescription="area mark container"><path aria-label="rok: Jan 01, 1900; value: 793.000; variable: novinky nad 50 stran" role="graphics-symbol" aria-roledescription="area mark" d="M0,92.791L2.437,91.218L4.875,89.873L7.312,90.636L9.75,91.055L12.194,91.236L14.631,91.2L17.068,91.145L19.506,89.364L21.95,89.891L24.387,87.755L26.825,88.164L29.262,88L31.706,87.545L34.144,91.382L36.581,93.945L39.018,93.955L41.462,93.645L43.9,92.291L46.337,87.864L48.775,83.682L51.219,85.736L53.656,83.918L56.093,83.3L58.531,80.845L60.975,77.536L63.412,78.655L65.85,78.664L68.287,77.709L70.731,78.655L73.169,76.018L75.606,78.482L78.043,80.627L80.487,81.036L82.925,80.682L85.362,79.018L87.8,75.718L90.244,75.755L92.681,78.964L95.119,83.855L97.556,80.045L100,81.009L102.437,89.964L104.875,91.673L107.312,90.282L109.756,90.436L112.194,75.545L114.631,72.418L117.068,76.064L119.513,85.836L121.95,83.218L124.387,78.118L126.825,79.045L129.269,74.682L131.706,72.191L134.144,74.873L136.581,74.591L139.025,74.5L141.462,71.773L143.9,70.536L146.337,71.245L148.781,69.982L151.219,70.9L153.656,69.091L156.093,69.6L158.538,71.245L160.975,70.464L163.412,72.091L165.85,72.145L168.294,73.673L170.731,72.2L173.169,71.1L175.606,70.955L178.05,69.636L180.487,68.618L182.925,68.336L185.362,68.236L187.806,68.945L190.244,67.773L192.681,65.3L195.119,63.991L197.563,64.655L200,62.227L202.437,62.209L204.875,61.391L207.319,62.282L209.756,60.645L212.194,59.473L214.631,60.255L217.075,58.7L219.513,60.836L221.95,60.791L224.387,46.7L226.831,44.945L229.269,40.564L231.706,34.7L234.144,30.827L236.588,27.545L239.025,28.091L241.462,27.845L243.9,23.136L246.344,22.273L248.781,22.109L251.219,17.727L253.656,12.718L256.1,10.145L258.538,5.6L260.975,3.373L263.412,1.327L265.856,6.336L268.294,4.282L270.731,4.209L273.169,7.991L275.613,6.591L278.05,6.118L280.487,7.818L282.925,13.809L285.369,13.582L287.806,10.873L290.244,14.945L292.681,20.982L295.125,21.491L297.563,22.464L300,29.091L300,100L297.563,100L295.125,100L292.681,100L290.244,100L287.806,100L285.369,100L282.925,100L280.487,100L278.05,100L275.613,100L273.169,100L270.731,100L268.294,100L265.856,100L263.412,100L260.975,100L258.538,100L256.1,100L253.656,100L251.219,100L248.781,100L246.344,100L243.9,100L241.462,100L239.025,100L236.588,100L234.144,100L231.706,100L229.269,100L226.831,100L224.387,100L221.95,100L219.513,100L217.075,100L214.631,100L212.194,100L209.756,100L207.319,100L204.875,100L202.437,100L200,100L197.563,100L195.119,100L192.681,100L190.244,100L187.806,100L185.362,100L182.925,100L180.487,100L178.05,100L175.606,100L173.169,100L170.731,100L168.294,100L165.85,100L163.412,100L160.975,100L158.538,100L156.093,100L153.656,100L151.219,100L148.781,100L146.337,100L143.9,100L141.462,100L139.025,100L136.581,100L134.144,100L131.706,100L129.269,100L126.825,100L124.387,100L121.95,100L119.513,100L117.068,100L114.631,100L112.194,100L109.756,100L107.312,100L104.875,100L102.437,100L100,100L97.556,100L95.119,100L92.681,100L90.244,100L87.8,100L85.362,100L82.925,100L80.487,100L78.043,100L75.606,100L73.169,100L70.731,100L68.287,100L65.85,100L63.412,100L60.975,100L58.531,100L56.093,100L53.656,100L51.219,100L48.775,100L46.337,100L43.9,100L41.462,100L39.018,100L36.581,100L34.144,100L31.706,100L29.262,100L26.825,100L24.387,100L21.95,100L19.506,100L17.068,100L14.631,100L12.194,100L9.75,100L7.312,100L4.875,100L2.437,100L0,100Z" fill="#70871E"/></g></g><path class="foreground" aria-hidden="true" d="" display="none"/></g></g><g class="mark-group role-title"><g transform="translate(-1,-18)"><path class="background" aria-hidden="true" d="M0,0h0v0h0Z" pointer-events="none"/><g><g class="mark-text role-title-text" role="graphics-symbol" aria-roledescription="title" aria-label="Title text 'Novinky nad 50 stran'" pointer-events="none"><text text-anchor="start" transform="translate(0,-1)" font-family="Noticia Text" font-size="14px" font-weight="bolder" fill="#000" opacity="1">Novinky nad 50 stran</text></g></g><path class="foreground" aria-hidden="true" d="" pointer-events="none" display="none"/></g></g></g><path class="foreground" aria-hidden="true" d="" display="none"/></g></g><g class="mark-group role-scope concat_0_concat_2_group" role="graphics-object" aria-roledescription="group mark container"><g transform="translate(0,338)"><path class="background" aria-hidden="true" d="M0.5,0.5h300v100h-300Z" stroke="#ddd"/><g><g class="mark-group role-axis" aria-hidden="true"><g transform="translate(0.5,100.5)"><path class="background" aria-hidden="true" d="M0,0h0v0h0Z" pointer-events="none"/><g><g class="mark-rule role-axis-grid" pointer-events="none"><line transform="translate(0,-100)" x2="0" y2="100" stroke="#ddd" stroke-width="1" opacity="1"/><line transform="translate(49,-100)" x2="0" y2="100" stroke="#ddd" stroke-width="1" opacity="1"/><line transform="translate(98,-100)" x2="0" y2="100" stroke="#ddd" stroke-width="1" opacity="1"/><line transform="translate(146,-100)" x2="0" y2="100" stroke="#ddd" stroke-width="1" opacity="1"/><line transform="translate(195,-100)" x2="0" y2="100" stroke="#ddd" stroke-width="1" opacity="1"/><line transform="translate(244,-100)" x2="0" y2="100" stroke="#ddd" stroke-width="1" opacity="1"/><line transform="translate(293,-100)" x2="0" y2="100" stroke="#ddd" stroke-width="1" opacity="1"/></g></g><path class="foreground" aria-hidden="true" d="" pointer-events="none" display="none"/></g></g><g class="mark-group role-axis" aria-hidden="true"><g transform="translate(300.5,0.5)"><path class="background" aria-hidden="true" d="M0,0h0v0h0Z" pointer-events="none"/><g><g class="mark-rule role-axis-grid" pointer-events="none"><line transform="translate(0,100)" x2="-300" y2="0" stroke="#ddd" stroke-width="1" opacity="1"/><line transform="translate(0,64)" x2="-300" y2="0" stroke="#ddd" stroke-width="1" opacity="1"/><line transform="translate(0,27)" x2="-300" y2="0" stroke="#ddd" stroke-width="1" opacity="1"/></g></g><path class="foreground" aria-hidden="true" d="" pointer-events="none" display="none"/></g></g><g class="mark-group role-axis" role="graphics-symbol" aria-roledescription="axis" aria-label="X-axis for a time scale with values from Monday, 01 January 1900, 12:00:00 AM to Sunday, 01 January 2023, 12:00:00 AM"><g transform="translate(0.5,100.5)"><path class="background" aria-hidden="true" d="M0,0h0v0h0Z" pointer-events="none"/><g><g class="mark-rule role-axis-tick" pointer-events="none"><line transform="translate(0,0)" x2="0" y2="5" stroke="#DCDDD6" stroke-width="1" opacity="1"/><line transform="translate(49,0)" x2="0" y2="5" stroke="#DCDDD6" stroke-width="1" opacity="1"/><line transform="translate(98,0)" x2="0" y2="5" stroke="#DCDDD6" stroke-width="1" opacity="1"/><line transform="translate(146,0)" x2="0" y2="5" stroke="#DCDDD6" stroke-width="1" opacity="1"/><line transform="translate(195,0)" x2="0" y2="5" stroke="#DCDDD6" stroke-width="1" opacity="1"/><line transform="translate(244,0)" x2="0" y2="5" stroke="#DCDDD6" stroke-width="1" opacity="1"/><line transform="translate(293,0)" x2="0" y2="5" stroke="#DCDDD6" stroke-width="1" opacity="1"/></g><g class="mark-text role-axis-label" pointer-events="none"><text text-anchor="start" transform="translate(0,15)" font-family="Asap" font-size="10px" fill="#000" opacity="1">1900</text><text text-anchor="middle" transform="translate(48.7746243739566,15)" font-family="Asap" font-size="10px" fill="#000" opacity="1">1920</text><text text-anchor="middle" transform="translate(97.55592654424039,15)" font-family="Asap" font-size="10px" fill="#000" opacity="1">1940</text><text text-anchor="middle" transform="translate(146.3372287145242,15)" font-family="Asap" font-size="10px" fill="#000" opacity="1">1960</text><text text-anchor="middle" transform="translate(195.11853088480802,15)" font-family="Asap" font-size="10px" fill="#000" opacity="1">1980</text><text text-anchor="middle" transform="translate(243.89983305509182,15)" font-family="Asap" font-size="10px" fill="#000" opacity="1">2000</text><text text-anchor="middle" transform="translate(292.6811352253756,15)" font-family="Asap" font-size="10px" fill="#000" opacity="1">2020</text></g><g class="mark-rule role-axis-domain" pointer-events="none"><line transform="translate(0,0)" x2="300" y2="0" stroke="#888" stroke-opacity="0" stroke-width="1" opacity="1"/></g></g><path class="foreground" aria-hidden="true" d="" pointer-events="none" display="none"/></g></g><g class="mark-group role-axis" role="graphics-symbol" aria-roledescription="axis" aria-label="Y-axis for a linear scale with values from  0% to  55%"><g transform="translate(300.5,0.5)"><path class="background" aria-hidden="true" d="M0,0h0v0h0Z" pointer-events="none"/><g><g class="mark-rule role-axis-tick" pointer-events="none"><line transform="translate(0,100)" x2="5" y2="0" stroke="#DCDDD6" stroke-width="1" opacity="1"/><line transform="translate(0,64)" x2="5" y2="0" stroke="#DCDDD6" stroke-width="1" opacity="1"/><line transform="translate(0,27)" x2="5" y2="0" stroke="#DCDDD6" stroke-width="1" opacity="1"/></g><g class="mark-text role-axis-label" pointer-events="none"><text text-anchor="start" transform="translate(7,103)" font-family="Asap" font-size="10px" fill="#000" opacity="1">0 %</text><text text-anchor="start" transform="translate(7,66.63636363636363)" font-family="Asap" font-size="10px" fill="#000" opacity="1">20 %</text><text text-anchor="start" transform="translate(7,30.27272727272727)" font-family="Asap" font-size="10px" fill="#000" opacity="1">40 %</text></g><g class="mark-rule role-axis-domain" pointer-events="none"><line transform="translate(0,100)" x2="0" y2="-100" stroke="#888" stroke-opacity="0" stroke-width="1" opacity="1"/></g></g><path class="foreground" aria-hidden="true" d="" pointer-events="none" display="none"/></g></g><g class="mark-group role-scope concat_0_concat_2_pathgroup" role="graphics-object" aria-roledescription="group mark container"><g transform="translate(0,0)"><path class="background" aria-hidden="true" d="M0,0h300v100h-300Z"/><g><g class="mark-area role-mark concat_0_concat_2_marks" role="graphics-object" aria-roledescription="area mark container"><path aria-label="rok: Jan 01, 1900; value:  23%; variable: podíl překladů" role="graphics-symbol" aria-roledescription="area mark" d="M0,58.807L2.437,49.054L4.875,51.792L7.312,52.706L9.75,51.753L12.194,47.236L14.631,52.894L17.068,53.008L19.506,50.762L21.95,47.971L24.387,40.357L26.825,39.782L29.262,49.433L31.706,51.2L34.144,50.582L36.581,56.843L39.018,53.131L41.462,55.76L43.9,53.013L46.337,45.44L48.775,49.488L51.219,51.968L53.656,53.518L56.093,52.098L58.531,51.243L60.975,39.956L63.412,35.003L65.85,37.088L68.287,42.94L70.731,35.885L73.169,41.383L75.606,36.427L78.043,48.949L80.487,48.239L82.925,51.876L85.362,51.171L87.8,42.223L90.244,43.385L92.681,54.282L95.119,54.767L97.556,59.174L100,47.174L102.437,34.205L104.875,42.651L107.312,54.855L109.756,61.508L112.194,54.449L114.631,46.77L117.068,38.151L119.513,24.341L121.95,6.52L124.387,1.98L126.825,2.909L129.269,19.139L131.706,30.516L134.144,41.971L136.581,44.503L139.025,49.231L141.462,45.008L143.9,41.24L146.337,47.916L148.781,47.371L151.219,48.531L153.656,48.222L156.093,47.072L158.538,44.287L160.975,49.131L163.412,49.083L165.85,54.224L168.294,54.128L170.731,52.816L173.169,53.993L175.606,50.69L178.05,53.003L180.487,50.429L182.925,49.768L185.362,49.587L187.806,54.121L190.244,59.195L192.681,64.667L195.119,67.082L197.563,68.673L200,68.674L202.437,70.613L204.875,71.899L207.319,73.23L209.756,71.47L212.194,73.456L214.631,72.748L217.075,74.863L219.513,73.341L221.95,63.874L224.387,50.871L226.831,37.507L229.269,34.484L231.706,34.529L234.144,30.457L236.588,31.436L239.025,36.754L241.462,36.503L243.9,36.524L246.344,39.429L248.781,39.649L251.219,38.721L253.656,37.586L256.1,41.908L258.538,40.793L260.975,40.512L263.412,39.039L265.856,38.092L268.294,42.2L270.731,40.251L273.169,41.131L275.613,41.796L278.05,42.678L280.487,41.914L282.925,38.032L285.369,37.844L287.806,36.365L290.244,33.632L292.681,39.394L295.125,37.983L297.563,35.447L300,34.184L300,100L297.563,100L295.125,100L292.681,100L290.244,100L287.806,100L285.369,100L282.925,100L280.487,100L278.05,100L275.613,100L273.169,100L270.731,100L268.294,100L265.856,100L263.412,100L260.975,100L258.538,100L256.1,100L253.656,100L251.219,100L248.781,100L246.344,100L243.9,100L241.462,100L239.025,100L236.588,100L234.144,100L231.706,100L229.269,100L226.831,100L224.387,100L221.95,100L219.513,100L217.075,100L214.631,100L212.194,100L209.756,100L207.319,100L204.875,100L202.437,100L200,100L197.563,100L195.119,100L192.681,100L190.244,100L187.806,100L185.362,100L182.925,100L180.487,100L178.05,100L175.606,100L173.169,100L170.731,100L168.294,100L165.85,100L163.412,100L160.975,100L158.538,100L156.093,100L153.656,100L151.219,100L148.781,100L146.337,100L143.9,100L141.462,100L139.025,100L136.581,100L134.144,100L131.706,100L129.269,100L126.825,100L124.387,100L121.95,100L119.513,100L117.068,100L114.631,100L112.194,100L109.756,100L107.312,100L104.875,100L102.437,100L100,100L97.556,100L95.119,100L92.681,100L90.244,100L87.8,100L85.362,100L82.925,100L80.487,100L78.043,100L75.606,100L73.169,100L70.731,100L68.287,100L65.85,100L63.412,100L60.975,100L58.531,100L56.093,100L53.656,100L51.219,100L48.775,100L46.337,100L43.9,100L41.462,100L39.018,100L36.581,100L34.144,100L31.706,100L29.262,100L26.825,100L24.387,100L21.95,100L19.506,100L17.068,100L14.631,100L12.194,100L9.75,100L7.312,100L4.875,100L2.437,100L0,100Z" fill="#DB842F"/></g></g><path class="foreground" aria-hidden="true" d="" display="none"/></g></g><g class="mark-group role-title"><g transform="translate(-1,-18)"><path class="background" aria-hidden="true" d="M0,0h0v0h0Z" pointer-events="none"/><g><g class="mark-text role-title-text" role="graphics-symbol" aria-roledescription="title" aria-label="Title text 'Podíl překladů z cizích jazyků'" pointer-events="none"><text text-anchor="start" transform="translate(0,-1)" font-family="Noticia Text" font-size="14px" font-weight="bolder" fill="#000" opacity="1">Podíl překladů z cizích jazyků</text></g></g><path class="foreground" aria-hidden="true" d="" pointer-events="none" display="none"/></g></g></g><path class="foreground" aria-hidden="true" d="" display="none"/></g></g></g><path class="foreground" aria-hidden="true" d="" display="none"/></g></g><g class="mark-group role-scope concat_1_group" role="graphics-object" aria-roledescription="group mark container"><g transform="translate(0,477)"><path class="background" aria-hidden="true" d="M0,0h300v20h-300Z"/><g><g class="mark-text role-mark concat_1_marks" role="graphics-object" aria-roledescription="text mark container"><text aria-label="text: zdroj dat: Česká národní bibliografie · vizualizace: iROZHLAS.cz · 2025" role="graphics-symbol" aria-roledescription="text mark" text-anchor="middle" transform="translate(150,7)" font-family="Asap" font-size="10px" fill="black">zdroj dat: Česká národní bibliografie · vizualizace: iROZHLAS.cz · 2025</text></g></g><path class="foreground" aria-hidden="true" d="" display="none"/></g></g></g><path class="foreground" aria-hidden="true" d="" display="none"/></g></g></g></svg>