<svg xmlns="http://www.w3.org/2000/svg" xmlns:xlink="http://www.w3.org/1999/xlink" version="1.1" class="marks" width="448" height="458" viewBox="0 0 448 458"><rect width="448" height="458" fill="white"/><g fill="none" stroke-miterlimit="10" transform="translate(139,75)"><g class="mark-group role-frame root" role="graphics-object" aria-roledescription="group mark container"><g transform="translate(0,0)"><path class="background" aria-hidden="true" d="M0,0h0v0h0Z"/><g><g class="mark-group role-scope concat_0_group" role="graphics-object" aria-roledescription="group mark container"><g transform="translate(0,0)"><path class="background" aria-hidden="true" d="M0,0h0v0h0Z"/><g><g class="mark-group role-row-header concat_0_row_header" role="graphics-object" aria-roledescription="group mark container"><g transform="translate(-33,0)"><path class="background" aria-hidden="true" d="M0,0h0v90h0Z"/><g><g class="mark-group role-title"><g transform="translate(-91.05999755859375,45)"><path class="background" aria-hidden="true" d="M0,0h0v0h0Z" pointer-events="none"/><g><g class="mark-text role-title-text" role="graphics-symbol" aria-roledescription="title" aria-label="Title text 'všechny publikace'" pointer-events="none"><text text-anchor="start" transform="translate(0,3)" font-family="Asap" font-size="10px" fill="#000" opacity="1">všechny publikace</text></g></g><path class="foreground" aria-hidden="true" d="" pointer-events="none" display="none"/></g></g></g><path class="foreground" aria-hidden="true" d="" display="none"/></g><g transform="translate(-33,112)"><path class="background" aria-hidden="true" d="M0,0h0v90h0Z"/><g><g class="mark-group role-title"><g transform="translate(-100.8499984741211,45)"><path class="background" aria-hidden="true" d="M0,0h0v0h0Z" pointer-events="none"/><g><g class="mark-text role-title-text" role="graphics-symbol" aria-roledescription="title" aria-label="Title text 'novinky nad 50 stran'" pointer-events="none"><text text-anchor="start" transform="translate(0,3)" font-family="Asap" font-size="10px" fill="#000" opacity="1">novinky nad 50 stran</text></g></g><path class="foreground" aria-hidden="true" d="" pointer-events="none" display="none"/></g></g></g><path class="foreground" aria-hidden="true" d="" display="none"/></g><g transform="translate(-33,224)"><path class="background" aria-hidden="true" d="M0,0h0v90h0Z"/><g><g class="mark-group role-title"><g transform="translate(-74.52000427246094,45)"><path class="background" aria-hidden="true" d="M0,0h0v0h0Z" pointer-events="none"/><g><g class="mark-text role-title-text" role="graphics-symbol" aria-roledescription="title" aria-label="Title text 'podíl překladů'" pointer-events="none"><text text-anchor="start" transform="translate(0,3)" font-family="Asap" font-size="10px" fill="#000" opacity="1">podíl překladů</text></g></g><path class="foreground" aria-hidden="true" d="" pointer-events="none" display="none"/></g></g></g><path class="foreground" aria-hidden="true" d="" display="none"/></g></g><g class="mark-group role-column-footer concat_0_column_footer" role="graphics-object" aria-roledescription="group mark container"><g transform="translate(0,320)"><path class="background" aria-hidden="true" d="M0,0h300v0h-300Z"/><g><g class="mark-group role-axis" role="graphics-symbol" aria-roledescription="axis" aria-label="X-axis for a time scale with values from Tuesday, 01 January 1901, 12:00:00 AM to Sunday, 01 January 2023, 12:00:00 AM"><g transform="translate(0.5,0.5)"><path class="background" aria-hidden="true" d="M0,0h0v0h0Z" pointer-events="none"/><g><g class="mark-rule role-axis-tick" pointer-events="none"><line transform="translate(47,0)" x2="0" y2="5" stroke="#DCDDD6" stroke-width="1" opacity="1"/><line transform="translate(96,0)" x2="0" y2="5" stroke="#DCDDD6" stroke-width="1" opacity="1"/><line transform="translate(145,0)" x2="0" y2="5" stroke="#DCDDD6" stroke-width="1" opacity="1"/><line transform="translate(194,0)" x2="0" y2="5" stroke="#DCDDD6" stroke-width="1" opacity="1"/><line transform="translate(243,0)" x2="0" y2="5" stroke="#DCDDD6" stroke-width="1" opacity="1"/><line transform="translate(293,0)" x2="0" y2="5" stroke="#DCDDD6" stroke-width="1" opacity="1"/></g><g class="mark-text role-axis-label" pointer-events="none"><text text-anchor="middle" transform="translate(46.71678635547576,15)" font-family="Asap" font-size="10px" fill="#000" opacity="1">1920</text><text text-anchor="middle" transform="translate(95.89766606822262,15)" font-family="Asap" font-size="10px" fill="#000" opacity="1">1940</text><text text-anchor="middle" transform="translate(145.07854578096948,15)" font-family="Asap" font-size="10px" fill="#000" opacity="1">1960</text><text text-anchor="middle" transform="translate(194.25942549371635,15)" font-family="Asap" font-size="10px" fill="#000" opacity="1">1980</text><text text-anchor="middle" transform="translate(243.4403052064632,15)" font-family="Asap" font-size="10px" fill="#000" opacity="1">2000</text><text text-anchor="middle" transform="translate(292.62118491921007,15)" font-family="Asap" font-size="10px" fill="#000" opacity="1">2020</text></g><g class="mark-rule role-axis-domain" pointer-events="none"><line transform="translate(0,0)" x2="300" y2="0" stroke="#888" stroke-opacity="0" stroke-width="1" opacity="1"/></g></g><path class="foreground" aria-hidden="true" d="" pointer-events="none" display="none"/></g></g></g><path class="foreground" aria-hidden="true" d="" display="none"/></g></g><g class="mark-group role-scope concat_0_cell" role="graphics-object" aria-roledescription="group mark container"><g transform="translate(0,0)"><path class="background" aria-hidden="true" d="M0.5,0.5h300v90h-300Z" stroke="#ddd"/><g><g class="mark-group role-axis" aria-hidden="true"><g transform="translate(0.5,90.5)"><path class="background" aria-hidden="true" d="M0,0h0v0h0Z" pointer-events="none"/><g><g class="mark-rule role-axis-grid" pointer-events="none"><line transform="translate(47,-90)" x2="0" y2="90" stroke="#ddd" stroke-width="1" opacity="1"/><line transform="translate(96,-90)" x2="0" y2="90" stroke="#ddd" stroke-width="1" opacity="1"/><line transform="translate(145,-90)" x2="0" y2="90" stroke="#ddd" stroke-width="1" opacity="1"/><line transform="translate(194,-90)" x2="0" y2="90" stroke="#ddd" stroke-width="1" opacity="1"/><line transform="translate(243,-90)" x2="0" y2="90" stroke="#ddd" stroke-width="1" opacity="1"/><line transform="translate(293,-90)" x2="0" y2="90" stroke="#ddd" stroke-width="1" opacity="1"/></g></g><path class="foreground" aria-hidden="true" d="" pointer-events="none" display="none"/></g></g><g class="mark-group role-axis" aria-hidden="true"><g transform="translate(0.5,0.5)"><path class="background" aria-hidden="true" d="M0,0h0v0h0Z" pointer-events="none"/><g><g class="mark-rule role-axis-grid" pointer-events="none"><line transform="translate(0,90)" x2="300" y2="0" stroke="#ddd" stroke-width="1" opacity="1"/><line transform="translate(0,65)" x2="300" y2="0" stroke="#ddd" stroke-width="1" opacity="1"/><line transform="translate(0,40)" x2="300" y2="0" stroke="#ddd" stroke-width="1" opacity="1"/><line transform="translate(0,15)" x2="300" y2="0" stroke="#ddd" stroke-width="1" opacity="1"/></g></g><path class="foreground" aria-hidden="true" d="" pointer-events="none" display="none"/></g></g><g class="mark-group role-axis" role="graphics-symbol" aria-roledescription="axis" aria-label="Y-axis for a linear scale with values from 0k to 18k"><g transform="translate(0.5,0.5)"><path class="background" aria-hidden="true" d="M0,0h0v0h0Z" pointer-events="none"/><g><g class="mark-rule role-axis-tick" pointer-events="none"><line transform="translate(0,90)" x2="-5" y2="0" stroke="#DCDDD6" stroke-width="1" opacity="1"/><line transform="translate(0,65)" x2="-5" y2="0" stroke="#DCDDD6" stroke-width="1" opacity="1"/><line transform="translate(0,40)" x2="-5" y2="0" stroke="#DCDDD6" stroke-width="1" opacity="1"/><line transform="translate(0,15)" x2="-5" y2="0" stroke="#DCDDD6" stroke-width="1" opacity="1"/></g><g class="mark-text role-axis-label" pointer-events="none"><text text-anchor="end" transform="translate(-7,93)" font-family="Asap" font-size="10px" fill="#000" opacity="1">0k</text><text text-anchor="end" transform="translate(-7,68)" font-family="Asap" font-size="10px" fill="#000" opacity="1">5k</text><text text-anchor="end" transform="translate(-7,43)" font-family="Asap" font-size="10px" fill="#000" opacity="1">10k</text><text text-anchor="end" transform="translate(-7,17.999999999999996)" font-family="Asap" font-size="10px" fill="#000" opacity="1">15k</text></g><g class="mark-rule role-axis-domain" pointer-events="none"><line transform="translate(0,90)" x2="0" y2="-90" stroke="#888" stroke-opacity="0" stroke-width="1" opacity="1"/></g></g><path class="foreground" aria-hidden="true" d="" pointer-events="none" display="none"/></g></g><g class="mark-group role-scope concat_0_child_pathgroup" role="graphics-object" aria-roledescription="group mark container"><g transform="translate(0,0)"><path class="background" aria-hidden="true" d="M0,0h300v90h-300Z"/><g><g class="mark-area role-mark concat_0_child_marks" role="graphics-object" aria-roledescription="area mark container"><path aria-label="rok: Jan 01, 1901; value: 1.807k; variable: všechny publikace" role="graphics-symbol" aria-roledescription="area mark" d="M0,80.965L2.457,79.81L4.915,80.135L7.372,80.52L9.836,80.945L12.294,78.805L14.751,79.62L17.208,78.29L19.672,78.765L22.13,77.27L24.587,77.63L27.044,77.035L29.509,76.56L31.966,79.83L34.423,83.03L36.881,82.455L39.345,82.135L41.802,80.47L44.259,72.885L46.717,68.495L49.181,71.015L51.638,68.845L54.096,68.855L56.553,66.555L59.017,63.695L61.474,65.74L63.932,66.6L66.389,65.275L68.853,65.68L71.311,62.365L73.768,65.11L76.225,66.85L78.689,66.86L81.147,65.65L83.604,62.655L86.061,57.81L88.526,57.665L90.983,61.945L93.44,68.965L95.898,62.21L98.361,63.675L100.819,76.475L103.276,79.605L105.734,77.69L108.198,74.58L110.655,59.74L113.113,57.55L115.57,63.095L118.034,70.135L120.491,69.85L122.949,67.225L125.406,68.005L127.87,64.975L130.328,63.215L132.785,65.26L135.242,65.455L137.706,65.365L140.164,62.435L142.621,59.375L145.079,60.525L147.543,59.815L150,62.19L152.457,60.775L154.915,62.335L157.379,64.04L159.836,64.275L162.294,64.39L164.751,65.2L167.215,65.48L169.672,63.775L172.13,63.22L174.587,63.635L177.051,62.66L179.509,61.985L181.966,62.16L184.423,61.065L186.887,62.165L189.345,61.765L191.802,60.41L194.259,59.465L196.724,59.77L199.181,59.315L201.638,59.045L204.096,58.235L206.56,57.915L209.017,56.98L211.474,55.5L213.932,55.96L216.396,54.635L218.853,55.37L221.311,53.995L223.768,46.81L226.232,47.56L228.689,45.31L231.147,41.06L233.604,37.725L236.068,35.28L238.526,33.85L240.983,31.795L243.44,27.405L245.904,27.26L248.362,26.415L250.819,20.935L253.276,21.14L255.741,19.115L258.198,14.225L260.655,9.93L263.113,6.36L265.577,12.245L268.034,10.445L270.491,13.03L272.949,12.325L275.413,13.855L277.87,13.785L280.328,16.255L282.785,20.005L285.249,21.09L287.706,19.19L290.164,21.37L292.621,27.63L295.085,25.325L297.543,23.635L300,31.255L300,90L297.543,90L295.085,90L292.621,90L290.164,90L287.706,90L285.249,90L282.785,90L280.328,90L277.87,90L275.413,90L272.949,90L270.491,90L268.034,90L265.577,90L263.113,90L260.655,90L258.198,90L255.741,90L253.276,90L250.819,90L248.362,90L245.904,90L243.44,90L240.983,90L238.526,90L236.068,90L233.604,90L231.147,90L228.689,90L226.232,90L223.768,90L221.311,90L218.853,90L216.396,90L213.932,90L211.474,90L209.017,90L206.56,90L204.096,90L201.638,90L199.181,90L196.724,90L194.259,90L191.802,90L189.345,90L186.887,90L184.423,90L181.966,90L179.509,90L177.051,90L174.587,90L172.13,90L169.672,90L167.215,90L164.751,90L162.294,90L159.836,90L157.379,90L154.915,90L152.457,90L150,90L147.543,90L145.079,90L142.621,90L140.164,90L137.706,90L135.242,90L132.785,90L130.328,90L127.87,90L125.406,90L122.949,90L120.491,90L118.034,90L115.57,90L113.113,90L110.655,90L108.198,90L105.734,90L103.276,90L100.819,90L98.361,90L95.898,90L93.44,90L90.983,90L88.526,90L86.061,90L83.604,90L81.147,90L78.689,90L76.225,90L73.768,90L71.311,90L68.853,90L66.389,90L63.932,90L61.474,90L59.017,90L56.553,90L54.096,90L51.638,90L49.181,90L46.717,90L44.259,90L41.802,90L39.345,90L36.881,90L34.423,90L31.966,90L29.509,90L27.044,90L24.587,90L22.13,90L19.672,90L17.208,90L14.751,90L12.294,90L9.836,90L7.372,90L4.915,90L2.457,90L0,90Z" fill="#8eba21"/></g></g><path class="foreground" aria-hidden="true" d="" display="none"/></g></g></g><path class="foreground" aria-hidden="true" d="" display="none"/></g><g transform="translate(0,112)"><path class="background" aria-hidden="true" d="M0.5,0.5h300v90h-300Z" stroke="#ddd"/><g><g class="mark-group role-axis" aria-hidden="true"><g transform="translate(0.5,90.5)"><path class="background" aria-hidden="true" d="M0,0h0v0h0Z" pointer-events="none"/><g><g class="mark-rule role-axis-grid" pointer-events="none"><line transform="translate(47,-90)" x2="0" y2="90" stroke="#ddd" stroke-width="1" opacity="1"/><line transform="translate(96,-90)" x2="0" y2="90" stroke="#ddd" stroke-width="1" opacity="1"/><line transform="translate(145,-90)" x2="0" y2="90" stroke="#ddd" stroke-width="1" opacity="1"/><line transform="translate(194,-90)" x2="0" y2="90" stroke="#ddd" stroke-width="1" opacity="1"/><line transform="translate(243,-90)" x2="0" y2="90" stroke="#ddd" stroke-width="1" opacity="1"/><line transform="translate(293,-90)" x2="0" y2="90" stroke="#ddd" stroke-width="1" opacity="1"/></g></g><path class="foreground" aria-hidden="true" d="" pointer-events="none" display="none"/></g></g><g class="mark-group role-axis" aria-hidden="true"><g transform="translate(0.5,0.5)"><path class="background" aria-hidden="true" d="M0,0h0v0h0Z" pointer-events="none"/><g><g class="mark-rule role-axis-grid" pointer-events="none"><line transform="translate(0,90)" x2="300" y2="0" stroke="#ddd" stroke-width="1" opacity="1"/><line transform="translate(0,49)" x2="300" y2="0" stroke="#ddd" stroke-width="1" opacity="1"/><line transform="translate(0,8)" x2="300" y2="0" stroke="#ddd" stroke-width="1" opacity="1"/></g></g><path class="foreground" aria-hidden="true" d="" pointer-events="none" display="none"/></g></g><g class="mark-group role-axis" role="graphics-symbol" aria-roledescription="axis" aria-label="Y-axis for a linear scale with values from 0k to 11k"><g transform="translate(0.5,0.5)"><path class="background" aria-hidden="true" d="M0,0h0v0h0Z" pointer-events="none"/><g><g class="mark-rule role-axis-tick" pointer-events="none"><line transform="translate(0,90)" x2="-5" y2="0" stroke="#DCDDD6" stroke-width="1" opacity="1"/><line transform="translate(0,49)" x2="-5" y2="0" stroke="#DCDDD6" stroke-width="1" opacity="1"/><line transform="translate(0,8)" x2="-5" y2="0" stroke="#DCDDD6" stroke-width="1" opacity="1"/></g><g class="mark-text role-axis-label" pointer-events="none"><text text-anchor="end" transform="translate(-7,93)" font-family="Asap" font-size="10px" fill="#000" opacity="1">0k</text><text text-anchor="end" transform="translate(-7,52.090909090909086)" font-family="Asap" font-size="10px" fill="#000" opacity="1">5k</text><text text-anchor="end" transform="translate(-7,11.181818181818185)" font-family="Asap" font-size="10px" fill="#000" opacity="1">10k</text></g><g class="mark-rule role-axis-domain" pointer-events="none"><line transform="translate(0,90)" x2="0" y2="-90" stroke="#888" stroke-opacity="0" stroke-width="1" opacity="1"/></g></g><path class="foreground" aria-hidden="true" d="" pointer-events="none" display="none"/></g></g><g class="mark-group role-scope concat_0_child_pathgroup" role="graphics-object" aria-roledescription="group mark container"><g transform="translate(0,0)"><path class="background" aria-hidden="true" d="M0,0h300v90h-300Z"/><g><g class="mark-area role-mark concat_0_child_marks" role="graphics-object" aria-roledescription="area mark container"><path aria-label="rok: Jan 01, 1901; value: 992; variable: novinky nad 50 stran" role="graphics-symbol" aria-roledescription="area mark" d="M0,81.884L2.457,80.763L4.915,81.507L7.372,81.892L9.836,82.015L12.294,81.99L14.751,81.941L17.208,80.378L19.672,80.836L22.13,78.889L24.587,79.323L27.044,79.159L29.509,78.758L31.966,82.211L34.423,84.543L36.881,84.535L39.345,84.24L41.802,83.045L44.259,79.045L46.717,75.256L49.181,77.089L51.638,75.485L54.096,74.913L56.553,72.728L59.017,69.75L61.474,70.732L63.932,70.781L66.389,69.93L68.853,70.773L71.311,68.384L73.768,70.634L76.225,72.556L78.689,72.933L81.147,72.605L83.604,71.1L86.061,68.146L88.526,68.204L90.983,71.059L93.44,75.469L95.898,72.041L98.361,72.908L100.819,80.967L103.276,82.497L105.734,81.245L108.198,81.393L110.655,67.991L113.113,65.185L115.57,68.457L118.034,77.245L120.491,74.888L122.949,70.298L125.406,71.149L127.87,67.214L130.328,64.972L132.785,67.385L135.242,67.115L137.706,67.058L140.164,64.579L142.621,63.483L145.079,64.096L147.543,62.992L150,63.802L152.457,62.182L154.915,62.656L157.379,64.113L159.836,63.409L162.294,64.882L164.751,64.939L167.215,66.305L169.672,64.98L172.13,63.99L174.587,63.859L177.051,62.673L179.509,61.765L181.966,61.527L184.423,61.437L186.887,62.108L189.345,61.036L191.802,58.778L194.259,57.314L196.724,58.091L199.181,55.972L201.638,55.996L204.096,55.203L206.56,56.127L209.017,54.589L211.474,53.542L213.932,54.245L216.396,52.83L218.853,54.761L221.311,54.72L223.768,42.022L226.232,40.451L228.689,36.507L231.147,31.214L233.604,27.745L236.068,24.799L238.526,25.282L240.983,25.061L243.44,20.831L245.904,20.037L248.362,19.923L250.819,15.938L253.276,11.438L255.741,9.139L258.198,5.04L260.655,3.019L263.113,1.186L265.577,5.703L268.034,3.87L270.491,3.788L272.949,7.2L275.413,5.924L277.87,5.515L280.328,7.036L282.785,12.428L285.249,12.232L287.706,9.794L290.164,13.451L292.621,18.908L295.085,19.334L297.543,20.225L300,26.247L300,90L297.543,90L295.085,90L292.621,90L290.164,90L287.706,90L285.249,90L282.785,90L280.328,90L277.87,90L275.413,90L272.949,90L270.491,90L268.034,90L265.577,90L263.113,90L260.655,90L258.198,90L255.741,90L253.276,90L250.819,90L248.362,90L245.904,90L243.44,90L240.983,90L238.526,90L236.068,90L233.604,90L231.147,90L228.689,90L226.232,90L223.768,90L221.311,90L218.853,90L216.396,90L213.932,90L211.474,90L209.017,90L206.56,90L204.096,90L201.638,90L199.181,90L196.724,90L194.259,90L191.802,90L189.345,90L186.887,90L184.423,90L181.966,90L179.509,90L177.051,90L174.587,90L172.13,90L169.672,90L167.215,90L164.751,90L162.294,90L159.836,90L157.379,90L154.915,90L152.457,90L150,90L147.543,90L145.079,90L142.621,90L140.164,90L137.706,90L135.242,90L132.785,90L130.328,90L127.87,90L125.406,90L122.949,90L120.491,90L118.034,90L115.57,90L113.113,90L110.655,90L108.198,90L105.734,90L103.276,90L100.819,90L98.361,90L95.898,90L93.44,90L90.983,90L88.526,90L86.061,90L83.604,90L81.147,90L78.689,90L76.225,90L73.768,90L71.311,90L68.853,90L66.389,90L63.932,90L61.474,90L59.017,90L56.553,90L54.096,90L51.638,90L49.181,90L46.717,90L44.259,90L41.802,90L39.345,90L36.881,90L34.423,90L31.966,90L29.509,90L27.044,90L24.587,90L22.13,90L19.672,90L17.208,90L14.751,90L12.294,90L9.836,90L7.372,90L4.915,90L2.457,90L0,90Z" fill="#8eba21"/></g></g><path class="foreground" aria-hidden="true" d="" display="none"/></g></g></g><path class="foreground" aria-hidden="true" d="" display="none"/></g><g transform="translate(0,224)"><path class="background" aria-hidden="true" d="M0.5,0.5h300v90h-300Z" stroke="#ddd"/><g><g class="mark-group role-axis" aria-hidden="true"><g transform="translate(0.5,90.5)"><path class="background" aria-hidden="true" d="M0,0h0v0h0Z" pointer-events="none"/><g><g class="mark-rule role-axis-grid" pointer-events="none"><line transform="translate(47,-90)" x2="0" y2="90" stroke="#ddd" stroke-width="1" opacity="1"/><line transform="translate(96,-90)" x2="0" y2="90" stroke="#ddd" stroke-width="1" opacity="1"/><line transform="translate(145,-90)" x2="0" y2="90" stroke="#ddd" stroke-width="1" opacity="1"/><line transform="translate(194,-90)" x2="0" y2="90" stroke="#ddd" stroke-width="1" opacity="1"/><line transform="translate(243,-90)" x2="0" y2="90" stroke="#ddd" stroke-width="1" opacity="1"/><line transform="translate(293,-90)" x2="0" y2="90" stroke="#ddd" stroke-width="1" opacity="1"/></g></g><path class="foreground" aria-hidden="true" d="" pointer-events="none" display="none"/></g></g><g class="mark-group role-axis" aria-hidden="true"><g transform="translate(0.5,0.5)"><path class="background" aria-hidden="true" d="M0,0h0v0h0Z" pointer-events="none"/><g><g class="mark-rule role-axis-grid" pointer-events="none"><line transform="translate(0,90)" x2="300" y2="0" stroke="#ddd" stroke-width="1" opacity="1"/><line transform="translate(0,58)" x2="300" y2="0" stroke="#ddd" stroke-width="1" opacity="1"/><line transform="translate(0,26)" x2="300" y2="0" stroke="#ddd" stroke-width="1" opacity="1"/></g></g><path class="foreground" aria-hidden="true" d="" pointer-events="none" display="none"/></g></g><g class="mark-group role-axis" role="graphics-symbol" aria-roledescription="axis" aria-label="Y-axis for a linear scale with values from 0m to 280m"><g transform="translate(0.5,0.5)"><path class="background" aria-hidden="true" d="M0,0h0v0h0Z" pointer-events="none"/><g><g class="mark-rule role-axis-tick" pointer-events="none"><line transform="translate(0,90)" x2="-5" y2="0" stroke="#DCDDD6" stroke-width="1" opacity="1"/><line transform="translate(0,58)" x2="-5" y2="0" stroke="#DCDDD6" stroke-width="1" opacity="1"/><line transform="translate(0,26)" x2="-5" y2="0" stroke="#DCDDD6" stroke-width="1" opacity="1"/></g><g class="mark-text role-axis-label" pointer-events="none"><text text-anchor="end" transform="translate(-7,93)" font-family="Asap" font-size="10px" fill="#000" opacity="1">0m</text><text text-anchor="end" transform="translate(-7,60.857142857142854)" font-family="Asap" font-size="10px" fill="#000" opacity="1">100m</text><text text-anchor="end" transform="translate(-7,28.71428571428571)" font-family="Asap" font-size="10px" fill="#000" opacity="1">200m</text></g><g class="mark-rule role-axis-domain" pointer-events="none"><line transform="translate(0,90)" x2="0" y2="-90" stroke="#888" stroke-opacity="0" stroke-width="1" opacity="1"/></g></g><path class="foreground" aria-hidden="true" d="" pointer-events="none" display="none"/></g></g><g class="mark-group role-scope concat_0_child_pathgroup" role="graphics-object" aria-roledescription="group mark container"><g transform="translate(0,0)"><path class="background" aria-hidden="true" d="M0,0h300v90h-300Z"/><g><g class="mark-area role-mark concat_0_child_marks" role="graphics-object" aria-roledescription="area mark container"><path aria-label="rok: Jan 01, 1901; value: 110.032m; variable: podíl překladů" role="graphics-symbol" aria-roledescription="area mark" d="M0,54.632L2.457,42.834L4.915,40.893L7.372,45.792L9.836,51.429L12.294,54.688L14.751,51.039L17.208,51.111L19.672,49.147L22.13,51.332L24.587,45.584L27.044,40.363L29.509,42.711L31.966,47.96L34.423,42.765L36.881,39.134L39.345,39.029L41.802,48.688L44.259,46.535L46.717,48.904L49.181,43.094L51.638,53.394L54.096,42.95L56.553,53.226L59.017,52.657L61.474,60.85L63.932,58.126L66.389,52.531L68.853,48.628L71.311,53.063L73.768,48.484L76.225,49.14L78.689,44.483L81.147,38.269L83.604,36.949L86.061,32.296L88.526,33.277L90.983,25.947L93.44,13.004L95.898,23.298L98.361,13.668L100.819,9.827L103.276,15.506L105.734,10.729L108.198,12.757L110.655,34.772L113.113,37.262L115.57,44.333L118.034,50.746L120.491,61.482L122.949,71.134L125.406,68.244L127.87,61.119L130.328,57.166L132.785,43.233L135.242,42.532L137.706,36.307L140.164,32.995L142.621,32.064L145.079,30.833L147.543,23.509L150,24.057L152.457,21.224L154.915,28.724L157.379,23.52L159.836,19.698L162.294,18.918L164.751,18.782L167.215,28.319L169.672,24.841L172.13,22.635L174.587,20.269L177.051,15.328L179.509,20.406L181.966,19.875L184.423,16.797L186.887,16.262L189.345,11.086L191.802,3.816L194.259,4.103L196.724,2.526L199.181,11.17L201.638,27.261L204.096,37.133L206.56,25.883L209.017,27.649L211.474,25.349L213.932,32.293L216.396,21.292L218.853,27.867L221.311,28.119L223.768,27.77L226.232,29.189L228.689,38.735L231.147,41.82L233.604,42.394L236.068,37.354L238.526,37.162L240.983,35.936L243.44,33.157L245.904,29.477L248.362,31.159L250.819,24.959L253.276,27.962L255.741,23.45L258.198,23.715L260.655,24.033L263.113,24.983L265.577,24.709L268.034,27.88L270.491,34.168L272.949,36.793L275.413,37.626L277.87,36.604L280.328,42.715L282.785,44.86L285.249,45.622L287.706,45.064L290.164,49.403L292.621,51.596L295.085,47.626L297.543,49.633L300,50.318L300,90L297.543,90L295.085,90L292.621,90L290.164,90L287.706,90L285.249,90L282.785,90L280.328,90L277.87,90L275.413,90L272.949,90L270.491,90L268.034,90L265.577,90L263.113,90L260.655,90L258.198,90L255.741,90L253.276,90L250.819,90L248.362,90L245.904,90L243.44,90L240.983,90L238.526,90L236.068,90L233.604,90L231.147,90L228.689,90L226.232,90L223.768,90L221.311,90L218.853,90L216.396,90L213.932,90L211.474,90L209.017,90L206.56,90L204.096,90L201.638,90L199.181,90L196.724,90L194.259,90L191.802,90L189.345,90L186.887,90L184.423,90L181.966,90L179.509,90L177.051,90L174.587,90L172.13,90L169.672,90L167.215,90L164.751,90L162.294,90L159.836,90L157.379,90L154.915,90L152.457,90L150,90L147.543,90L145.079,90L142.621,90L140.164,90L137.706,90L135.242,90L132.785,90L130.328,90L127.87,90L125.406,90L122.949,90L120.491,90L118.034,90L115.57,90L113.113,90L110.655,90L108.198,90L105.734,90L103.276,90L100.819,90L98.361,90L95.898,90L93.44,90L90.983,90L88.526,90L86.061,90L83.604,90L81.147,90L78.689,90L76.225,90L73.768,90L71.311,90L68.853,90L66.389,90L63.932,90L61.474,90L59.017,90L56.553,90L54.096,90L51.638,90L49.181,90L46.717,90L44.259,90L41.802,90L39.345,90L36.881,90L34.423,90L31.966,90L29.509,90L27.044,90L24.587,90L22.13,90L19.672,90L17.208,90L14.751,90L12.294,90L9.836,90L7.372,90L4.915,90L2.457,90L0,90Z" fill="#f77961"/></g></g><path class="foreground" aria-hidden="true" d="" display="none"/></g></g></g><path class="foreground" aria-hidden="true" d="" display="none"/></g></g><g class="mark-group role-title"><g transform="translate(-133.8499984741211,-58)"><path class="background" aria-hidden="true" d="M0,0h0v0h0Z" pointer-events="none"/><g><g class="mark-text role-title-text" role="graphics-symbol" aria-roledescription="title" aria-label="Title text 'Vývoj knižní produkce na českém území'" pointer-events="none"><text text-anchor="start" transform="translate(0,-1)" font-family="Noticia Text" font-size="14px" font-weight="bolder" fill="#000" opacity="1">Vývoj knižní produkce na českém území</text></g><g class="mark-text role-title-subtitle" role="graphics-symbol" aria-roledescription="subtitle" aria-label="Subtitle text 'Celkové počty záznamů v České národní bibliografii. Vedle klasických knih může jít i o katalogy výstav apod.'" pointer-events="none"><text text-anchor="start" transform="translate(0,21)" font-family="Noticia Text" font-size="12px" font-weight="normal" fill="#000" opacity="1"><tspan>Celkové počty záznamů v České národní bibliografii.</tspan><tspan x="0" dy="18">Vedle klasických knih může jít i o katalogy výstav apod.</tspan></text></g></g><path class="foreground" aria-hidden="true" d="" pointer-events="none" display="none"/></g></g></g><path class="foreground" aria-hidden="true" d="" display="none"/></g></g><g class="mark-group role-scope concat_1_group" role="graphics-object" aria-roledescription="group mark container"><g transform="translate(0,358)"><path class="background" aria-hidden="true" d="M0,0h300v20h-300Z"/><g><g class="mark-text role-mark concat_1_marks" role="graphics-object" aria-roledescription="text mark container"><text aria-label="text: zdroj dat: Česká národní bibliografie · vizualizace: iROZHLAS.cz · 2025" role="graphics-symbol" aria-roledescription="text mark" text-anchor="middle" transform="translate(150,7)" font-family="Asap" font-size="10px" fill="black">zdroj dat: Česká národní bibliografie · vizualizace: iROZHLAS.cz · 2025</text></g></g><path class="foreground" aria-hidden="true" d="" display="none"/></g></g></g><path class="foreground" aria-hidden="true" d="" display="none"/></g></g></g></svg>