<svg xmlns="http://www.w3.org/2000/svg" xmlns:xlink="http://www.w3.org/1999/xlink" version="1.1" class="marks" width="356" height="408" viewBox="0 0 356 408"><rect width="356" height="408" fill="white"/><g fill="none" stroke-miterlimit="10" transform="translate(70,63)"><g class="mark-group role-frame root" role="graphics-object" aria-roledescription="group mark container"><g transform="translate(0,0)"><path class="background" aria-hidden="true" d="M0,0h0v0h0Z"/><g><g class="mark-group role-row-header row_header" role="graphics-object" aria-roledescription="group mark container"><g transform="translate(-3,0)"><path class="background" aria-hidden="true" d="M0,0h0v80h0Z"/><g><g class="mark-group role-title"><g transform="translate(-43.459999084472656,40)"><path class="background" aria-hidden="true" d="M0,0h0v0h0Z" pointer-events="none"/><g><g class="mark-text role-title-text" role="graphics-symbol" aria-roledescription="title" aria-label="Title text 'romány'" pointer-events="none"><text text-anchor="start" transform="translate(0,3)" font-family="Asap" font-size="10px" fill="#000" opacity="1">romány</text></g></g><path class="foreground" aria-hidden="true" d="" pointer-events="none" display="none"/></g></g></g><path class="foreground" aria-hidden="true" d="" display="none"/></g><g transform="translate(-3,121)"><path class="background" aria-hidden="true" d="M0,0h0v80h0Z"/><g><g class="mark-group role-title"><g transform="translate(-61.09999084472656,40)"><path class="background" aria-hidden="true" d="M0,0h0v0h0Z" pointer-events="none"/><g><g class="mark-text role-title-text" role="graphics-symbol" aria-roledescription="title" aria-label="Title text 'kratší prózy'" pointer-events="none"><text text-anchor="start" transform="translate(0,3)" font-family="Asap" font-size="10px" fill="#000" opacity="1">kratší prózy</text></g></g><path class="foreground" aria-hidden="true" d="" pointer-events="none" display="none"/></g></g></g><path class="foreground" aria-hidden="true" d="" display="none"/></g><g transform="translate(-3,242)"><path class="background" aria-hidden="true" d="M0,0h0v80h0Z"/><g><g class="mark-group role-title"><g transform="translate(-39.73999786376953,40)"><path class="background" aria-hidden="true" d="M0,0h0v0h0Z" pointer-events="none"/><g><g class="mark-text role-title-text" role="graphics-symbol" aria-roledescription="title" aria-label="Title text 'poezie'" pointer-events="none"><text text-anchor="start" transform="translate(0,3)" font-family="Asap" font-size="10px" fill="#000" opacity="1">poezie</text></g></g><path class="foreground" aria-hidden="true" d="" pointer-events="none" display="none"/></g></g></g><path class="foreground" aria-hidden="true" d="" display="none"/></g></g><g class="mark-group role-row-footer row_footer" role="graphics-object" aria-roledescription="group mark container"><g transform="translate(253,0)"><path class="background" aria-hidden="true" d="M0,0h0v80h0Z"/><g><g class="mark-group role-axis" role="graphics-symbol" aria-roledescription="axis" aria-label="Y-axis for a linear scale with values from 0.0 to 0.5"><g transform="translate(0.5,0.5)"><path class="background" aria-hidden="true" d="M0,0h0v0h0Z" pointer-events="none"/><g><g class="mark-rule role-axis-tick" pointer-events="none"><line transform="translate(0,80)" x2="5" y2="0" stroke="#DCDDD6" stroke-width="1" opacity="1"/><line transform="translate(0,64)" x2="5" y2="0" stroke="#DCDDD6" stroke-width="1" opacity="1"/><line transform="translate(0,48)" x2="5" y2="0" stroke="#DCDDD6" stroke-width="1" opacity="1"/><line transform="translate(0,32)" x2="5" y2="0" stroke="#DCDDD6" stroke-width="1" opacity="1"/><line transform="translate(0,16)" x2="5" y2="0" stroke="#DCDDD6" stroke-width="1" opacity="1"/><line transform="translate(0,0)" x2="5" y2="0" stroke="#DCDDD6" stroke-width="1" opacity="1"/></g><g class="mark-text role-axis-label" pointer-events="none"><text text-anchor="start" transform="translate(7,83)" font-family="Asap" font-size="10px" fill="#000" opacity="1">0 %</text><text text-anchor="start" transform="translate(7,67)" font-family="Asap" font-size="10px" fill="#000" opacity="1">10 %</text><text text-anchor="start" transform="translate(7,51)" font-family="Asap" font-size="10px" fill="#000" opacity="1">20 %</text><text text-anchor="start" transform="translate(7,35)" font-family="Asap" font-size="10px" fill="#000" opacity="1">30 %</text><text text-anchor="start" transform="translate(7,18.999999999999996)" font-family="Asap" font-size="10px" fill="#000" opacity="1">40 %</text><text text-anchor="start" transform="translate(7,3)" font-family="Asap" font-size="10px" fill="#000" opacity="1">50 %</text></g><g class="mark-rule role-axis-domain" pointer-events="none"><line transform="translate(0,80)" x2="0" y2="-80" stroke="#888" stroke-opacity="0" stroke-width="1" opacity="1"/></g></g><path class="foreground" aria-hidden="true" d="" pointer-events="none" display="none"/></g></g></g><path class="foreground" aria-hidden="true" d="" display="none"/></g><g transform="translate(253,121)"><path class="background" aria-hidden="true" d="M0,0h0v80h0Z"/><g><g class="mark-group role-axis" role="graphics-symbol" aria-roledescription="axis" aria-label="Y-axis for a linear scale with values from 0.0 to 0.5"><g transform="translate(0.5,0.5)"><path class="background" aria-hidden="true" d="M0,0h0v0h0Z" pointer-events="none"/><g><g class="mark-rule role-axis-tick" pointer-events="none"><line transform="translate(0,80)" x2="5" y2="0" stroke="#DCDDD6" stroke-width="1" opacity="1"/><line transform="translate(0,64)" x2="5" y2="0" stroke="#DCDDD6" stroke-width="1" opacity="1"/><line transform="translate(0,48)" x2="5" y2="0" stroke="#DCDDD6" stroke-width="1" opacity="1"/><line transform="translate(0,32)" x2="5" y2="0" stroke="#DCDDD6" stroke-width="1" opacity="1"/><line transform="translate(0,16)" x2="5" y2="0" stroke="#DCDDD6" stroke-width="1" opacity="1"/><line transform="translate(0,0)" x2="5" y2="0" stroke="#DCDDD6" stroke-width="1" opacity="1"/></g><g class="mark-text role-axis-label" pointer-events="none"><text text-anchor="start" transform="translate(7,83)" font-family="Asap" font-size="10px" fill="#000" opacity="1">0 %</text><text text-anchor="start" transform="translate(7,67)" font-family="Asap" font-size="10px" fill="#000" opacity="1">10 %</text><text text-anchor="start" transform="translate(7,51)" font-family="Asap" font-size="10px" fill="#000" opacity="1">20 %</text><text text-anchor="start" transform="translate(7,35)" font-family="Asap" font-size="10px" fill="#000" opacity="1">30 %</text><text text-anchor="start" transform="translate(7,18.999999999999996)" font-family="Asap" font-size="10px" fill="#000" opacity="1">40 %</text><text text-anchor="start" transform="translate(7,3)" font-family="Asap" font-size="10px" fill="#000" opacity="1">50 %</text></g><g class="mark-rule role-axis-domain" pointer-events="none"><line transform="translate(0,80)" x2="0" y2="-80" stroke="#888" stroke-opacity="0" stroke-width="1" opacity="1"/></g></g><path class="foreground" aria-hidden="true" d="" pointer-events="none" display="none"/></g></g></g><path class="foreground" aria-hidden="true" d="" display="none"/></g><g transform="translate(253,242)"><path class="background" aria-hidden="true" d="M0,0h0v80h0Z"/><g><g class="mark-group role-axis" role="graphics-symbol" aria-roledescription="axis" aria-label="Y-axis for a linear scale with values from 0.0 to 0.5"><g transform="translate(0.5,0.5)"><path class="background" aria-hidden="true" d="M0,0h0v0h0Z" pointer-events="none"/><g><g class="mark-rule role-axis-tick" pointer-events="none"><line transform="translate(0,80)" x2="5" y2="0" stroke="#DCDDD6" stroke-width="1" opacity="1"/><line transform="translate(0,64)" x2="5" y2="0" stroke="#DCDDD6" stroke-width="1" opacity="1"/><line transform="translate(0,48)" x2="5" y2="0" stroke="#DCDDD6" stroke-width="1" opacity="1"/><line transform="translate(0,32)" x2="5" y2="0" stroke="#DCDDD6" stroke-width="1" opacity="1"/><line transform="translate(0,16)" x2="5" y2="0" stroke="#DCDDD6" stroke-width="1" opacity="1"/><line transform="translate(0,0)" x2="5" y2="0" stroke="#DCDDD6" stroke-width="1" opacity="1"/></g><g class="mark-text role-axis-label" pointer-events="none"><text text-anchor="start" transform="translate(7,83)" font-family="Asap" font-size="10px" fill="#000" opacity="1">0 %</text><text text-anchor="start" transform="translate(7,67)" font-family="Asap" font-size="10px" fill="#000" opacity="1">10 %</text><text text-anchor="start" transform="translate(7,51)" font-family="Asap" font-size="10px" fill="#000" opacity="1">20 %</text><text text-anchor="start" transform="translate(7,35)" font-family="Asap" font-size="10px" fill="#000" opacity="1">30 %</text><text text-anchor="start" transform="translate(7,18.999999999999996)" font-family="Asap" font-size="10px" fill="#000" opacity="1">40 %</text><text text-anchor="start" transform="translate(7,3)" font-family="Asap" font-size="10px" fill="#000" opacity="1">50 %</text></g><g class="mark-rule role-axis-domain" pointer-events="none"><line transform="translate(0,80)" x2="0" y2="-80" stroke="#888" stroke-opacity="0" stroke-width="1" opacity="1"/></g></g><path class="foreground" aria-hidden="true" d="" pointer-events="none" display="none"/></g></g></g><path class="foreground" aria-hidden="true" d="" display="none"/></g></g><g class="mark-group role-scope cell" role="graphics-object" aria-roledescription="group mark container"><g transform="translate(0,0)"><path class="background" aria-hidden="true" d="M0.5,0.5h250v80h-250Z"/><g><g class="mark-group role-axis" aria-hidden="true"><g transform="translate(0.5,80.5)"><path class="background" aria-hidden="true" d="M0,0h0v0h0Z" pointer-events="none"/><g><g class="mark-rule role-axis-grid" pointer-events="none"><line transform="translate(0,-80)" x2="0" y2="80" stroke="#ddd" stroke-width="1" opacity="1"/><line transform="translate(50,-80)" x2="0" y2="80" stroke="#ddd" stroke-width="1" opacity="1"/><line transform="translate(100,-80)" x2="0" y2="80" stroke="#ddd" stroke-width="1" opacity="1"/><line transform="translate(150,-80)" x2="0" y2="80" stroke="#ddd" stroke-width="1" opacity="1"/><line transform="translate(200,-80)" x2="0" y2="80" stroke="#ddd" stroke-width="1" opacity="1"/><line transform="translate(250,-80)" x2="0" y2="80" stroke="#ddd" stroke-width="1" opacity="1"/></g></g><path class="foreground" aria-hidden="true" d="" pointer-events="none" display="none"/></g></g><g class="mark-group role-axis" aria-hidden="true"><g transform="translate(250.5,0.5)"><path class="background" aria-hidden="true" d="M0,0h0v0h0Z" pointer-events="none"/><g><g class="mark-rule role-axis-grid" pointer-events="none"><line transform="translate(0,80)" x2="-250" y2="0" stroke="#ddd" stroke-width="1" opacity="1"/><line transform="translate(0,64)" x2="-250" y2="0" stroke="#ddd" stroke-width="1" opacity="1"/><line transform="translate(0,48)" x2="-250" y2="0" stroke="#ddd" stroke-width="1" opacity="1"/><line transform="translate(0,32)" x2="-250" y2="0" stroke="#ddd" stroke-width="1" opacity="1"/><line transform="translate(0,16)" x2="-250" y2="0" stroke="#ddd" stroke-width="1" opacity="1"/><line transform="translate(0,0)" x2="-250" y2="0" stroke="#ddd" stroke-width="1" opacity="1"/></g></g><path class="foreground" aria-hidden="true" d="" pointer-events="none" display="none"/></g></g><g class="mark-group role-axis" role="graphics-symbol" aria-roledescription="axis" aria-label="X-axis for a time scale with values from Saturday, 01 January 2000, 12:00:00 AM to Wednesday, 01 January 2025, 12:00:00 AM"><g transform="translate(0.5,80.5)"><path class="background" aria-hidden="true" d="M0,0h0v0h0Z" pointer-events="none"/><g><g class="mark-rule role-axis-tick" pointer-events="none"><line transform="translate(0,0)" x2="0" y2="5" stroke="#DCDDD6" stroke-width="1" opacity="1"/><line transform="translate(50,0)" x2="0" y2="5" stroke="#DCDDD6" stroke-width="1" opacity="1"/><line transform="translate(100,0)" x2="0" y2="5" stroke="#DCDDD6" stroke-width="1" opacity="1"/><line transform="translate(150,0)" x2="0" y2="5" stroke="#DCDDD6" stroke-width="1" opacity="1"/><line transform="translate(200,0)" x2="0" y2="5" stroke="#DCDDD6" stroke-width="1" opacity="1"/><line transform="translate(250,0)" x2="0" y2="5" stroke="#DCDDD6" stroke-width="1" opacity="1"/></g><g class="mark-text role-axis-label" pointer-events="none"><text text-anchor="start" transform="translate(0,15)" font-family="Asap" font-size="10px" fill="#000" opacity="1">2000</text><text text-anchor="middle" transform="translate(50.016425755584756,15)" font-family="Asap" font-size="10px" fill="#000" opacity="1">2005</text><text text-anchor="middle" transform="translate(100.00547525186158,15)" font-family="Asap" font-size="10px" fill="#000" opacity="1">2010</text><text text-anchor="middle" transform="translate(149.9945247481384,15)" font-family="Asap" font-size="10px" fill="#000" opacity="1">2015</text><text text-anchor="middle" transform="translate(199.98357424441522,15)" font-family="Asap" font-size="10px" fill="#000" opacity="1">2020</text><text text-anchor="end" transform="translate(250,15)" font-family="Asap" font-size="10px" fill="#000" opacity="1">2025</text></g><g class="mark-rule role-axis-domain" pointer-events="none"><line transform="translate(0,0)" x2="250" y2="0" stroke="#888" stroke-opacity="0" stroke-width="1" opacity="1"/></g></g><path class="foreground" aria-hidden="true" d="" pointer-events="none" display="none"/></g></g><g class="mark-line role-mark child_marks" role="graphics-object" aria-roledescription="line mark container"><path aria-label="rok: Jan 01, 2000; podil_zen: 0.469820298061" role="graphics-symbol" aria-roledescription="line mark" d="M0,4.829L10.02,7.855L20.012,12.903L30.004,15.395L39.997,12.836L50.016,11.191L60.009,4.691L70.001,-0.543L79.993,1.712L90.013,4.082L100.005,7.002L109.998,5.886L119.99,5.288L130.01,8.877L140.002,10.046L149.995,7.927L159.987,8.878L170.007,12.021L179.999,12.36L189.991,9.856L199.984,4.674L210.003,4.594L219.996,3.282L229.988,-0.216L239.98,-3.935L250,-3.718" stroke="#4c78a8" stroke-width="2"/></g></g><path class="foreground" aria-hidden="true" d="" display="none"/></g><g transform="translate(0,121)"><path class="background" aria-hidden="true" d="M0.5,0.5h250v80h-250Z"/><g><g class="mark-group role-axis" aria-hidden="true"><g transform="translate(0.5,80.5)"><path class="background" aria-hidden="true" d="M0,0h0v0h0Z" pointer-events="none"/><g><g class="mark-rule role-axis-grid" pointer-events="none"><line transform="translate(0,-80)" x2="0" y2="80" stroke="#ddd" stroke-width="1" opacity="1"/><line transform="translate(50,-80)" x2="0" y2="80" stroke="#ddd" stroke-width="1" opacity="1"/><line transform="translate(100,-80)" x2="0" y2="80" stroke="#ddd" stroke-width="1" opacity="1"/><line transform="translate(150,-80)" x2="0" y2="80" stroke="#ddd" stroke-width="1" opacity="1"/><line transform="translate(200,-80)" x2="0" y2="80" stroke="#ddd" stroke-width="1" opacity="1"/><line transform="translate(250,-80)" x2="0" y2="80" stroke="#ddd" stroke-width="1" opacity="1"/></g></g><path class="foreground" aria-hidden="true" d="" pointer-events="none" display="none"/></g></g><g class="mark-group role-axis" aria-hidden="true"><g transform="translate(250.5,0.5)"><path class="background" aria-hidden="true" d="M0,0h0v0h0Z" pointer-events="none"/><g><g class="mark-rule role-axis-grid" pointer-events="none"><line transform="translate(0,80)" x2="-250" y2="0" stroke="#ddd" stroke-width="1" opacity="1"/><line transform="translate(0,64)" x2="-250" y2="0" stroke="#ddd" stroke-width="1" opacity="1"/><line transform="translate(0,48)" x2="-250" y2="0" stroke="#ddd" stroke-width="1" opacity="1"/><line transform="translate(0,32)" x2="-250" y2="0" stroke="#ddd" stroke-width="1" opacity="1"/><line transform="translate(0,16)" x2="-250" y2="0" stroke="#ddd" stroke-width="1" opacity="1"/><line transform="translate(0,0)" x2="-250" y2="0" stroke="#ddd" stroke-width="1" opacity="1"/></g></g><path class="foreground" aria-hidden="true" d="" pointer-events="none" display="none"/></g></g><g class="mark-group role-axis" role="graphics-symbol" aria-roledescription="axis" aria-label="X-axis for a time scale with values from Saturday, 01 January 2000, 12:00:00 AM to Wednesday, 01 January 2025, 12:00:00 AM"><g transform="translate(0.5,80.5)"><path class="background" aria-hidden="true" d="M0,0h0v0h0Z" pointer-events="none"/><g><g class="mark-rule role-axis-tick" pointer-events="none"><line transform="translate(0,0)" x2="0" y2="5" stroke="#DCDDD6" stroke-width="1" opacity="1"/><line transform="translate(50,0)" x2="0" y2="5" stroke="#DCDDD6" stroke-width="1" opacity="1"/><line transform="translate(100,0)" x2="0" y2="5" stroke="#DCDDD6" stroke-width="1" opacity="1"/><line transform="translate(150,0)" x2="0" y2="5" stroke="#DCDDD6" stroke-width="1" opacity="1"/><line transform="translate(200,0)" x2="0" y2="5" stroke="#DCDDD6" stroke-width="1" opacity="1"/><line transform="translate(250,0)" x2="0" y2="5" stroke="#DCDDD6" stroke-width="1" opacity="1"/></g><g class="mark-text role-axis-label" pointer-events="none"><text text-anchor="start" transform="translate(0,15)" font-family="Asap" font-size="10px" fill="#000" opacity="1">2000</text><text text-anchor="middle" transform="translate(50.016425755584756,15)" font-family="Asap" font-size="10px" fill="#000" opacity="1">2005</text><text text-anchor="middle" transform="translate(100.00547525186158,15)" font-family="Asap" font-size="10px" fill="#000" opacity="1">2010</text><text text-anchor="middle" transform="translate(149.9945247481384,15)" font-family="Asap" font-size="10px" fill="#000" opacity="1">2015</text><text text-anchor="middle" transform="translate(199.98357424441522,15)" font-family="Asap" font-size="10px" fill="#000" opacity="1">2020</text><text text-anchor="end" transform="translate(250,15)" font-family="Asap" font-size="10px" fill="#000" opacity="1">2025</text></g><g class="mark-rule role-axis-domain" pointer-events="none"><line transform="translate(0,0)" x2="250" y2="0" stroke="#888" stroke-opacity="0" stroke-width="1" opacity="1"/></g></g><path class="foreground" aria-hidden="true" d="" pointer-events="none" display="none"/></g></g><g class="mark-line role-mark child_marks" role="graphics-object" aria-roledescription="line mark container"><path aria-label="rok: Jan 01, 2000; podil_zen: 0.252642094747" role="graphics-symbol" aria-roledescription="line mark" d="M0,39.577L10.02,38.799L20.012,39.733L30.004,42.736L39.997,38.5L50.016,31.053L60.009,29.562L70.001,26.784L79.993,27.137L90.013,24.487L100.005,24.127L109.998,22.922L119.99,15.784L130.01,14.381L140.002,13.979L149.995,12.713L159.987,13.124L170.007,10.383L179.999,8.093L189.991,6.715L199.984,4.989L210.003,1.88L219.996,2.249L229.988,1.235L239.98,0.242L250,8.114" stroke="#4c78a8" stroke-width="2"/></g></g><path class="foreground" aria-hidden="true" d="" display="none"/></g><g transform="translate(0,242)"><path class="background" aria-hidden="true" d="M0.5,0.5h250v80h-250Z"/><g><g class="mark-group role-axis" aria-hidden="true"><g transform="translate(0.5,80.5)"><path class="background" aria-hidden="true" d="M0,0h0v0h0Z" pointer-events="none"/><g><g class="mark-rule role-axis-grid" pointer-events="none"><line transform="translate(0,-80)" x2="0" y2="80" stroke="#ddd" stroke-width="1" opacity="1"/><line transform="translate(50,-80)" x2="0" y2="80" stroke="#ddd" stroke-width="1" opacity="1"/><line transform="translate(100,-80)" x2="0" y2="80" stroke="#ddd" stroke-width="1" opacity="1"/><line transform="translate(150,-80)" x2="0" y2="80" stroke="#ddd" stroke-width="1" opacity="1"/><line transform="translate(200,-80)" x2="0" y2="80" stroke="#ddd" stroke-width="1" opacity="1"/><line transform="translate(250,-80)" x2="0" y2="80" stroke="#ddd" stroke-width="1" opacity="1"/></g></g><path class="foreground" aria-hidden="true" d="" pointer-events="none" display="none"/></g></g><g class="mark-group role-axis" aria-hidden="true"><g transform="translate(250.5,0.5)"><path class="background" aria-hidden="true" d="M0,0h0v0h0Z" pointer-events="none"/><g><g class="mark-rule role-axis-grid" pointer-events="none"><line transform="translate(0,80)" x2="-250" y2="0" stroke="#ddd" stroke-width="1" opacity="1"/><line transform="translate(0,64)" x2="-250" y2="0" stroke="#ddd" stroke-width="1" opacity="1"/><line transform="translate(0,48)" x2="-250" y2="0" stroke="#ddd" stroke-width="1" opacity="1"/><line transform="translate(0,32)" x2="-250" y2="0" stroke="#ddd" stroke-width="1" opacity="1"/><line transform="translate(0,16)" x2="-250" y2="0" stroke="#ddd" stroke-width="1" opacity="1"/><line transform="translate(0,0)" x2="-250" y2="0" stroke="#ddd" stroke-width="1" opacity="1"/></g></g><path class="foreground" aria-hidden="true" d="" pointer-events="none" display="none"/></g></g><g class="mark-group role-axis" role="graphics-symbol" aria-roledescription="axis" aria-label="X-axis for a time scale with values from Saturday, 01 January 2000, 12:00:00 AM to Wednesday, 01 January 2025, 12:00:00 AM"><g transform="translate(0.5,80.5)"><path class="background" aria-hidden="true" d="M0,0h0v0h0Z" pointer-events="none"/><g><g class="mark-rule role-axis-tick" pointer-events="none"><line transform="translate(0,0)" x2="0" y2="5" stroke="#DCDDD6" stroke-width="1" opacity="1"/><line transform="translate(50,0)" x2="0" y2="5" stroke="#DCDDD6" stroke-width="1" opacity="1"/><line transform="translate(100,0)" x2="0" y2="5" stroke="#DCDDD6" stroke-width="1" opacity="1"/><line transform="translate(150,0)" x2="0" y2="5" stroke="#DCDDD6" stroke-width="1" opacity="1"/><line transform="translate(200,0)" x2="0" y2="5" stroke="#DCDDD6" stroke-width="1" opacity="1"/><line transform="translate(250,0)" x2="0" y2="5" stroke="#DCDDD6" stroke-width="1" opacity="1"/></g><g class="mark-text role-axis-label" pointer-events="none"><text text-anchor="start" transform="translate(0,15)" font-family="Asap" font-size="10px" fill="#000" opacity="1">2000</text><text text-anchor="middle" transform="translate(50.016425755584756,15)" font-family="Asap" font-size="10px" fill="#000" opacity="1">2005</text><text text-anchor="middle" transform="translate(100.00547525186158,15)" font-family="Asap" font-size="10px" fill="#000" opacity="1">2010</text><text text-anchor="middle" transform="translate(149.9945247481384,15)" font-family="Asap" font-size="10px" fill="#000" opacity="1">2015</text><text text-anchor="middle" transform="translate(199.98357424441522,15)" font-family="Asap" font-size="10px" fill="#000" opacity="1">2020</text><text text-anchor="end" transform="translate(250,15)" font-family="Asap" font-size="10px" fill="#000" opacity="1">2025</text></g><g class="mark-rule role-axis-domain" pointer-events="none"><line transform="translate(0,0)" x2="250" y2="0" stroke="#888" stroke-opacity="0" stroke-width="1" opacity="1"/></g></g><path class="foreground" aria-hidden="true" d="" pointer-events="none" display="none"/></g></g><g class="mark-line role-mark child_marks" role="graphics-object" aria-roledescription="line mark container"><path aria-label="rok: Jan 01, 2000; podil_zen: 0.214317323962" role="graphics-symbol" aria-roledescription="line mark" d="M0,45.709L10.02,46.96L20.012,45.725L30.004,40.406L39.997,41.823L50.016,43.041L60.009,35.866L70.001,36.054L79.993,37.175L90.013,33.024L100.005,30.229L109.998,31.19L119.99,36.347L130.01,34.169L140.002,28.729L149.995,31.939L159.987,34.061L170.007,32.64L179.999,30.92L189.991,27.071L199.984,29.817L210.003,28.308L219.996,26.466L229.988,30.575L239.98,28.266L250,32.404" stroke="#4c78a8" stroke-width="2"/></g></g><path class="foreground" aria-hidden="true" d="" display="none"/></g></g><g class="mark-group role-title"><g transform="translate(-64.09999084472656,-45.93452607537114)"><path class="background" aria-hidden="true" d="M0,0h0v0h0Z" pointer-events="none"/><g><g class="mark-text role-title-text" role="graphics-symbol" aria-roledescription="title" aria-label="Title text 'Podíl ženských autorek na nově vydaných českých knihách'" pointer-events="none"><text text-anchor="start" transform="translate(0,-1)" font-family="Noticia Text" font-size="14px" font-weight="bolder" fill="#000" opacity="1"><tspan>Podíl ženských autorek</tspan><tspan x="0" dy="21">na nově vydaných českých knihách</tspan></text></g></g><path class="foreground" aria-hidden="true" d="" pointer-events="none" display="none"/></g></g></g><path class="foreground" aria-hidden="true" d="" display="none"/></g></g></g></svg>