<svg xmlns="http://www.w3.org/2000/svg" xmlns:xlink="http://www.w3.org/1999/xlink" version="1.1" class="marks" width="356" height="408" viewBox="0 0 356 408"><rect width="356" height="408" fill="white"/><g fill="none" stroke-miterlimit="10" transform="translate(70,63)"><g class="mark-group role-frame root" role="graphics-object" aria-roledescription="group mark container"><g transform="translate(0,0)"><path class="background" aria-hidden="true" d="M0,0h0v0h0Z"/><g><g class="mark-group role-row-header row_header" role="graphics-object" aria-roledescription="group mark container"><g transform="translate(-3,0)"><path class="background" aria-hidden="true" d="M0,0h0v80h0Z"/><g><g class="mark-group role-title"><g transform="translate(-43.459999084472656,40)"><path class="background" aria-hidden="true" d="M0,0h0v0h0Z" pointer-events="none"/><g><g class="mark-text role-title-text" role="graphics-symbol" aria-roledescription="title" aria-label="Title text 'romány'" pointer-events="none"><text text-anchor="start" transform="translate(0,3)" font-family="Asap" font-size="10px" fill="#000" opacity="1">romány</text></g></g><path class="foreground" aria-hidden="true" d="" pointer-events="none" display="none"/></g></g></g><path class="foreground" aria-hidden="true" d="" display="none"/></g><g transform="translate(-3,121)"><path class="background" aria-hidden="true" d="M0,0h0v80h0Z"/><g><g class="mark-group role-title"><g transform="translate(-61.09999084472656,40)"><path class="background" aria-hidden="true" d="M0,0h0v0h0Z" pointer-events="none"/><g><g class="mark-text role-title-text" role="graphics-symbol" aria-roledescription="title" aria-label="Title text 'kratší prózy'" pointer-events="none"><text text-anchor="start" transform="translate(0,3)" font-family="Asap" font-size="10px" fill="#000" opacity="1">kratší prózy</text></g></g><path class="foreground" aria-hidden="true" d="" pointer-events="none" display="none"/></g></g></g><path class="foreground" aria-hidden="true" d="" display="none"/></g><g transform="translate(-3,242)"><path class="background" aria-hidden="true" d="M0,0h0v80h0Z"/><g><g class="mark-group role-title"><g transform="translate(-39.73999786376953,40)"><path class="background" aria-hidden="true" d="M0,0h0v0h0Z" pointer-events="none"/><g><g class="mark-text role-title-text" role="graphics-symbol" aria-roledescription="title" aria-label="Title text 'poezie'" pointer-events="none"><text text-anchor="start" transform="translate(0,3)" font-family="Asap" font-size="10px" fill="#000" opacity="1">poezie</text></g></g><path class="foreground" aria-hidden="true" d="" pointer-events="none" display="none"/></g></g></g><path class="foreground" aria-hidden="true" d="" display="none"/></g></g><g class="mark-group role-row-footer row_footer" role="graphics-object" aria-roledescription="group mark container"><g transform="translate(253,0)"><path class="background" aria-hidden="true" d="M0,0h0v80h0Z"/><g><g class="mark-group role-axis" role="graphics-symbol" aria-roledescription="axis" aria-label="Y-axis for a linear scale with values from 0.0 to 0.5"><g transform="translate(0.5,0.5)"><path class="background" aria-hidden="true" d="M0,0h0v0h0Z" pointer-events="none"/><g><g class="mark-rule role-axis-tick" pointer-events="none"><line transform="translate(0,80)" x2="5" y2="0" stroke="#DCDDD6" stroke-width="1" opacity="1"/><line transform="translate(0,64)" x2="5" y2="0" stroke="#DCDDD6" stroke-width="1" opacity="1"/><line transform="translate(0,48)" x2="5" y2="0" stroke="#DCDDD6" stroke-width="1" opacity="1"/><line transform="translate(0,32)" x2="5" y2="0" stroke="#DCDDD6" stroke-width="1" opacity="1"/><line transform="translate(0,16)" x2="5" y2="0" stroke="#DCDDD6" stroke-width="1" opacity="1"/><line transform="translate(0,0)" x2="5" y2="0" stroke="#DCDDD6" stroke-width="1" opacity="1"/></g><g class="mark-text role-axis-label" pointer-events="none"><text text-anchor="start" transform="translate(7,83)" font-family="Asap" font-size="10px" fill="#000" opacity="1">0 %</text><text text-anchor="start" transform="translate(7,67)" font-family="Asap" font-size="10px" fill="#000" opacity="1">10 %</text><text text-anchor="start" transform="translate(7,51)" font-family="Asap" font-size="10px" fill="#000" opacity="1">20 %</text><text text-anchor="start" transform="translate(7,35)" font-family="Asap" font-size="10px" fill="#000" opacity="1">30 %</text><text text-anchor="start" transform="translate(7,18.999999999999996)" font-family="Asap" font-size="10px" fill="#000" opacity="1">40 %</text><text text-anchor="start" transform="translate(7,3)" font-family="Asap" font-size="10px" fill="#000" opacity="1">50 %</text></g><g class="mark-rule role-axis-domain" pointer-events="none"><line transform="translate(0,80)" x2="0" y2="-80" stroke="#888" stroke-opacity="0" stroke-width="1" opacity="1"/></g></g><path class="foreground" aria-hidden="true" d="" pointer-events="none" display="none"/></g></g></g><path class="foreground" aria-hidden="true" d="" display="none"/></g><g transform="translate(253,121)"><path class="background" aria-hidden="true" d="M0,0h0v80h0Z"/><g><g class="mark-group role-axis" role="graphics-symbol" aria-roledescription="axis" aria-label="Y-axis for a linear scale with values from 0.0 to 0.5"><g transform="translate(0.5,0.5)"><path class="background" aria-hidden="true" d="M0,0h0v0h0Z" pointer-events="none"/><g><g class="mark-rule role-axis-tick" pointer-events="none"><line transform="translate(0,80)" x2="5" y2="0" stroke="#DCDDD6" stroke-width="1" opacity="1"/><line transform="translate(0,64)" x2="5" y2="0" stroke="#DCDDD6" stroke-width="1" opacity="1"/><line transform="translate(0,48)" x2="5" y2="0" stroke="#DCDDD6" stroke-width="1" opacity="1"/><line transform="translate(0,32)" x2="5" y2="0" stroke="#DCDDD6" stroke-width="1" opacity="1"/><line transform="translate(0,16)" x2="5" y2="0" stroke="#DCDDD6" stroke-width="1" opacity="1"/><line transform="translate(0,0)" x2="5" y2="0" stroke="#DCDDD6" stroke-width="1" opacity="1"/></g><g class="mark-text role-axis-label" pointer-events="none"><text text-anchor="start" transform="translate(7,83)" font-family="Asap" font-size="10px" fill="#000" opacity="1">0 %</text><text text-anchor="start" transform="translate(7,67)" font-family="Asap" font-size="10px" fill="#000" opacity="1">10 %</text><text text-anchor="start" transform="translate(7,51)" font-family="Asap" font-size="10px" fill="#000" opacity="1">20 %</text><text text-anchor="start" transform="translate(7,35)" font-family="Asap" font-size="10px" fill="#000" opacity="1">30 %</text><text text-anchor="start" transform="translate(7,18.999999999999996)" font-family="Asap" font-size="10px" fill="#000" opacity="1">40 %</text><text text-anchor="start" transform="translate(7,3)" font-family="Asap" font-size="10px" fill="#000" opacity="1">50 %</text></g><g class="mark-rule role-axis-domain" pointer-events="none"><line transform="translate(0,80)" x2="0" y2="-80" stroke="#888" stroke-opacity="0" stroke-width="1" opacity="1"/></g></g><path class="foreground" aria-hidden="true" d="" pointer-events="none" display="none"/></g></g></g><path class="foreground" aria-hidden="true" d="" display="none"/></g><g transform="translate(253,242)"><path class="background" aria-hidden="true" d="M0,0h0v80h0Z"/><g><g class="mark-group role-axis" role="graphics-symbol" aria-roledescription="axis" aria-label="Y-axis for a linear scale with values from 0.0 to 0.5"><g transform="translate(0.5,0.5)"><path class="background" aria-hidden="true" d="M0,0h0v0h0Z" pointer-events="none"/><g><g class="mark-rule role-axis-tick" pointer-events="none"><line transform="translate(0,80)" x2="5" y2="0" stroke="#DCDDD6" stroke-width="1" opacity="1"/><line transform="translate(0,64)" x2="5" y2="0" stroke="#DCDDD6" stroke-width="1" opacity="1"/><line transform="translate(0,48)" x2="5" y2="0" stroke="#DCDDD6" stroke-width="1" opacity="1"/><line transform="translate(0,32)" x2="5" y2="0" stroke="#DCDDD6" stroke-width="1" opacity="1"/><line transform="translate(0,16)" x2="5" y2="0" stroke="#DCDDD6" stroke-width="1" opacity="1"/><line transform="translate(0,0)" x2="5" y2="0" stroke="#DCDDD6" stroke-width="1" opacity="1"/></g><g class="mark-text role-axis-label" pointer-events="none"><text text-anchor="start" transform="translate(7,83)" font-family="Asap" font-size="10px" fill="#000" opacity="1">0 %</text><text text-anchor="start" transform="translate(7,67)" font-family="Asap" font-size="10px" fill="#000" opacity="1">10 %</text><text text-anchor="start" transform="translate(7,51)" font-family="Asap" font-size="10px" fill="#000" opacity="1">20 %</text><text text-anchor="start" transform="translate(7,35)" font-family="Asap" font-size="10px" fill="#000" opacity="1">30 %</text><text text-anchor="start" transform="translate(7,18.999999999999996)" font-family="Asap" font-size="10px" fill="#000" opacity="1">40 %</text><text text-anchor="start" transform="translate(7,3)" font-family="Asap" font-size="10px" fill="#000" opacity="1">50 %</text></g><g class="mark-rule role-axis-domain" pointer-events="none"><line transform="translate(0,80)" x2="0" y2="-80" stroke="#888" stroke-opacity="0" stroke-width="1" opacity="1"/></g></g><path class="foreground" aria-hidden="true" d="" pointer-events="none" display="none"/></g></g></g><path class="foreground" aria-hidden="true" d="" display="none"/></g></g><g class="mark-group role-scope cell" role="graphics-object" aria-roledescription="group mark container"><g transform="translate(0,0)"><path class="background" aria-hidden="true" d="M0.5,0.5h250v80h-250Z"/><g><g class="mark-group role-axis" aria-hidden="true"><g transform="translate(0.5,80.5)"><path class="background" aria-hidden="true" d="M0,0h0v0h0Z" pointer-events="none"/><g><g class="mark-rule role-axis-grid" pointer-events="none"><line transform="translate(0,-80)" x2="0" y2="80" stroke="#ddd" stroke-width="1" opacity="1"/><line transform="translate(50,-80)" x2="0" y2="80" stroke="#ddd" stroke-width="1" opacity="1"/><line transform="translate(100,-80)" x2="0" y2="80" stroke="#ddd" stroke-width="1" opacity="1"/><line transform="translate(150,-80)" x2="0" y2="80" stroke="#ddd" stroke-width="1" opacity="1"/><line transform="translate(200,-80)" x2="0" y2="80" stroke="#ddd" stroke-width="1" opacity="1"/><line transform="translate(250,-80)" x2="0" y2="80" stroke="#ddd" stroke-width="1" opacity="1"/></g></g><path class="foreground" aria-hidden="true" d="" pointer-events="none" display="none"/></g></g><g class="mark-group role-axis" aria-hidden="true"><g transform="translate(250.5,0.5)"><path class="background" aria-hidden="true" d="M0,0h0v0h0Z" pointer-events="none"/><g><g class="mark-rule role-axis-grid" pointer-events="none"><line transform="translate(0,80)" x2="-250" y2="0" stroke="#ddd" stroke-width="1" opacity="1"/><line transform="translate(0,64)" x2="-250" y2="0" stroke="#ddd" stroke-width="1" opacity="1"/><line transform="translate(0,48)" x2="-250" y2="0" stroke="#ddd" stroke-width="1" opacity="1"/><line transform="translate(0,32)" x2="-250" y2="0" stroke="#ddd" stroke-width="1" opacity="1"/><line transform="translate(0,16)" x2="-250" y2="0" stroke="#ddd" stroke-width="1" opacity="1"/><line transform="translate(0,0)" x2="-250" y2="0" stroke="#ddd" stroke-width="1" opacity="1"/></g></g><path class="foreground" aria-hidden="true" d="" pointer-events="none" display="none"/></g></g><g class="mark-group role-axis" role="graphics-symbol" aria-roledescription="axis" aria-label="X-axis for a time scale with values from Saturday, 01 January 2000, 12:00:00 AM to Wednesday, 01 January 2025, 12:00:00 AM"><g transform="translate(0.5,80.5)"><path class="background" aria-hidden="true" d="M0,0h0v0h0Z" pointer-events="none"/><g><g class="mark-rule role-axis-tick" pointer-events="none"><line transform="translate(0,0)" x2="0" y2="5" stroke="#DCDDD6" stroke-width="1" opacity="1"/><line transform="translate(50,0)" x2="0" y2="5" stroke="#DCDDD6" stroke-width="1" opacity="1"/><line transform="translate(100,0)" x2="0" y2="5" stroke="#DCDDD6" stroke-width="1" opacity="1"/><line transform="translate(150,0)" x2="0" y2="5" stroke="#DCDDD6" stroke-width="1" opacity="1"/><line transform="translate(200,0)" x2="0" y2="5" stroke="#DCDDD6" stroke-width="1" opacity="1"/><line transform="translate(250,0)" x2="0" y2="5" stroke="#DCDDD6" stroke-width="1" opacity="1"/></g><g class="mark-text role-axis-label" pointer-events="none"><text text-anchor="start" transform="translate(0,15)" font-family="Asap" font-size="10px" fill="#000" opacity="1">2000</text><text text-anchor="middle" transform="translate(50.016425755584756,15)" font-family="Asap" font-size="10px" fill="#000" opacity="1">2005</text><text text-anchor="middle" transform="translate(100.00547525186158,15)" font-family="Asap" font-size="10px" fill="#000" opacity="1">2010</text><text text-anchor="middle" transform="translate(149.9945247481384,15)" font-family="Asap" font-size="10px" fill="#000" opacity="1">2015</text><text text-anchor="middle" transform="translate(199.98357424441522,15)" font-family="Asap" font-size="10px" fill="#000" opacity="1">2020</text><text text-anchor="end" transform="translate(250,15)" font-family="Asap" font-size="10px" fill="#000" opacity="1">2025</text></g><g class="mark-rule role-axis-domain" pointer-events="none"><line transform="translate(0,0)" x2="250" y2="0" stroke="#888" stroke-opacity="0" stroke-width="1" opacity="1"/></g></g><path class="foreground" aria-hidden="true" d="" pointer-events="none" display="none"/></g></g><g class="mark-line role-mark child_marks" role="graphics-object" aria-roledescription="line mark container"><path aria-label="rok: Jan 01, 2000; podil_zen: 0.466348669645" role="graphics-symbol" aria-roledescription="line mark" d="M0,5.384L10.02,8.927L20.012,13.311L30.004,15.908L39.997,13.638L50.016,11.371L60.009,4.873L70.001,-0.903L79.993,1.044L90.013,3.535L100.005,6.173L109.998,5.489L119.99,5.447L130.01,8.668L140.002,9.828L149.995,7.934L159.987,8.744L170.007,12.134L179.999,12.474L189.991,9.875L199.984,4.693L210.003,4.594L219.996,3.282L229.988,-0.216L239.98,-3.935L250,-3.718" stroke="#4c78a8" stroke-width="2"/></g></g><path class="foreground" aria-hidden="true" d="" display="none"/></g><g transform="translate(0,121)"><path class="background" aria-hidden="true" d="M0.5,0.5h250v80h-250Z"/><g><g class="mark-group role-axis" aria-hidden="true"><g transform="translate(0.5,80.5)"><path class="background" aria-hidden="true" d="M0,0h0v0h0Z" pointer-events="none"/><g><g class="mark-rule role-axis-grid" pointer-events="none"><line transform="translate(0,-80)" x2="0" y2="80" stroke="#ddd" stroke-width="1" opacity="1"/><line transform="translate(50,-80)" x2="0" y2="80" stroke="#ddd" stroke-width="1" opacity="1"/><line transform="translate(100,-80)" x2="0" y2="80" stroke="#ddd" stroke-width="1" opacity="1"/><line transform="translate(150,-80)" x2="0" y2="80" stroke="#ddd" stroke-width="1" opacity="1"/><line transform="translate(200,-80)" x2="0" y2="80" stroke="#ddd" stroke-width="1" opacity="1"/><line transform="translate(250,-80)" x2="0" y2="80" stroke="#ddd" stroke-width="1" opacity="1"/></g></g><path class="foreground" aria-hidden="true" d="" pointer-events="none" display="none"/></g></g><g class="mark-group role-axis" aria-hidden="true"><g transform="translate(250.5,0.5)"><path class="background" aria-hidden="true" d="M0,0h0v0h0Z" pointer-events="none"/><g><g class="mark-rule role-axis-grid" pointer-events="none"><line transform="translate(0,80)" x2="-250" y2="0" stroke="#ddd" stroke-width="1" opacity="1"/><line transform="translate(0,64)" x2="-250" y2="0" stroke="#ddd" stroke-width="1" opacity="1"/><line transform="translate(0,48)" x2="-250" y2="0" stroke="#ddd" stroke-width="1" opacity="1"/><line transform="translate(0,32)" x2="-250" y2="0" stroke="#ddd" stroke-width="1" opacity="1"/><line transform="translate(0,16)" x2="-250" y2="0" stroke="#ddd" stroke-width="1" opacity="1"/><line transform="translate(0,0)" x2="-250" y2="0" stroke="#ddd" stroke-width="1" opacity="1"/></g></g><path class="foreground" aria-hidden="true" d="" pointer-events="none" display="none"/></g></g><g class="mark-group role-axis" role="graphics-symbol" aria-roledescription="axis" aria-label="X-axis for a time scale with values from Saturday, 01 January 2000, 12:00:00 AM to Wednesday, 01 January 2025, 12:00:00 AM"><g transform="translate(0.5,80.5)"><path class="background" aria-hidden="true" d="M0,0h0v0h0Z" pointer-events="none"/><g><g class="mark-rule role-axis-tick" pointer-events="none"><line transform="translate(0,0)" x2="0" y2="5" stroke="#DCDDD6" stroke-width="1" opacity="1"/><line transform="translate(50,0)" x2="0" y2="5" stroke="#DCDDD6" stroke-width="1" opacity="1"/><line transform="translate(100,0)" x2="0" y2="5" stroke="#DCDDD6" stroke-width="1" opacity="1"/><line transform="translate(150,0)" x2="0" y2="5" stroke="#DCDDD6" stroke-width="1" opacity="1"/><line transform="translate(200,0)" x2="0" y2="5" stroke="#DCDDD6" stroke-width="1" opacity="1"/><line transform="translate(250,0)" x2="0" y2="5" stroke="#DCDDD6" stroke-width="1" opacity="1"/></g><g class="mark-text role-axis-label" pointer-events="none"><text text-anchor="start" transform="translate(0,15)" font-family="Asap" font-size="10px" fill="#000" opacity="1">2000</text><text text-anchor="middle" transform="translate(50.016425755584756,15)" font-family="Asap" font-size="10px" fill="#000" opacity="1">2005</text><text text-anchor="middle" transform="translate(100.00547525186158,15)" font-family="Asap" font-size="10px" fill="#000" opacity="1">2010</text><text text-anchor="middle" transform="translate(149.9945247481384,15)" font-family="Asap" font-size="10px" fill="#000" opacity="1">2015</text><text text-anchor="middle" transform="translate(199.98357424441522,15)" font-family="Asap" font-size="10px" fill="#000" opacity="1">2020</text><text text-anchor="end" transform="translate(250,15)" font-family="Asap" font-size="10px" fill="#000" opacity="1">2025</text></g><g class="mark-rule role-axis-domain" pointer-events="none"><line transform="translate(0,0)" x2="250" y2="0" stroke="#888" stroke-opacity="0" stroke-width="1" opacity="1"/></g></g><path class="foreground" aria-hidden="true" d="" pointer-events="none" display="none"/></g></g><g class="mark-line role-mark child_marks" role="graphics-object" aria-roledescription="line mark container"><path aria-label="rok: Jan 01, 2000; podil_zen: 0.25362702531" role="graphics-symbol" aria-roledescription="line mark" d="M0,39.42L10.02,38.763L20.012,39.632L30.004,42.512L39.997,38.421L50.016,31.235L60.009,29.824L70.001,26.708L79.993,27.061L90.013,24.132L100.005,23.898L109.998,23.024L119.99,15.76L130.01,14.381L140.002,13.957L149.995,12.691L159.987,13.262L170.007,10.521L179.999,7.951L189.991,6.648L199.984,5.058L210.003,1.942L219.996,2.187L229.988,1.022L239.98,0.159L250,8.114" stroke="#4c78a8" stroke-width="2"/></g></g><path class="foreground" aria-hidden="true" d="" display="none"/></g><g transform="translate(0,242)"><path class="background" aria-hidden="true" d="M0.5,0.5h250v80h-250Z"/><g><g class="mark-group role-axis" aria-hidden="true"><g transform="translate(0.5,80.5)"><path class="background" aria-hidden="true" d="M0,0h0v0h0Z" pointer-events="none"/><g><g class="mark-rule role-axis-grid" pointer-events="none"><line transform="translate(0,-80)" x2="0" y2="80" stroke="#ddd" stroke-width="1" opacity="1"/><line transform="translate(50,-80)" x2="0" y2="80" stroke="#ddd" stroke-width="1" opacity="1"/><line transform="translate(100,-80)" x2="0" y2="80" stroke="#ddd" stroke-width="1" opacity="1"/><line transform="translate(150,-80)" x2="0" y2="80" stroke="#ddd" stroke-width="1" opacity="1"/><line transform="translate(200,-80)" x2="0" y2="80" stroke="#ddd" stroke-width="1" opacity="1"/><line transform="translate(250,-80)" x2="0" y2="80" stroke="#ddd" stroke-width="1" opacity="1"/></g></g><path class="foreground" aria-hidden="true" d="" pointer-events="none" display="none"/></g></g><g class="mark-group role-axis" aria-hidden="true"><g transform="translate(250.5,0.5)"><path class="background" aria-hidden="true" d="M0,0h0v0h0Z" pointer-events="none"/><g><g class="mark-rule role-axis-grid" pointer-events="none"><line transform="translate(0,80)" x2="-250" y2="0" stroke="#ddd" stroke-width="1" opacity="1"/><line transform="translate(0,64)" x2="-250" y2="0" stroke="#ddd" stroke-width="1" opacity="1"/><line transform="translate(0,48)" x2="-250" y2="0" stroke="#ddd" stroke-width="1" opacity="1"/><line transform="translate(0,32)" x2="-250" y2="0" stroke="#ddd" stroke-width="1" opacity="1"/><line transform="translate(0,16)" x2="-250" y2="0" stroke="#ddd" stroke-width="1" opacity="1"/><line transform="translate(0,0)" x2="-250" y2="0" stroke="#ddd" stroke-width="1" opacity="1"/></g></g><path class="foreground" aria-hidden="true" d="" pointer-events="none" display="none"/></g></g><g class="mark-group role-axis" role="graphics-symbol" aria-roledescription="axis" aria-label="X-axis for a time scale with values from Saturday, 01 January 2000, 12:00:00 AM to Wednesday, 01 January 2025, 12:00:00 AM"><g transform="translate(0.5,80.5)"><path class="background" aria-hidden="true" d="M0,0h0v0h0Z" pointer-events="none"/><g><g class="mark-rule role-axis-tick" pointer-events="none"><line transform="translate(0,0)" x2="0" y2="5" stroke="#DCDDD6" stroke-width="1" opacity="1"/><line transform="translate(50,0)" x2="0" y2="5" stroke="#DCDDD6" stroke-width="1" opacity="1"/><line transform="translate(100,0)" x2="0" y2="5" stroke="#DCDDD6" stroke-width="1" opacity="1"/><line transform="translate(150,0)" x2="0" y2="5" stroke="#DCDDD6" stroke-width="1" opacity="1"/><line transform="translate(200,0)" x2="0" y2="5" stroke="#DCDDD6" stroke-width="1" opacity="1"/><line transform="translate(250,0)" x2="0" y2="5" stroke="#DCDDD6" stroke-width="1" opacity="1"/></g><g class="mark-text role-axis-label" pointer-events="none"><text text-anchor="start" transform="translate(0,15)" font-family="Asap" font-size="10px" fill="#000" opacity="1">2000</text><text text-anchor="middle" transform="translate(50.016425755584756,15)" font-family="Asap" font-size="10px" fill="#000" opacity="1">2005</text><text text-anchor="middle" transform="translate(100.00547525186158,15)" font-family="Asap" font-size="10px" fill="#000" opacity="1">2010</text><text text-anchor="middle" transform="translate(149.9945247481384,15)" font-family="Asap" font-size="10px" fill="#000" opacity="1">2015</text><text text-anchor="middle" transform="translate(199.98357424441522,15)" font-family="Asap" font-size="10px" fill="#000" opacity="1">2020</text><text text-anchor="end" transform="translate(250,15)" font-family="Asap" font-size="10px" fill="#000" opacity="1">2025</text></g><g class="mark-rule role-axis-domain" pointer-events="none"><line transform="translate(0,0)" x2="250" y2="0" stroke="#888" stroke-opacity="0" stroke-width="1" opacity="1"/></g></g><path class="foreground" aria-hidden="true" d="" pointer-events="none" display="none"/></g></g><g class="mark-line role-mark child_marks" role="graphics-object" aria-roledescription="line mark container"><path aria-label="rok: Jan 01, 2000; podil_zen: 0.214885655974" role="graphics-symbol" aria-roledescription="line mark" d="M0,45.618L10.02,47.174L20.012,45.923L30.004,40.3L39.997,41.823L50.016,43.041L60.009,35.784L70.001,35.782L79.993,36.985L90.013,33.024L100.005,30.373L109.998,31.263L119.99,36.205L130.01,34.097L140.002,28.729L149.995,31.939L159.987,34.061L170.007,32.64L179.999,30.998L189.991,27.149L199.984,29.817L210.003,28.308L219.996,26.466L229.988,30.415L239.98,28.289L250,32.587" stroke="#4c78a8" stroke-width="2"/></g></g><path class="foreground" aria-hidden="true" d="" display="none"/></g></g><g class="mark-group role-title"><g transform="translate(-64.09999084472656,-45.93452607537114)"><path class="background" aria-hidden="true" d="M0,0h0v0h0Z" pointer-events="none"/><g><g class="mark-text role-title-text" role="graphics-symbol" aria-roledescription="title" aria-label="Title text 'Podíl ženských autorek na nově vydaných českých knihách'" pointer-events="none"><text text-anchor="start" transform="translate(0,-1)" font-family="Noticia Text" font-size="14px" font-weight="bolder" fill="#000" opacity="1"><tspan>Podíl ženských autorek</tspan><tspan x="0" dy="21">na nově vydaných českých knihách</tspan></text></g></g><path class="foreground" aria-hidden="true" d="" pointer-events="none" display="none"/></g></g></g><path class="foreground" aria-hidden="true" d="" display="none"/></g></g></g></svg>